/* XPM */
static char *result[] = {
/* columns rows colors chars-per-pixel */
"50 50 16 1 ",
"  c #BCADD6",
". c #BEAED9",
"X c #BFB1DC",
"o c #C1AFDB",
"O c #C4B4DE",
"+ c #C8B6DF",
"@ c #C7B9DE",
"# c #C6B6E1",
"$ c #C9B6E2",
"% c #C7B8E2",
"& c #CABBE5",
"* c #CDBDE9",
"= c #D0BCE7",
"- c #D0BEEA",
"; c #CFC0EA",
": c #D1C1EB",
/* pixels */
"O&#O&;%%%%*O*&X;%%&;O*#*O#;%&#*&@;%%#%%#*%O%;%&O%X",
"o**&%&@&&X%*&X;&%;*XX*%&&%%X%#*%@%O%#;%&OOO%%%%%&X",
"$**%O@%;X#&%XX;%%*%O%%;%&X&;%#*%;%@%&;%%X&O%;%O%%%",
"o*&+%O;&%%*O%;;O#%$%O%&#&#;&&%*%O&%%&%%O&%;*%*%&%%",
"#+%%&%&&X%&O%;%O%%#%&X*O*#**%%*#;%@O;O%O**;X;@%%##",
"#@;%&@&&%&;&:%&%&%%#X#;#*o#*&#&&&;%%%O;;&;%OO;&&%%",
"#&;O%X&&%;@&%%#&%**X**&&$O*-%%%%%%@;%O;O;%&;%@O%*&",
"-#&X;%*O%@O%O&#&*&##&%&&&o*%##**X;@%;O;@;XXOX;;O*#",
"&&&&%O&&%&%&O&#&*o#o$&%*&$$=$#&O@;O&%;O%%X%&OO+%#X",
"$$$+%O;%%;;%&&&$$o*#&&&&+$$=#$##%%O%%@O;%#%&@%%%*#",
"O+&&O&%&&&%%%#$O$#$*%*&+$$$$%;O&;;;&%.%&%%%%&%&&*#",
"O*&&%%&%%%%@O&$&$-*#**+$=$=$*%&&%;%%%@&;%&&&&%%;%#",
"++%OO&%%%%%%O;&&*-$o=$+$&&&O@&%+&;;O%%;%%&&O*#&%##",
"+O#O@&%%%;O;%;%;*$o$==+O&;&O#&O&%&%X;%X&&&&&##&%&#",
"o$$+%;O@;O%@@ &&$o$*=$$=$&%##*%;%&%X%O&;%&%%$**X##",
"o+:+;;O;%;%O;@:%$#*$+&$$&&##%&*%OX;%;;&&&;X%$*$#&o",
"+*;O;%@;;%%O**%$$#*$&=+#&$&%+&*X#%;%*%%&###$*$#&&O",
"+@%@O%O%%O%&*##&#$**&%+O&+&&%%**%**#%%###%*%&#&#+O",
"o&&&;;;;OO%&#&*##***O+O+&&+&&%*#*#%%*#%#$*#*#&%#OO",
"O*@%;O;X@%%&%;$#O*$#@&O&$*&#%XX&&O&+%**&#$X*#*%*&O",
"o=$*O%;;X&%%**$%%&*#%&%%%*%%&X&;o&*O&&$$O%#=#$%%O%",
"O$$&%&&;O;;&*%&%%X*XX*&O%;%;#O%%#$*&O&#$&*#**%%*O%",
"O$&$X;*X%;OX%o%##%*X;;X:&;&OO&%;=*=$$$#$&$*$$X*%%+",
"##+O;%%X*&X%*##$**#%*%O**%O.;&@%O=$$=$#&$*-=#$%&&O",
"o$#;%&*%%&&#$O*-;%X&&%&%&%X%;%&&**X*#X*%&%;X&%&%&O",
"$$**&&%%#*X*o#-*&XO&%%%&%%%&@%;&*O*%&#*#&%&X:&&&#O",
"o$*#%#%%%%&&$*-$#O*X*&X;%%&%&O;OX%%#;O&&*&#%&O&%O ",
"$=*$*%%%&@&&**$$$#&O%;;%%*#%@;;.#**X;O&#&%;&&&**##",
"&&;;%%&%&%&&==$$&*+&;;O;O;O%@;OO*&&#*$&&&&##*%%%#%",
"o&%%%%O;&&&&&$+O&&@&%@&%%;%;%;&&#*&#*$$$+&#&%X%*##",
"#*;%O;%&%#&%&*O$+*O%O&;@%%%;X;O%#$##$$&&+O%&X&*&%X",
"#*&O@O;%+%@%%+O+&&%&&&%%%%&OO;XO*##$**&###;&$%%$#X",
"o$$#%@&%;&&&&&O+*&&.&*O&@O%%&#&#&##**$X$$%%%**%%&%",
"#$$#%%;O%&$+*++$*&&O&&+&%%*%&##&*#%#*#%*$*%*%%%&%%",
"#*$#&%*%&&$$*+O**&OO**&*&&%%%#%*&%#**&*#%*%*X%O%##",
"#$##%O;#&&O&&&$$-$+o$+&*%&&;#**#%%&;%#XX%*%%;&&O#+",
"##$$*$&%&O$=$O&&*$&O%&&#&*OO&%**&**#*X&#&%&&%*O&&$",
"$**$%$#&$$$$=*O$*#&O;;X%%;X%&;***&%#%###&&&&%*%&$#",
"$*$*$*&%$=#*$#$&;%&%;@X&*%%&%&##%#%X%%#&&%;@O;O&$O",
"$*$**###:$#$#O$-*$$%O%%%%%&&%*#*###**##*%;%;%;O;O#",
"o&&$$+&+$++&+@-&$####*O;%%*#%#**%%@%;;O;%;%%*&%&O%",
"$-&$=+&$++$&&+***$&**&**%&*&$#*$;%X;%OOO;%%%O%;&+&",
"$=$&+O&&O+$=*$$*%%&%%%%%%%#**$$*%X;X; %&%%O%;%%XO&",
"$=$=&+%&$$$$#$*O&%#*##O*%%#%###%%@%%;X;&%;%%;@;%&o",
"o-==OO&**$$%*#*X*#$*;%&;%%*%&X%*%%&%%O%%%#%%%&%%O+",
"o-$$##&**$*#%**$&&*&OOO;%#;X*&;%&%*%;%;O*&&%;&*%++",
"o=$$#X*##$%*$$*$&#&@%%;@&@%O@&%O*%*%%;%O&%&%;&%%&O",
"$-=$#$$$*$*$$o**+&&O&%;X&%X%%&;%*O%O&O%;%#%O%&O&&O",
"$-$$$$$&*&*%&X&OO&@O&&&@%&O@&&&&*%%%%O*;X;OX;;;@@%",
"=-$$*$&&##*%O%&&&*%&X%&%*@;O*%%;OX%%;%&%X;OO;%OO;%"
};
