/* XPM */
static char *_3f480e4b5e94c8c9beb08a2fbe09ebfRYSNTQzNAcEhhk5h[] = {
/* columns rows colors chars-per-pixel */
"43 43 123 2 ",
"   c #4D4F5B",
".  c #4F525B",
"X  c #51545E",
"o  c #545662",
"O  c #565963",
"+  c #595C66",
"@  c #5C5E69",
"#  c #5D6067",
"$  c #5E616B",
"%  c #61646E",
"&  c #646671",
"*  c #666974",
"=  c #696B76",
"-  c #6C6E7A",
";  c #6E717B",
":  c #71737E",
">  c #737582",
",  c #777984",
"<  c #797B86",
"1  c #7C7E89",
"2  c #7F818C",
"3  c #81838E",
"4  c #85888F",
"5  c #848692",
"6  c #878994",
"7  c #898B96",
"8  c #8C8E9B",
"9  c #908F9D",
"0  c #8E909D",
"q  c #90929E",
"w  c #8D8EA0",
"e  c #8F91A0",
"r  c #9797A1",
"t  c #9594A2",
"y  c #9695A3",
"u  c #9496A2",
"i  c #9496A3",
"p  c #9597A3",
"a  c #9696A2",
"s  c #9495A0",
"d  c #9597A4",
"f  c #9395A1",
"g  c #9598A1",
"h  c #9699A2",
"j  c #979AA3",
"k  c #9698A4",
"l  c #9698A5",
"z  c #9799A5",
"x  c #9698A5",
"c  c #9898A2",
"v  c #9999A5",
"b  c #989BA4",
"n  c #9A9AA4",
"m  c #9A99A7",
"M  c #989AA6",
"N  c #989AA7",
"B  c #999BA7",
"V  c #999CA5",
"C  c #9B9EA5",
"Z  c #9A9DA6",
"A  c #9B9EA7",
"S  c #999BA6",
"D  c #999BA8",
"F  c #9A9CA8",
"G  c #9B9DA9",
"H  c #9C9CA8",
"J  c #9C9EAA",
"K  c #9C9EAB",
"L  c #9D9FAB",
"P  c #9E9EAA",
"I  c #9C9DA9",
"U  c #9DA0A7",
"Y  c #9DA0A9",
"T  c #9EA1AA",
"R  c #9FA2AB",
"E  c #9EA0AC",
"W  c #9FA1AD",
"Q  c #9EA1AC",
"!  c #A0A0AA",
"~  c #A1A1AD",
"^  c #A0A3AC",
"/  c #A3A3AD",
"(  c #A0A2AE",
")  c #A0A2AF",
"_  c #A1A3AF",
"`  c #A3A3AF",
"'  c #A1A4AD",
"]  c #A2A5AE",
"[  c #A3A6AF",
"{  c #A5A5AF",
"}  c #A1A3AD",
"|  c #A5A8AF",
" . c #A1A3B0",
".. c #A2A4B0",
"X. c #A3A5B1",
"o. c #A4A4B0",
"O. c #A4A7B0",
"+. c #A4A6B2",
"@. c #A4A6B1",
"#. c #A5A8B1",
"$. c #A7AAB1",
"%. c #A6A9B2",
"&. c #A7AAB3",
"*. c #A6A8B4",
"=. c #A7A9B5",
"-. c #A7A9B3",
";. c #A9A9B3",
":. c #A8ABB4",
">. c #ABABB5",
",. c #ABABB7",
"<. c #A9ACB5",
"1. c #ABAEB7",
"2. c #ADADB7",
"3. c #A9ABB6",
"4. c #AAACB8",
"5. c #AAACB9",
"6. c #ACAEBA",
"7. c #ACAEB9",
"8. c #ADB0B7",
"9. c #ADB0B9",
"0. c #B0B3BC",
"q. c #B2B2BC",
"w. c #B0B0BA",
/* pixels */
"W 8 q 0 > ; G 2 # + % ; , 6 q 0 8 f d 4.> $ 7 0 8 0  .f 0 8 q 0 7 _ 2 @ , 0 0 8 0 u V ",
"+.8 0 8 @ 5 W _ ! 3 % O % : 1 7 f q 0 G _ @ * 6 q 0 _ 0 0 f 8 0 q 0 G @ & 5 0 q 8 0 f ",
"_ 7 0 5 @ G q 8 M ,.;.7 = + @ = < 5 q 8 +.8 o & 6 q J u 0 8 0 0 0 7 X.3 O 2 0 8 0 8 8 ",
"_ 8 f = = _ M 0 8 q _ ,.;.u , % $ & < 5 q 1., o ; 8 u u f 0 q 8 8 0 f +.$ - 0 8 8 8 8 ",
"X.8 5 + 1 q z q 8 8 q 8 u _ { ! 1 & o % : 1 q % o < q 0 u z 0 f 0 q 8 T 3 o 5 f 8 e f ",
"q ; + @ q 0 f f u 0 8 8 0 8 q _ W G 7 = @ O ; % @ @ < f 8 8 z q f f u V ,.= , f u 8 6 ",
"7 + o > z 0 8 0 8 0 q 0 0 8 8 u G f M M 6 , + @ @ @ + , f 0 8 0 8 0 0 7 7 ; & 2 > : ; ",
"=.$ O * 1 5 0 f f 8 0 0 8 0 f 8 q u G u f z 0 % X O $ * 5 f 8 0 f 0 6 = X o @ > 5 u _ ",
"8 + , > O o = > 2 q q q f 8 0 0 0 7 0 f f 0 > & 3 & O + * 2 f 8 5 * O @ > 8 J D G f q ",
"q X , 4.+.5 * o + > < 2 8 q 8 8 8 f 0 0 q 7 % 8 6.+.8 * X * , = @ ; 5 z M u f 8 8 8 q ",
"h @ * q u G _ M 2 & o + - 3 f f f 8 0 8 f - * _ 0 f _ +.6 & O X 5 +._ f 0 8 7 f 0 0 q ",
"V + $ f f 6 0 u _ M 8 > O o = 2 6 7 q 0 8 + 8 ' 8 7 8 G +.X.7 * o * 3 J J M u f z f 0 ",
"h @ $ 8 V 0 f q u 0 z X.J 5 * X o % , q ; = &.q u f 0 8 8 f _ +.8 % O - 5 q J M q 0 8 ",
"M @ @ 1 M q 0 8 M u q 8 8 J X.u < @   % @ 6 T 6 f z z M u 0 0 8 +.&.7 & % > 8 q q 0 8 ",
"h @ + - f h 0 8 8 _ W f 8 6 8 u =.+.0 * $ % O % : 5 8 8 0 u z f 8 u X._ 5 * ; 3 7 0 0 ",
"h @ $ : f h 7 f 8 G f 8 0 8 0 8 7 q G 2 h V 6 * X $ $ + * > 6 0 u q 8 u 5 * @ % > 6 f ",
"q $ + > u u 0 8 0 f z q 8 0 q 0 w 0 ; : +.M X.| * = 6 1 & $ + $ = 1 5 = + 8 f + + = 3 ",
"4 @ + = 0 f q 0 8 0 q f f q 8 8 f 7 @ q M 8 8 T +.& ; h T V u 5 > - * o , q 3 6 = @ % ",
"2 $ * $ 5 z 8 8 0 8 8 q f q 0 0 u , = 2.q 8 0 8 ' ' @ % 3 8 z _ X.X.< & 2 : ; = = % . ",
"0 0 f & , u u q 0 q 8 8 0 0 8 8 7 % 3 _ _ q 8 8 q ,.' & $ 1 0 M f 5 & ; M W =.G T _ 6 ",
"3 5 0 - 3 u f 8 8 q 0 8 8 8 0 8 ; % M 7 J M 0 8 8 q ,.V % $ , 5 u 5 % = 8 8 8 M _ h V ",
"5 < D = : z f 0 0 0 8 0 0 0 f 8 $ , M q c T 0 e 0 0 f ,.T $ % = 5 f $ * 8 0 u M 8 8 f ",
"_ - z , - u 0 0 q 0 8 q q q 0 1 + G u 7 u &.8 8 0 8 8 0 1.T $ % > 5 & * 7 0 f 0 8 f 8 ",
"0.= 8 3 * 1 q q 8 0 0 f 0 0 3 @ : W 8 8 M U 0 f 0 8 8 0 q &.V # % ; & = 8 0 D 8 0 8 0 ",
"0.3 < q @ & , 5 8 5 8 f q 3 * o q u 0 8 q J 0 9 0 8 8 0 8 8 =.G @ % & = q 8 M f 8 q u ",
"+.c % & @ X X @ = - > 5 q 3 @ = ,.0 8 f 8 D z 8 8 f 0 0 0 8 6 =.J @ O = q 0 u q q u M ",
"J G - % T q , * + o @ & > : O 7 J 8 8 q 7 f J 8 f 0 8 8 8 f 0 0 +.V $ : u 8 u 0 0 u M ",
"W f f + h +.+.&.! q < * @ @ X - 1 q f 0 0 8 G u 0 8 8 q f 8 0 0 6 , * = q q 8 f 8 8 0 ",
"W 8 J % < V 0 q M ,.+.,._ 8 1 % @ < 8 8 f f G u 8 8 0 8 8 f 0 0 = X o = < 8 f u 0 0 0 ",
"X.q 5 @ > J f q 8 0 8 f M J ,.&.- + : 5 8 0 u _ 0 0 0 0 f 8 8 8 O : - o % > 8 3 q q q ",
"J 6 ; + > M M 7 f 8 0 0 8 8 8 G w.: + * 6 f 0 M J 8 8 8 0 0 8 * ; X.W 2 $ O * & 3 5 5 ",
"3 - * O & 8 D f 8 f 8 q 8 f q 0 P 8.5 @ = 6 8 8 G u 0 0 f 8 & & M q 8 J z - o O O + $ ",
"< X O O $ 6 T q 0 8 8 q u z z d u u 1.q O % ; 3 u u 8 f 6 % * { u 7 8 8 q W : % J 8 , ",
"6.0 < * + 6 0 J 8 8 q d u 0 8 0 8 f 8 ,.W $ @ ; 2 0 f 2 @ % ! ! 8 f 8 f 6 $ 1 _ M W _ ",
"T q W +.= 2 f z z D z q 8 8 0 0 f 0 8 8 J X.= O = 5 5 @ @ G 0 M d 6 f 8 = 3 ,.8 8 8 7 ",
"' 8 z =.< > f 7 f z M z z z f 0 f 8 8 0 8 M +.> o = @ + M u 8 z f z < $ 0 W q f q f 0 ",
"+.u q u 5 = f d f 8 8 q q 0 0 q e 0 f 8 q 0 f +.3 . % V q 0 q 6 5 > * V +.6 8 8 8 0 u ",
"_ 7 0 u f + - = = * * - - = = - > < > > : , , 1 _ < ; 2 = : = * + ; T q V u 8 9 q 0 0 ",
"W 8 8 f W + = , - - = * & % @ + @ X @ % % % & * = 3 * % & = * & @ = 8 0 z _ M q 8 8 0 ",
"W 8 8 q _ & T 9.1.&.' ' ' ' T T T 7 < h u M _ M _ J _ T c T ' &.= O > 0 8 q J ! z 0 0 ",
"_ 8 q 8 M : V G 0 f q 0 0 0 f 0 q 4., : 0 q 0 q 0 u J 8 8 8 8 G q + % 3 0 0 8 q J _ 8 ",
"_ 7 8 q G 2 q q 8 f q q f 0 0 0 8 0 X.* > 8 q 8 8 8 G 0 0 0 8 0 J > O < f 8 8 8 h _ 8 ",
"+.0 0 0 8 ; & = < 3 5 8 f f d z u 0 _ 7 % 7 f f d 0 J u q f f 0 J u @ ; 8 f f 8 u { u "
};
