/* XPM */
static char *result[] = {
/* columns rows colors chars-per-pixel */
"50 50 66 1 ",
"  c #6D568F",
". c #70578F",
"X c #6E5792",
"o c #6E5992",
"O c #705792",
"+ c #725B95",
"@ c #755E99",
"# c #785F9B",
"$ c #76619A",
"% c #7B639D",
"& c #7E65A1",
"* c #7E69A2",
"= c #8067A2",
"- c #836BA5",
"; c #886FA6",
": c #866DA9",
"> c #896FAB",
", c #8671AA",
"< c #8B73AD",
"1 c #9178AF",
"2 c #8E75B1",
"3 c #8E79B2",
"4 c #9176B3",
"5 c #937AB5",
"6 c #987DB6",
"7 c #967CB9",
"8 c #997EBB",
"9 c #9C7FC0",
"0 c #9A80B7",
"q c #9681BA",
"w c #9C83BD",
"e c #A186BE",
"r c #A189BE",
"t c #9E84C1",
"y c #9F8AC3",
"u c #A186C2",
"i c #A48BC4",
"p c #A88DC5",
"a c #A68DC9",
"s c #A98FCA",
"d c #AB90C7",
"f c #A691CA",
"g c #AC93CC",
"h c #B196CE",
"j c #B299CE",
"k c #A98FD0",
"l c #AE95D0",
"z c #AE99D2",
"x c #B197D1",
"c c #B49AD3",
"v c #B99ED5",
"b c #B79EDA",
"n c #BA9FD9",
"m c #BBA2D7",
"M c #B7A2DB",
"N c #BCA3DB",
"B c #BFA6E0",
"V c #C1A6DD",
"C c #C3A8DE",
"Z c #C8ADDF",
"A c #C1A7E1",
"S c #C5ABE3",
"D c #C9AEE5",
"F c #CAAEE9",
"G c #CBB1E6",
"H c #CCB2EA",
/* pixels */
"gVCmZhq<ykl9>>9y999ka$*>>>>>>>498ta8t75NN4&#*9993*",
"jjhmGGaa9aka2&*992t22@%>2>>>>2ulll725t4cHc4@&39ty2",
"CpjjNSmpayk9992232732o*,>>>>>9ccc99>,<<5zBk&$23393",
"mgjvmGjgat99499973,2,+-:>:::>2yulay7>w2:9zB2$$3qyt",
"xMchjjpqii>-2>2<33,3*$*::>272>>>9ala297*:2zz$X*ty5",
"mcjgfrw<<8yttu=-$&o**+&&#=:4>:>:7t922tt24>,Bf*$*&t",
"Ngczidgq>2agaci<*ooo$o-2ka9>7>>:229>:29t97>ty3*3yM",
"pgwdjgzzaggxglzNq$ooo$222=:>7>:>>24>%:99tt3*+qtfig",
"77gmjhjjfdrdidjNz>X:@@:-#O#=@==>75<>>>>>5t<,o*7,:5",
"mwpzmjjjwrwfaixjbc4>X@*&:#=>&@4sw<>>>>9952--wgSAlg",
"MfwfSmggrrhfaagvBFt&#X@>:&&%->u7<42,84972&:ibgeu7i",
"<pwdMDScr0fiwtfgSDb:#XX&2>:-<wuwyew7422>&&wzi*;<<6",
",euxxxbbhigxgfxyacr4&#7ucsu565tgiagwi51%:522wiggfq",
"$07iitalwq6gxxzcggu5*:9kcxhe05wazxpga5;5552<$,>wgs",
"$;<>249a2&,5gxxxcp6597448ie65,w86waCnghvgu5tag0<5g",
"uia65ibSmw-;wlxcjji6t476uiiwi00iieimjiisMScgygg2-<",
"VCDnnDDZZm0;qzjjhhe0t8twwuggMvmSSSNNSghnVvt45agw6<",
"AxnDFFFDGZm5wzjchhe1qtqwwtlghhzNDGGNNcMnse848i066e",
"x569sSFDGZm;6gcNhjh137qwtygawwrdCGSgaaawew5>,-%yhv",
"5>>69ucvGGN55gNSVCC=%-6fxwiiiga0wzgp7<<,=-;-++5cFx",
"8>>2466eCGZd46wmZZZ-.+%wp<ywizg6:-;<-oooO$%%+6Mgns",
"b99>469ujCHN-;gCZZZ1. .$$+7iigi<$oo+o  o+=**,wgwph",
"FCc7<5ggagfg54cgrj011rww,o$yyq,%oo   oo*%<qf07wqwx",
"FFFs55SNxSpwaxxgrjg0,0igq33 o $$$$o$$3yf55MMt3*$:p",
"DDDp;;6s9pnss9uwt,27>&@&+$oo$<qq3*qy3q3f*<gMq$+*@X",
"VFDh961ux49ne9u<8kb9&&23,3*$*+*$3fMyq,3$$*y$$$o$-&",
"hZGZn99hbnSbeexb89tt#:73,yy,*qyMzwwig33$$$**,*.o%*",
"mjGDHhhnAbnA56umb943994><qq3<qMy3*qfzfqq*,,,,*+o$o",
"GVGDnd69xcnF85usy9*2424>,<<wyqy3-$qizgw&$<3q<5;%-,",
"GDnh9><4knVVp558779>>>241,3gfggq<:6wcxi-*3-ggzfq-w",
"ZC99ppvvphhs;6u9tka9:>>1<,<lgzgpwqw<wa0,:7qwSzp,0g",
"vCxpd9nFnVVShhcazkk>==-=---tiilMw<55:<5<-<0gzw<-hj",
"svvCZ9dZZZGvGFHFCNN;$+ +-#+=,wwlggi5:x4=%4e8pw>;;1",
"9CZFZhdZZZG9nnvhcjN3;..+=-=<<7a6wit0ii4@-->><iw550",
"9VFFZhhZZZV99xdhaimd0:0gxc152<iai77w25:##@=<sAsgMi",
"mvGFZVhhmZF99hhhgg0<dgjjxca58u535jz787t%#6eesnDDFS",
"ZdmmZZVvVnAp9phczw15Scgzxxa9tkitiiae44>>449FFHDVSc",
"Dv19pjhvhcV9p99hgg0aBvxjxxt:&tg2%,652<>769nhVFBvgt",
"ZGjd9rvmcps1<91hxci7DNjggg-&&2a2--<=2>:497nVnSns8-",
"FHV999hvvVs6;<<9zzpqFSiri62527ak:%+=c>2786VSFFhp99",
"GDZh999sghncsc95ihwwxcyg8>4w>--%%:qq832q72ixVh854y",
"DFVh944unnVAFAks885wigg0;>sw7##,igg72*$$==1e8>==#<",
"CFCe<<49AFVVka99<155igi<><g--%qvSMy<,3q<4<&+#;--%<",
"eZDnue47nFnVFu845w540w6<1-%<gcalvu<**,<$#OO@+=-11:",
"ehVCb844vHCCnh94<1<100<,<wmSHFNNg7<7,%$o@-=41=--5:",
"6VGZB944pCpcc974>>44%%<pCHSNCCMgiai<,,+$%;wgVnp<i>",
"6rZGFp4>9nh99974<=:,3wchNGNcxzi,-ww,,q33<3;-8ssuww",
"reVHFn9>6nxsc944,%0fcvNMjGCjgg6:;7g5%q7<,,-++-<<4g",
"vdjGGvd19cnpcAu458hgVNvcglt5i06<-wzi<0<<:=<-+$---w",
"jhevDCh66uFVxcl8esw6ggcg7ww@%<t2%<pw,5<%=$-6-%;,ig"
};
