/* XPM */
static char *result[] = {
/* columns rows colors chars-per-pixel */
"50 50 37 1 ",
"  c #261832",
". c #2B1B36",
"X c #2E1C3A",
"o c #311E3D",
"O c #32203F",
"+ c #341F41",
"@ c #381F45",
"# c #362144",
"$ c #392146",
"% c #372148",
"& c #3C244C",
"* c #3F2650",
"= c #3F2852",
"- c #40264F",
"; c #40284E",
": c #412752",
"> c #442955",
", c #482B57",
"< c #442758",
"1 c #462B59",
"2 c #4A2D5D",
"3 c #4C305E",
"4 c #4D2F61",
"5 c #4E3162",
"6 c #523465",
"7 c #543866",
"8 c #553669",
"9 c #58376C",
"0 c #56396A",
"q c #5A3B6D",
"w c #5D3D71",
"e c #603F73",
"r c #5E4172",
"t c #624475",
"y c #654679",
"u c #66497A",
"i c #694C7D",
/* pixels */
"<<:=1112,&&,&:<:oo #%--&+&:%$%:&121>4===<>>&<<11<>",
"><%:2148,:451162>%O&:1<&&:12,-:-1>11422<*><*<>==,&",
"&$$&*145249964645,&%>48864141,5685659855<>&&,1,%&%",
":&OO$&<1127q61121,$#&:24661429q0852550566>%&>>1&%%",
">&%@&$>2>606,>222342:-12&,58428yuu15wwq82>>>131%&:",
":::@%-24:3q8,:232=:12,-1:261169qrr5568w5>><125>11&",
"&&::&111&3353622,::5w266142:5687994685q01>112255>*",
"**&<:112:25*&>::21>=45001>&<22865966966512566695>#",
",,*&:>>15551,>&1663>5t041$,:16221360q0663258ww94>7",
">&&:>31,6655,2140q8585q5>>27>>15531596523636832>>7",
">&&>:1:,35:>1->236>1*162:q2>5862>>1165656855526113",
"<,&>1>>:>>%&:2:&;225116>29>&5326558825525q686,5>,2",
":5122>21&&O&-:&*&:2,>:2673qq36rqrw852406qr6865&o&8",
"&<:&652%&:O%-&,&&;>>:15w0665688qwr5516608t658:%o5r",
"##&&63:%>&%#%-&&:&*%&2598630y00q6qww6wqqww4>22>=3r",
">X=<06225=#%%::$;%%+%&5,1267r00qwq0rwrr0662264:>=1",
">&:<592&2:%%:&:2,:11:1,2,5>506655rrrr6,2<565522,,2",
":::-85822:--1>1626621&4696*>:%25ww6wtq8q6wrr6,21*2",
":2*,58665--,12655562265,51+>2166566666776005524222",
":2>:=>52:-1116r826263809rr1211>,,2545503246562w564",
"22215456:218q82546898865424*24&,216622556525w50262",
":>:26<1229,2q6648w76qyq2611892*14121211356814892<,",
":&:->>5&7ir2r653,,568q03*=88w6441154662$1qw648t4;&",
">&%:1*120q9266532487q87811q86454412161&&*182<15270",
"*#$*121478q72,:35q76805514808852641<,*:-&213122=56",
"&#$&,1>>8878521136860095689r50512161+::@&%>1>*:*20",
"-#&:222>7wui,>9588r58w7568ww06566655421@#%*<*<2<23",
";::=11128erq>>5555857596298530256>264252#%&=%>3120",
"<:&&1&,6299786wq85952359785560212>12=31:&::&,1>&>3",
"**22*<58q806560q93550652156174=%&,1:,>>*%*&><02,23",
">>>2=259qw3wr7:33>565q445w5555&%&&$##&%%o%&&-%>310",
"1<4<4400tq7rrq3619488w85w089r7>%%%o#&,:&&+&&&O#:&r",
"%-2&558q007qiu036w685355658tq1:*#;&-<,<&+%&%%#,;O%",
"&&$+558rq0r0573rrr660542q3>>>%#X.$,,&>,&=<>$###>+<",
"&&+%1>576665rrq5ut966041153,&&%+#$%>:12&,,:,,&&3&;",
"$+%,23326500876323rq,:41*,>,*:#&&<<:2212:%%&>&$&&&",
"$+>2669qrtiur762>>>>1>>1>112611=:,<,1,,1--$&*;>:3;",
"Xo:14465rti933423>>1><>&1,125625611,:%$&%%#$&:-;*:",
".o%,2>=33>,2456w05<<*12215758212222::-&%$#+%%:-$$:",
"@o&29911>2>>4469655563352wr64<:>25:&%%&$Oo%oXO%#&:",
":#*1r011>6015545512425114,21>-%%1:&<$$$$Oooo+#oo--",
":$=2862156w9682144==q0>082&&&###$:o-o#oooXoooo@o-$",
":&>155569ww555265=2=<1*12&&#<&X.%:o.oo@o.Xo@O#%:#:",
"$#&109298qw613rr95<>==&&%$<:&&% +%-:%%%+@###oX#$@,",
"###&404<1qi36858954<21=12O#&$$#.o%--&,&@#$$oo#oo##",
":$O&69523qt88446q44421&&:&$oO.o.o++$-&1&$$#o.o.o.&",
">-$-4ww66ru8614621:122&&,3#Xoooo.oo$&:1,;&##oX.o##",
"2&&-890321424=<254141,2=$;>ooXooo@++#$-:&-#oo.O@#$",
"2--:89522:><:+&&:-:-:,1&%%$%+.oo  XXoo&&$&&$O# ...",
"5<:-2541>&46>:<-:-:&&:>,&*$#&#ooo+ooo#$#&--&&+o@$@"
};
