/* XPM */
static char *result[] = {
/* columns rows colors chars-per-pixel */
"50 50 92 1 ",
"  c #AB837F",
". c #B1857A",
"X c #B6897C",
"o c #AD8783",
"O c #AF8985",
"+ c #A2868A",
"@ c #AD8D8D",
"# c #B58D87",
"$ c #BB8E82",
"% c #B28E89",
"& c #BD9082",
"* c #B5918D",
"= c #BA948C",
"- c #B39494",
"; c #B99793",
": c #BC9B95",
"> c #B69A9B",
", c #BC9D9B",
"< c #BCA09F",
"1 c #B99EA0",
"2 c #B7A2A2",
"3 c #BDA3A2",
"4 c #BDA8A9",
"5 c #C0978E",
"6 c #C2998E",
"7 c #C89C8C",
"8 c #C49D93",
"9 c #C19F9A",
"0 c #C6A095",
"q c #CBA295",
"w c #C4A39C",
"e c #CAA59B",
"r c #CDA99E",
"t c #D0A698",
"y c #D3AD9C",
"u c #D5B09E",
"i c #C4A5A2",
"p c #CAA7A1",
"a c #C5A8A5",
"s c #CCABA4",
"d c #C5ACAA",
"f c #CAAEAA",
"g c #D1ADA2",
"h c #D2AEA8",
"j c #CEB1AB",
"k c #D4B1A5",
"l c #D9B4A5",
"z c #DDB8A7",
"x c #D4B4AC",
"c c #D9B7AB",
"v c #D6B9AF",
"b c #DBBAAC",
"n c #C7B2B2",
"m c #CCB5B2",
"M c #CFB9B5",
"N c #D2B6B2",
"B c #D5BAB4",
"V c #DBBDB3",
"C c #D5BDB9",
"Z c #D9BEB9",
"A c #E0BFB2",
"S c #DDC1B5",
"D c #D6C2BC",
"F c #DCC3BC",
"G c #E3C4B5",
"H c #E7C8B7",
"J c #E2C6BB",
"K c #E4C9BE",
"L c #E9CBBC",
"P c #DDC6C1",
"I c #DEC9C3",
"U c #E1C7C0",
"Y c #E3CCC4",
"T c #E9CEC3",
"R c #E4CEC9",
"E c #E9CFC8",
"W c #E6D0C7",
"Q c #EBD1C5",
"! c #E6D1CA",
"~ c #EBD5CB",
"^ c #EDD9CE",
"/ c #F0D5C6",
"( c #F2D8C7",
") c #F0D7CA",
"_ c #F1DACE",
"` c #EBD7D0",
"' c #EEDAD1",
"] c #F1DDD2",
"[ c #F5E1D5",
"{ c #F8E4D6",
"} c #F6E3D8",
"| c #F9E6D9",
/* pixels */
"ZYGpfBZZBvhh8,9esxxEbhhhlxkksr853ylSLLSSSSSSkrt=XX",
"]]^~']}}]_'ETJTE]]]]~]]][]{[_(TT]K([^^^[^(^Q^^[/JL",
"`^~~~`~~~`)~|TE_]]])T^]{_]][[|QK^KDKWWKK^!QWQW^^Q[",
"````R]`]`''~]T)`]]]]~~]]_[[]^[/L^^^KKWWW^^^W^[[(W[",
"E]']`'']]]~E]U'']_])~~^JpJ!~^}Q~]^^[^!](][]!DW[_L|",
"UY~`^~`]}]')]V)]])')~`!^YQYQK^QG[[]([K^[]^^_WSFKS{",
"9,9ppfwppfpvEcxvVhg88eghvBVVF^_LHSSSSr:==:0qutySyr",
"chhhVAUAAJE'`_^]]')EQHT){[||{|}}{[{[[(K((((_][']][",
"Y)^cYUY!E~^^^]]]Q^~](S^WT!FWKW!T'[[[][H^^^[[{{[|[{",
"EY)v!ET~Q!^]T!^]^WW^(SW~Y^!W~_[QKK!!^[H](^^[[^]][[",
"~JEc]YTE!E!~KE!]][Q]/SWWE^~^~^'^]W^^^^S^^^][]^]^]^",
"~YTx]EY!~]`]^E!~^]]]/bWKQY~'WIW!^~[^](lK]][]]~^^~^",
"ZAJeNZZZZFxsBspNBDFW_SSlvvjSFFx8:uSSSQS:rruj4u3yw6",
"pxUAge888qrrhAVvSH~{[[]_(LLSGLQLSllK((/KSSSSSKH/(L",
"'E~')TT~~~~E~)TG~'[{']]}]^^^^^]QSL^^[]][]^(^]}}]{G",
"]E~]]]Y~)`)]_{LJQQQ~]''~]]']{^_(SL^(^]][{{[^[[[[[S",
"])T)^[_!Y^][]{AJTT~WQ~^U]~~^'W](VK^T!'[[[}{W'}[[^u",
"E]U~E]]~~E^`]_lhJKQW!T~J'IFF~W~(lS^KV!^^[[[]KK]'~u",
"F~EUYY~EYVNVNTHexcNSZvxVDWFSWF!_kxSIV9vxjrxDDSSSKu",
"Nw89eghNGTKH~(EHAVy$X$7tlL^~(_{]QHGHbylcSHGFK/~[(K",
"E]TZEREEYT~`_E')E^_LzA~^W!(FWQ~]'[^][GF]^WI]']'!W!",
"U`Tv]`ZE^')~_]]|]__{zL~^W~'^^^~]~^_^|LK'`^!^!D!'^!",
"UYTc]]ETT]])~])]])]]lE__[]'~~['~]]{_[GF'^'~'^]!!^!",
"]~JZ]`ETT]]`U]]`]]])lJ]~^[]']}]]`_^{[GeY'!^'][^]]]",
"``Ah]]]EE`]})]]EYYJQzpGBSFFFSSSSjvVK~QbkKFFvvSjjjs",
"pxAhpppphhhge8pcVG^_QHJGLLLWL(GSzbGQ[__^]_[[[[_(LL",
"~Y`EE'~]]~`]}TJ~YYYYTEY^W][^^Y^QS~`[_][]^^~W('[[|Q",
"YUU~R``]]''~]TA]Y~`^YE^QKF~][H^LJ^W^^^~~^^]]^^~]}S",
"!R~RERE`~~`~_Hc^~Q`^!~~TYJU^[WLGF~T!!^'QQ^^(WWQ^]S",
"UP~!`RERRE^~]Gx!!E^^QQ~~YTY~]_^Lv'^^]{[^^WQ]^W[}{S",
"!ZUE`E```^~~^GhY`]Y^~EEYQ~YR]!FHw~!WIIIYWIDFKSdSKS",
"p3ifhNfNcBSYQQHcBVxgcVvclcVNVK(QcyrqqquSQQ^]_/L](L",
"`ABUR]^`]^EY`]}]!Y}^S~^`[[[[']}}[}}}_JWW!~'WW]}]^R",
"Y`vZFCPPZPYBBNjCNv!QsYWW!^[]`R']'`'][lF^^IIIIF!!^W",
"Z]cNZ~ZZFYUPRJYYUFFWsJR!~]`''`Y!`RI`]k!'']!!IW'!IW",
"BEhBPERUUURR~!``~^KHeKUI!!!~~!`!''R'[k!!''W]!KWFFm",
"BRhhZY]```E`R~`]^`!SrQIFFUY!!^IB!'!~^kFWKW!!IFSDfe",
"mZviaa1faaia<999wjFS=wwspvjNBIJVrDTQQKbbSSSSWQ(^QH",
"]]`)``EEE~~)^^JE^['^!^^W`^~~W!]~xFFYYWWIKK!!~'KFLF",
"PCYREE~RRRII~]VPIF^^Y!^FI~D!YFV~jFFKFFIFFDFFIWFDDY",
"EFYPR`~~RRRRI!sF!FFIWFW!IF~!~YFKx`!~~~YY~WFIWYWKFY",
"PPPZZRR```RYPYs,mCFYFYI`YIPU`~UZw]`!!'~!WIFKYWYUBS",
"ZPPZBBZRE!!PIUvxjdjWFY!!`!II!PZV F'`I'~W~FSDFFFjjx",
"-11-@---1admCQZjBBww%o%;-;:;<fhV6%==*;%**<rfwaxIWF",
"PPUPxfYR~R`]]''''~!ITJvUQ!TD``'`Q!BFY!LxD!~~^I``][",
"MCCIN1UIDCn4nMmPP!RCF~pfM~YDFY~RPY``YY^sxPI`!F!`!Y",
"MDCR9iCDCDPPCPMMCI!!CYfIP~!FPPIRCPPYFZL9NDDF!IIIFD",
"DMCP91MPPIIIP!IPjmIIFF:PUY!!IRYUPZCRRND*NBmMdjNmMB",
"PCCDn@RPPPRRCMPRICIICC;mR!RRRRPPUI1>NNNo-PPCBf33N>",
"nnnDn@+144nnM114n1211d;@aad131113aCf,<xs#-%>---@;,"
};
