/* XPM */
static char *cf1f45e31c1446cedeec8552e2ac65e5LQWWqckO4ebKeWml[] = {
/* columns rows colors chars-per-pixel */
"50 70 168 2 ",
"   c None",
".  c #020103",
"X  c #090605",
"o  c #06030A",
"O  c #09040C",
"+  c #0C090B",
"@  c #140C02",
"#  c #1A0F00",
"$  c #110C0E",
"%  c #1E1100",
"&  c #070511",
"*  c #0C0513",
"=  c #0F0C10",
"-  c #0A071A",
";  c #0B081C",
":  c #130E11",
">  c #11071A",
",  c #141113",
"<  c #191216",
"1  c #1D151A",
"2  c #1D1D1D",
"3  c #1D1812",
"4  c #241400",
"5  c #2B1900",
"6  c #201609",
"7  c #21171D",
"8  c #21191E",
"9  c #3C2309",
"0  c #26221F",
"q  c #0E0A23",
"w  c #100C27",
"e  c #120D2C",
"r  c #1A1125",
"t  c #140E31",
"y  c #171137",
"u  c #19123C",
"i  c #261B22",
"p  c #2A1E26",
"a  c #291E28",
"s  c #221738",
"d  c #1F2021",
"f  c #232323",
"g  c #2B2027",
"h  c #2E212A",
"j  c #2E2F2E",
"k  c #32242E",
"l  c #352730",
"z  c #372832",
"x  c #3A2A35",
"c  c #3E2D39",
"v  c #343434",
"b  c gray22",
"n  c #472800",
"m  c #482800",
"M  c #512E00",
"N  c #50300E",
"B  c #593300",
"V  c #432910",
"C  c #6C3E00",
"Z  c #693D13",
"A  c #533628",
"S  c #402F3B",
"D  c #4B3434",
"F  c #42303C",
"G  c #5B3733",
"H  c #744200",
"J  c #7B4600",
"K  c #70420B",
"L  c #7A4615",
"P  c #64412E",
"I  c #69432C",
"U  c #724726",
"Y  c #72442C",
"T  c #1C1443",
"R  c #1F164A",
"E  c #20174D",
"W  c #21184E",
"Q  c #241A54",
"!  c #261B5A",
"~  c #281C5E",
"^  c #3A264C",
"/  c #2E205F",
"(  c #302151",
")  c #3D295F",
"_  c #271C60",
"`  c #2A1E63",
"'  c #2C1F69",
"]  c #2E216D",
"[  c #30226F",
"{  c #3A286F",
"}  c #2F2270",
"|  c #312374",
" . c #392871",
".. c #34257C",
"X. c #38287E",
"o. c #5E3B52",
"O. c #613C50",
"+. c #4C3377",
"@. c #47307D",
"#. c #4B3278",
"$. c #5B3B74",
"%. c #5A3A7A",
"&. c #563875",
"*. c #603D6D",
"=. c #484848",
"-. c #464749",
";. c #555656",
":. c #5B5B5B",
">. c #7E4D59",
",. c #6A4365",
"<. c #714661",
"1. c #744860",
"2. c gray38",
"3. c #6A6A6A",
"4. c #747475",
"5. c #7B7B7B",
"6. c #8A4E00",
"7. c #945401",
"8. c #9A5700",
"9. c #9C5900",
"0. c #925819",
"q. c #A65E00",
"w. c #AD6200",
"e. c #B36600",
"r. c #BB6A00",
"t. c #B5690B",
"y. c #B1671D",
"u. c #B4681B",
"i. c #95593D",
"p. c #975937",
"a. c #AD6422",
"s. c #A86228",
"d. c #A6612B",
"f. c #C77202",
"g. c #CC7400",
"h. c #8D5445",
"j. c #87524D",
"k. c #372781",
"l. c #372883",
"z. c #392885",
"x. c #3B2A8C",
"c. c #3F2D96",
"v. c #3F2D95",
"b. c #3F2D95",
"n. c #3E2D99",
"m. c #4B338B",
"M. c #533781",
"N. c #402D96",
"B. c #402E97",
"V. c #402E96",
"C. c #402E98",
"Z. c #7F7F81",
"A. c #848484",
"S. c #8C8C8D",
"D. c #9B9B9B",
"F. c gray59",
"G. c #A4A4A4",
"H. c #A9A9A9",
"J. c #B2B2B2",
"K. c gray73",
"L. c #CBCBCB",
"P. c #C6C6C6",
"I. c #D8D8D8",
"U. c #D2D2D2",
"Y. c #E4E4E4",
"T. c #EDEDED",
"R. c #F4F4F4",
"E. c #FDFDFD",
/* pixels */
"                                                                                                    ",
"                                                                                                    ",
"                                                    O o . . . O *                                   ",
"                                              O . . O - e e w * . O                                 ",
"                                        * o . O t ! | x.b.b.x...T . *                               ",
"                                    * o . - E ..b.N.N.N.x.~ t e ..e .                               ",
"                                  o . - Q z.b.N.b.b.N.X.e . X . t e .                               ",
"                              * . O T k.N.b.b.b.b.N...q X p z p $ . . *                             ",
"                            o . e } b.N.b.b.b.b.b.z.w X k F F F c p + . *                           ",
"                        * . o R x.N.b.b.b.b.b.b.b.T . g F F F F F F z : . *                         ",
"                      * . - ` b.b.b.b.b.b.b.b.N.] o 1 S F F F F F F F x : .                         ",
"                    O . q ..N.b.b.b.b.b.b.b.b.x.e X x F F F F F F F F F l X o                       ",
"                  O . e k.N.b.b.b.b.b.b.b.b.N.' . i F F F F F F F F F F F p X o                     ",
"                O . t z.N.b.b.b.b.b.b.b.b.b.b.t X x F F c z z x S F F F F D K # o                   ",
"              * . e z.N.b.b.b.b.b.b.b.b.b.N...O 1 F x 8 X X X X $ p c F S I f.8.4 . *               ",
"            * . q k.N.b.b.b.b.b.b.b.b.b.b.N.Q . k l + , :.F.J.D.2.< : x F 0.g.g.q.5 . *             ",
"            . * | N.b.b.b.b.b.b.b.b.b.b.b.b.t + k X j K.R.L.F.F.K.J.v : D t.g.g.g.q.5 . *           ",
"          O . ! N.b.b.b.b.b.b.b.b.b.b.b.b.z.- < < f L.T.3., . . + :.H.d V f.g.g.g.g.q.5 . *         ",
"          . t x.b.b.b.b.b.b.b.b.b.b.b.b.N.] . 1 X A.E.3.. . . . . . 2.4.4 r.g.g.g.g.g.q.4 .         ",
"        O o | N.b.b.b.b.b.b.b.b.b.b.b.b.N.! . < , L.U.< . . . . . . < S.3 9.g.g.g.g.g.g.7.@ o       ",
"        . t b.b.b.b.b.b.b.b.b.b.b.b.b.b.b.T X 1 f Y.H.. . . . . . . . 5.f 6.g.g.g.g.g.g.g.J X O     ",
"      * . ! N.b.b.b.b.b.b.b.b.b.b.b.b.b.b.t + 7 2 Y.H.. . . . . . . X 5.0 7.g.g.g.g.g.g.g.f.M . *   ",
"      * . ] N.b.b.b.b.b.b.b.b.b.b.b.b.b.b.e $ h X J.I.2 . . . . . . 2 Z.6 w.g.g.g.g.g.g.g.g.e.4 o   ",
"      * . ` N.b.b.b.b.b.b.b.b.b.b.b.b.b.x.q : c + ;.R.Z.. . . . . X 4.-.n f.g.g.g.g.g.g.g.g.g.J . * ",
"        . T b.b.b.b.b.b.b.b.b.b.b.b.b.b.x.; , F p X A.T.A.f X X f 5.3.@ 8.g.g.g.g.g.g.g.g.g.g.r.5 . ",
"        o - k.N.b.b.b.b.b.b.b.b.b.b.b.b.x.q , F S 7 X 2.P.L.J.H.D.;.o N g.g.g.g.g.g.g.g.g.g.g.g.C . ",
"        * . T b.b.b.b.b.b.b.b.b.b.b.b.b.b.e : S F S i X , b =.b , X a U g.g.g.g.g.g.g.g.g.g.g.g.9.X ",
"          o o ] N.b.b.b.b.b.b.b.b.b.b.b.b.t + c F F F x p 1 < 1 h c S U g.g.g.g.g.g.g.g.g.g.g.g.w.@ ",
"            . ; X.N.b.b.b.b.b.b.b.b.b.b.b.T X x F F F F F F F F F F S I g.g.g.g.g.g.g.g.g.g.g.g.H . ",
"            * . e z.N.b.b.b.b.b.b.b.b.b.N.! . k F F F F F F F F F F S I f.g.g.g.g.g.g.g.g.g.g.8.@ . ",
"              O . t z.N.b.b.b.b.b.b.b.b.N.| o i F F F F F F F F F F S I f.g.g.g.g.g.g.g.g.g.6.% . * ",
"                O . e X.N.b.b.b.b.b.b.b.b.x.q : S F F F F F F F F F S P f.g.g.g.g.g.g.g.w.B X o     ",
"                  * . - ` b.N.b.b.b.b.b.b.N.W . k F F F F F F F F F S P f.g.g.g.g.g.w.C % . o       ",
"                    * . o T X.b.N.b.b.b.b.N.k.- : c F F F F F F F F S P g.g.g.e.6.M # . o *         ",
"                        O . - R ..b.b.b.b.b.b.! . 1 c F F F F F F S c A 7.H n % . . o *             ",
"                          * o . O u z.b.b.b.b.b.T . $ 1 1 8 7 1 < : + X X . . o *                   ",
"                              o o E z.b.b.b.b.b.b.! w ; - . . . . . o O *                           ",
"                            O . Q b.b.b.b.b.b.b.b.b.x.x.X.q . >                                     ",
"                          * . u x.b.b.b.b.b.b.b.b.b.b.b.C.! . *                                     ",
"                        * . e x.N.b.b.b.b.b.N.] u x.b.b.b.z.- o                                     ",
"                      * . q k.b.b.b.b.b.b.b.b.k.- u b.b.b.b.T . *                                   ",
"                    * . q X.N.Q ! b.b.b.b.b.b.N._ o ~ N.b.N.| O O                                   ",
"                  O . e X.N.x.; T N.b.b.b.b.b.b.b.t - z.b.b.b.e .                                   ",
"                o . u z.N.N.X.O ! n.b.N.m.M.%.$.%.) o Q N.b.N.~ . *                                 ",
"              . + Z *.b.b.N.| o _ m.<.i.a.y.y.y.a.s.9 ; x.b.b.l.- o                                 ",
"            o . / j.u.<.V.n.| o G a.a.h.<.$.+.#.+.&.^ o ] N.b.b.y .                                 ",
"        o . . . t X.1.y.i.%.[ X L >.@.' T e ; - ; q q . Q N.b.n.~ . *                               ",
"      o X 1 h p X - _ &.i.a.Y X ( _ q . X $ < 1 < : . ; | n.b.m.o.@ o                               ",
"      . 8 F F F l , . t [ %.O.X & . $ p x S F F F c + s %.,.h.s.p.7 .                               ",
"      . , z c c S c p + o t _ e . < c F F F F F F S = 9 a.d.h.,.{ q .                               ",
"      O . X + + p F F c i $ o & . , x 8 l F S S F S : r #. .Q t O . O                               ",
"        * O . . k F F F F c k i : . X . p S < k F c + o q o . . O *                                 ",
"            O X z F F z z F F F c i < . < i . 1 F k X X , : . O                                     ",
"            * . < l h + X k F F F F S 8 . . . X i + X k h X .                                       ",
"              O . . . . . X 8 c F F F S k k h + . X i 8 X .                                         ",
"                * O *     o . 1 S F F F F F F p 7 8 + X . o                                         ",
"                            o + c F F F F F x + X X < i . O                                         ",
"                            O . h F F F F c < X i z c , .                                           ",
"                              . + k S S z < . i F x 1 . *                                           ",
"                              * . X : : X . . + , X . O                                             ",
"                                * o . . o * * o . . *                                               ",
"                                  * . *         * .                                                 ",
"                                  * . O           . *                                               ",
"                                    . o           . O                                               ",
"                                    o .           . O                                               ",
"                                    O .         > . o *   * * *                                     ",
"                                    * . O O . . . . . . . . . . . O                                 ",
"                                * o . . . . . . . . . . . . . . . *                                 ",
"                                O o O O O O o o . . O * * O o o o *                                 ",
"                                                                                                    "
};
