/* XPM */
static char *bab3a71527c34d47ddd07e1652ad784a7KN2Oc9ucLvBddOV[] = {
/* columns rows colors chars-per-pixel */
"50 50 107 2 ",
"   c None",
".  c #060608",
"X  c #0A070A",
"o  c #0C0A0C",
"O  c #14090C",
"+  c #1B0A0E",
"@  c #140D11",
"#  c #1B0C13",
"$  c #141013",
"%  c #181115",
"&  c #241308",
"*  c #2B1508",
"=  c #331808",
"-  c #3B1C08",
";  c #220D15",
":  c #2C0D15",
">  c #350D18",
",  c #390E19",
"<  c #221117",
"1  c #25121A",
"2  c #2A131B",
"3  c #33111B",
"4  c #3A121F",
"5  c #341521",
"6  c #3B1725",
"7  c #371922",
"8  c #3A1B24",
"9  c #431D0B",
"0  c #420F1C",
"q  c #44111E",
"w  c #4A111F",
"e  c #531D15",
"r  c #50161B",
"t  c #4A2209",
"y  c #592809",
"u  c #562110",
"i  c #602B09",
"p  c #682E09",
"a  c #73310B",
"s  c #441624",
"d  c #4C1423",
"f  c #441924",
"g  c #4D1728",
"h  c #441F29",
"j  c #4C1F2B",
"k  c #541424",
"l  c #5C1425",
"z  c #571827",
"x  c #521728",
"c  c #5E172A",
"v  c #571C2B",
"b  c #5F192A",
"n  c #611427",
"m  c #64172B",
"M  c #6C162B",
"N  c #73172D",
"B  c #73192F",
"V  c #731D32",
"C  c #57222F",
"Z  c #4F2430",
"A  c #542430",
"S  c #5F2332",
"D  c #592432",
"F  c #5A2734",
"G  c #5B2735",
"H  c #5C2836",
"J  c #6A2637",
"K  c #6B2738",
"L  c #632B39",
"P  c #642B3A",
"I  c #672C3B",
"U  c #672C3C",
"Y  c #672D3C",
"T  c #6C2E3E",
"R  c #732034",
"E  c #732035",
"W  c #732135",
"Q  c #712235",
"!  c #732236",
"~  c #732437",
"^  c #732438",
"/  c #732538",
"(  c #732639",
")  c #73283B",
"_  c #73293C",
"`  c #732A3C",
"'  c #732B3D",
"]  c #732D3F",
"[  c #712E3F",
"{  c #732E3F",
"}  c #732E40",
"|  c #732F40",
" . c #732F41",
".. c #723141",
"X. c #733042",
"o. c #733142",
"O. c #803809",
"+. c #843A09",
"@. c #8A3C09",
"#. c #9A4309",
"$. c #98400B",
"%. c #AA4909",
"&. c #B14C09",
"*. c #B74E09",
"=. c #CA560A",
"-. c #CE580A",
";. c #F5680A",
/* pixels */
"                                                                                                    ",
"                                                                                                    ",
"                                                                                                    ",
"                                                                                                    ",
"                                              $                                                     ",
"                                              $ $                                                   ",
"                  $                               $ $ $ $                                           ",
"                $ $                               $ $ $ $                                           ",
"                    $ $ o .                               $ $ $ $                                   ",
"                    $ $ o . .                             $ $ $ $                                   ",
"                              . . .                         $ $ $ $ $                               ",
"                              . . . .                         % % % %                               ",
"                                . . . .         o.o.o.o.o.o.Y Z h f s z                             ",
"        $ $                       . . . .     o.o.o.o.o.o.o.o.o.{ ! N N N                           ",
"          $                     . . . . . . 8 I o.o.o.o.o.o. .` ( ~ ! V N N                         ",
"            $ $ $ $           . . . . . . . 2 H o.o.o.o.o.o.{ ! V (  .! N N N N                     ",
"              $ $ $           . . . . . . . # 7 A Y o.o. .` ~ V B ! ~ V N N N N                     ",
"                    $ $ o . .         . . . X o 2 G o.o.{ ! B B N B B B N N N N                     ",
"                    o $ o .           2 < o . . ; v J A j d w w w w w w w l N N                     ",
"                  .                   P h @ . . ; z c 3 @ O O O O O O O O q N N N                   ",
"                  .                   o.G 8 2 : > q r u t & . . . . o = y e d l N N                 ",
"                                      o.T L S b d : 9 $.%.t . . . . O a =.a + 0 M N                 ",
"                                      o. .` ( ! z ; - &.-.y . . . . O @.;.O.o , M N                 ",
"                                      o.` ! ! ) C < - &.-.y . . . . O @.;.O.o , M N                 ",
"                                      o.( V V ( C ; * +.$.9 . . . . O p *.i X , M N                 ",
"                                        ! B B V z ; O = - + . . . . o * 9 & . , M N                 ",
"                                          N N N l > + X . . . . . . . . . O # 0 M                   ",
"                                            N N M l 0 # . . . . . . . . X : k l                     ",
"                                              N B V b 3 # # + + + X . O + q N N                     ",
"                                                ! ( K D j g d d q ; X : d n N N                     ",
"                                                  { { { ` V N N M , + w N N N N                     ",
"                                                ` ~ ! ! V V N N M l d n N N N N                     ",
"                                               .) V N N N M M M M M M M M N N N                     ",
"                                            ` ( V B N N M c x x g q > s x m N N                     ",
"                                           .) V N N N N m g 6 6 5 # X ; 6 x M N                     ",
"                                        ` ( V B N N M c x s 7 2 # O . O # 4 x c N                   ",
"                                      o.) V N N N N m g 6 6 7 # . . . . . ; 6 x N N                 ",
"                                      ~ ! B N N M c x s 6 6 7 # . . . . . @ 1 g M N                 ",
"                                      N N N N N m g 6 6 6 6 7 # . . . . . o $ q M N                 ",
"                                        N N M c x s 6 6 7 2 # O . . . o o # 1 6 M                   ",
"                                          N m g 6 6 6 6 5 # X . . . . o $ 1 6 6                     ",
"                                            m s 5 2 1 1 ; @ . . . o o @ $ 1 6                       ",
"                                                  o o o o         @ @ $ $ %                         ",
"                                                    . . .           $ $ $                           ",
"                                                                                                    ",
"                                                                                                    ",
"                                                                                                    ",
"                                                                                                    ",
"                                                                                                    ",
"                                                                                                    "
};
