/* XPM */
static char *result[] = {
/* columns rows colors chars-per-pixel */
"50 50 27 1 ",
"  c #353537",
". c #373739",
"X c #383739",
"o c #3A3A3E",
"O c #3D3E43",
"+ c #3F3F48",
"@ c #403F45",
"# c #3F4045",
"$ c #3F4048",
"% c #414246",
"& c #43454B",
"* c #46494E",
"= c #484A4F",
"- c #454750",
"; c #464951",
": c #494C54",
"> c #4B4E59",
", c #4D5156",
"< c #4D515A",
"1 c #51545D",
"2 c #4E5361",
"3 c #525661",
"4 c #555963",
"5 c #585C65",
"6 c #565B69",
"7 c #585D6E",
"8 c #5B606A",
/* pixels */
"&O$+%&&+$*#*;<,#*$=*$&&;**&;&&;:>##;>*:;>:$:,:=&#o",
"&+&&%*&%&$=:,;::&#=$OO&;;*;::<:<*=;:<>:<2<>>&=:&##",
"-;;*=&&%#&;$*$=*#$:**&&*&-*;**;&$&$*;;><;=-#%=%o&*",
">-;>==*&;,**;;::**:::-*==:-:*=&$*#*;,,><=>;&%*%#=>",
"*;;,>>=:,42441,111,,41&=::,,175:,1141118<&-:<-*,,,",
"#&##O&=>2<;*$$$=,*#&=###$*$::3;O$;,<>;*$;#::;*&$:=",
"*=**-;=%*#$$$Oo#,#&:*## #$#*>>-#$>>;$*=*=&;$#&**,,",
"==:;-OOO##=#..#,=###&*.#:&*>*<<->$**;,,,,-$&$***&=",
",:**=*$####$$,$$$&$#$&%%&&&%%#%&;$:=$#$#%%.X+++O&#",
";<41,==##;$36,$$$$>>>&&O$*%O%O*=,$<;=$##%%o+--&;&#",
"41*<1$##<$$441,=;*&:>#X@%#O#@%&:,=1,=$$#&%O&;&--=#",
"$#$$#o#$<,$311=1:,<<&o@o%#%%%%>>=;=$$==$&%O+&&;$%O",
":&$;$$#=$<1,<$$#&&*&&X@@@@%@%*>>$==$;;:$=**:;>;-&&",
"<>$$$###$$$$$$ooO#%%%@&&&---;;,,$=$,,<$<<>;>2>2;>#",
"2$$#oOo#$#$$$##OO@#%**&-%===><,1$$;$<1>$$::>2:>>>$",
"$######$$$$,###=&&&&&&&-:>:-<::,=;$,$<:$>:$:-<2>-:",
">::><:,<,=4,,,,51111<3>=;<;>1=3-::;--@@@&&@-=>**>3",
"##$:>$##o###%=,=*&&&&;;;>:*--=->:;:-@@@@@&;+%O&;<;",
"$#*:$#$#####=,=O&-=&&--;;;<>>:>;>>>-&--&@&:@#o%#>:",
"#%:>$$=$$##,,$%%-:&%-&;:>33>>131>>->&-=-&&@Oo#*&=:",
"*&===,;$$#$==%%=&;&O&O&&->>&&@@@@@++OOOOo+#O%===,=",
"&&%&$,;,=#$#o=%%&%O;;&&+&&%&&%@&@;;-&++@Oo#&&=*,;:",
"*===,1;$#*$#=%=,=*#=;&&&OOoOOO@&;->>;@-@+O&=::,,,<",
"%===,,==,$**%===**#O$$$-oOO@O&-&;>22:&@&O&&$&,<,<1",
"===,,,$,,$$%=,====*#*&&=*%&&&&*=31>:@@=@@&&&=1;:<*",
"=&====*==,1=%%%%==##$$*&@@&&&@&&@=@--@%%==%%*-%&&:",
"&====%#==,==OO%=##**===*&@%@+&%&@*@&>--@*@@***%&&=",
"=%===*=,,==#O%=%*=**::,=*%%&&&==*@>==@@@&&=%@*--=*",
"=#,*=*,,:,,=$=,$====:=,:@@***;*&@@-=&@@=@&&@*=*===",
",,,,,,1,,,1154465151,<1,:=@O@&&%&@-&:::&*&==&*&&>>",
"$#,*#**=;*=$,=$4$<,=&*&=&%@%@&&O*=*&-,=@@@-&-;::*-",
"O**%OO**;;$;,$<215$=*+&&&&*%@O@%=@@@@>=***&@=-;:&*",
"$#O#$$$***$>;::$;;$&#o$-&OO#&o@*&%**=<=&*@=*@**&*-",
"=#o###*$#$###$$$&#&#OOO$-o*:-&%o@@%o@-&@@@@@@&@@@@",
"1$$**$$##:$;$$$$+&@%#$$>%#<:%@XO@@&o@=1=@@=@=*=-;>",
"::$;:$$;*$$###$*&&;;$:&$%&-OoOo@@&&&-:=&@@**&&&-;;",
";$--##$$$=*#$#$#@%:%-@@&;:=O&@&%%&*&*==&=@-:*&===:",
";*##$$-$;=***o$$&-@@@=&=:,=;-&%%&&&&&-=--@@@&==>>:",
"$$*$*;*#$=**%XO%@@&@&&&&&==;>;&*=*=-=-*@@->:@:-:;=",
";$-*$;**$;$,$O#o@==*==-=;><><:&%*===:===@1>@-:->>:",
"-;2>>;=%*,::*###@-@-&==>>,1:<;&&&;&*::>>1@@@>-:-;;",
"762>>;><<,2421,126331135155141<3<>:223444313444331",
"-+O.OO>&;$$;;O##>@>@-=--;<*%#&&<;-$;:--;>-<:<3>>:>",
"+OOOO@;=#$*;&##&-@@@&&=-;#%##&O>$:-:-++:<>:><:@@;>",
"OOO+%@=%&-*;&o&;-@@@@-:->@&&%=+&$-$$@%*:-*-=:=&&=>",
"+O@-*&&@&;%&&O&&@@@-&&->;*%%%%%=;;:&**;*;&&&&;&*::",
"-@O&&&*&*&%%++@--@@@@@--;:%%&+O+$$;&&&-,*%@&%=-@-=",
"&+@%******&%O@*;>@--::-;@&&:%%&&:<>&*&*-&---*1:*=:",
"%@O+o#%%##o###=<&#&;-&&-&&&@@&O&-;:&**$$*==:,1:-=-",
"OoXOoOo#oO#$$%&=+o;&O@@--&O@&&+&--$#***:**,>:=%=::"
};
