/* XPM */
static char *result[] = {
/* columns rows colors chars-per-pixel */
"50 50 102 2 ",
"   c #090707",
".  c #060505",
"X  c black",
"o  c #070A0A",
"O  c #151F1F",
"+  c #111717",
"@  c #030202",
"#  c #040303",
"$  c #080606",
"%  c #020202",
"&  c #080909",
"*  c #050707",
"=  c #121B19",
"-  c #0C0C0C",
";  c gray3",
":  c #253631",
">  c #273935",
",  c #1D2A29",
"<  c #2C403C",
"1  c #202D2A",
"2  c #131C1C",
"3  c #0E1515",
"4  c #090E0E",
"5  c #37514A",
"6  c #141C1C",
"7  c #18201D",
"8  c #283834",
"9  c #0D0F0F",
"0  c #161C1A",
"q  c #344D47",
"w  c #324943",
"e  c #2F4640",
"r  c #1D2825",
"t  c #20302D",
"y  c #111514",
"u  c #192524",
"i  c #0C1111",
"p  c #111413",
"a  c #253732",
"s  c #283A35",
"d  c #23332E",
"f  c #202F2B",
"g  c #2D423C",
"h  c #243532",
"j  c #334B45",
"k  c #161D1B",
"l  c #131716",
"z  c #1C2A27",
"x  c #1A2321",
"c  c #1B2623",
"v  c #18221F",
"b  c #0E100F",
"n  c #070505",
"m  c #1D2B27",
"M  c #2A3E39",
"N  c #131917",
"B  c #050404",
"V  c #23312D",
"C  c #131816",
"Z  c #0C0B0B",
"A  c #020303",
"S  c #101818",
"D  c #0F1515",
"F  c #1A2624",
"G  c #121A1A",
"H  c #010101",
"J  c #1F2D2A",
"K  c #090C0C",
"L  c #192221",
"P  c #0C1010",
"I  c #2D413B",
"U  c #0C0E0D",
"Y  c #0E0F0E",
"T  c #1D2A26",
"R  c #0D1110",
"E  c #0B100E",
"W  c #21312E",
"Q  c #060808",
"!  c #22322F",
"~  c #23322E",
"^  c #253632",
"/  c #0E1212",
"(  c #121816",
")  c #0E1513",
"_  c #151F1D",
"`  c #101616",
"'  c #1C2A26",
"]  c #202F2D",
"[  c #141D1C",
"{  c #060706",
"}  c #1E2A28",
"|  c #101615",
" . c gray4",
".. c #23302C",
"X. c #1E2B28",
"o. c #172322",
"O. c #192423",
"+. c #141B1B",
"@. c #1B2523",
"#. c #101414",
"$. c #1B2826",
"%. c #162120",
/* pixels */
"  . X X o O O O O O O O O O O +   @ X X #                         $ % X X X X                       ",
"  . X X o O O O O O O O O O O +   & * X X . . . . . . . . . . . . # X X = = =     - ; . . . . . . . ",
"  . X : > , O O O O O O O O < 1   + 2 3 * X X X X X X X X X X X X X 4 : 5 5 5   - 6 o X X X X X X X ",
"  7 5 5 5 5 5 5 5 5 5 5 5 5 5 8   + O O O O O O O O O O O O O O O O O 5 5 5 5   9 O O 3 X X X X X 3 ",
"  0 q 5 5 5 5 5 q q 5 5 w e 8 r   8 e t t t O O O O O O t t t t t t e 5 5 5 5   y t u O O i o i O , ",
"  p a s 5 5 5 w a e 5 w d f     r w 5 5 5 5 < , O O , < 5 5 5 5 5 5 5 5 5 g s   7 5 e h O O O O h j ",
"  p f f s s s a f a s a f k   l w 5 5 5 5 5 5 e < < e 5 5 5 5 5 5 5 5 5 s d f   7 5 5 j < < < z x 7 ",
"  p f f f f f f f c v v b l 5 5 5 5 5 5 5 5 5 5 5 5 q e 5 5 5 5 q e a f f f p   5 5 5 e e e f v   n ",
"  b m f f f f m v b       8 5 5 5 5 5 5 5 5 5 5 5 e M f e 5 5 w M f f f f c b 7 5 w e f f f v N n % ",
"B   b p p p p b n n   n c w 5 5 5 5 w s s s s s s f f f f V 7 C p p p p p Z r 5 5 s f f f f     @ X ",
"X X .         . X .   X : 5 f s 5 5 f f f f f f f f f f f                 8 5 5 f f f f v     . X X ",
"X X X X X X X X X X . @     v f f f f f f f f f f f f c v     v f f f f f e 5 f f c v     n X A o S ",
"3 3 3 3 3 3 3 3 3 3 3 D + -   p c f f f f f f f k p p Z   @ n b f f f f f a s f p Z B     @ X S O F ",
"O O O O O O O O O O O O O G +   b p f f f f c p Z     B @ X % @ p k f f f f k p   B H B   @ X O F J ",
"5 5 5 5 5 5 5 5 5 5 O O O O O                   @ X X X X X X X                 X X X +   8 5 5 5 5 ",
"5 5 5 5 5 5 5 5 5 5 5 < O O O +     . . . . # X X A o o o o o o K 9 9 9 9 9 9 o o S O L   8 5 5 5 5 ",
"5 5 5 5 5 5 5 5 5 5 5 j < , O +   B X X X X X X 4 S O O O O O O O O O O O O O O O h < 8   8 5 5 5 5 ",
"s s s s s w 5 5 5 5 s 5 5 e < 1   P 3 3 3 3 3 3 2 , < < < < , O O O O O O O O O < j 5 l   8 5 g 5 5 ",
"f f f f f f f e e a f s 5 5 5 V   L t t t t t t e 5 5 5 5 5 5 5 t t t t t t e 5 5 I 8     V f f M e ",
"f f f f f f f f f f f a q 5 e N   r 5 5 5 5 5 5 5 5 5 5 5 5 5 5 5 5 5 5 5 5 5 5 8 l       v f f f f ",
"f f f f f f f f f f f f a s f n @ n 5 5 5 5 5 5 5 5 5 5 5 5 5 5 5 5 5 5 s w 5 7   B @ B   b f f f f ",
"f f f f f f f f f f f f f p   X X . 7 5 5 5 5 5 5 5 5 5 5 5 5 5 5 5 5 f f e 7   X X X X X .   f f f ",
"f f f f f f f f f f f m v U . X X # l I s f w 5 5 5 5 5 5 5 5 5 5 q e f f p n X X X X X X X .       ",
"p p p p p p p p p p p b   @ X X X X   Y T f s 5 5 s g 5 5 w s w 5 e f f f R H X X 4 3 3 3 * X @ @ @ ",
"                      n @ H X X X X @ B b f d w 5 f d w 5 a f e w a f f f E X X 3 2 O O O S 3 X X X ",
"X X X     @ X X X X X X X * o O i o X % .   b v m f f f f f f f f m v   $ % * O O , e w W O O O O O ",
"o Q @   9 K o o o o o o o S O u t u X X X . n   N c f f f f f f f v   . # X 3 O u e 5 5 e t O O O O ",
"O +     O O O O O O O O O O O e 5 e 3 4 X X H @ n Z p c f f f f p b B X * 3 2 < e 5 5 5 5 5 < h O O ",
"f v   5 5 5 5 5 5 5 5 5 5 5 5 5 5 5 O O O X X X X X @     f f f     + O O O < 5 5 5 5 5 5 5 5 e f f ",
"f v   5 5 5 5 q e q 5 e q 5 5 5 5 5 5 e t O 3 X X @ @ B . b v U n   + O t 5 5 5 5 w e w 5 5 5 M f f ",
"f v   5 5 5 5 a f a 5 f a w 5 5 5 5 5 5 5 < ! * #   n H X B   @ H B - O e 5 5 5 w d f d g g s f f f ",
"f v   7 5 g s f f f s f f a s 5 5 g g 5 5 5 j N $ n % X X H @ H X @   9 g 5 5 s a f f f d d f f f f ",
"f v     l ~ f f f f f f f f f a e a f a e e r   n X X X X X X X X X X   b ^ < f f f f f f f f f f f ",
"m N       v f f f f f f f f f f f f f f f v $ . % X X X X X X X X X X . n / 6 f f f f f f f f f f f ",
"b   B @ B b c f f f f f f f f f f f f f f   . X X X X 4 3 3 3 3 3 4 X X @   - p p p p p p p p p p p ",
". X X X X .   p f f f f f f f f f f f v   X X X X o O O O O O O O O O X X X .                       ",
"X X X X X X # n           N v f f f v ( . X X X X i O O O t e 5 t , O o X X X X X .   . X X X X X X ",
"3 3 3 3 3 3 * H @ @ @   B @   p p p n % X X X X ) < < < < 5 5 5 5 j < < : : : _ X .   ` 3 3 3 3 3 3 ",
"O O O O O O S X X X X   @ X @       % X X X X ) ' g 5 5 5 5 5 5 5 5 5 5 5 5 g f % $   O O O O O O O ",
"5 5 5 5 5 5 t 3 X X X   + O X X X X           v f f s 5 5 f f e e f e 5 5 s f f     + O O < 5 5 5 5 ",
"5 5 5 5 5 w ] [ E {   Y } t O S o o * % . . . | _ v c f f f f f f f f f f f f v  .G O O u e 5 5 5 5 ",
"5 5 5 5 s d f f c Z   I 5 5 < h O O 2 3 * X X X X B Z p f f f f f f f f f f k   G O O O t 5 5 5 5 5 ",
"s s s s f f f f v     ..5 5 5 j < , O O S 3 3 * X H B   p p p p p k f f f k Z + O O O , e 5 s s w 5 ",
"f f X.z X.f c   Y 7 5   r w 5 5 5 5 e t t t O O O o * X . . . . . . | _       O O O , 5 5 w f f f M ",
"J z o.O O.c b Y ..5 5     r 5 5 5 5 5 5 5 5 t u O O S o X X X X X X X X . $   + u t e 5 q a f f f f ",
"o.O O O +.Z   T s w 5 v b   7 ..5 5 5 5 5 5 5 e < O O O 3 3 3 3 3 3 * X X % n   @.5 5 w a f f f f f ",
"O O O O     v f f e 5 f p         8 5 5 5 5 5 5 5 5 < O O O O O O O O O X X X   7 5 s f f f f f f f ",
"O O G + . % X X X X X X X X X @     G O h < 5 5 5 5 5 5 5 5 5 5 h O O O O G -   9 O F f f f f J o.O ",
"9 9  .  X X X X X X X X X X X @      .9 G O t t t t t t t t t t O O #.9 9  .    9 O O O.$.f f o.O O ",
"      @ X X X X X X X X X X X @         + O O O O O O O O O O O O O 9           9 O O O %.X.f O O O "
};
