/* XPM */
static char *result[] = {
/* columns rows colors chars-per-pixel */
"50 50 254 2 ",
"   c #8B8984",
".  c #898682",
"X  c #8D8B86",
"o  c #8E8B87",
"O  c #8B8884",
"+  c #8A8884",
"@  c #898783",
"#  c #888681",
"$  c #898782",
"%  c #8F8D88",
"&  c #8E8C87",
"*  c #8E8C88",
"=  c #8C8A86",
"-  c #908D89",
";  c #82807B",
":  c #7E7B76",
">  c #817E79",
",  c #84817C",
"<  c #827F7A",
"1  c #7F7C76",
"2  c #7D7A75",
"3  c #7C7975",
"4  c #7B7874",
"5  c #7D7A76",
"6  c #7E7C78",
"7  c #85837D",
"8  c #8B8983",
"9  c #888581",
"0  c #8C8985",
"q  c #8D8A86",
"w  c #8A8783",
"e  c #918E8A",
"r  c #86837F",
"t  c #84827D",
"y  c #83807C",
"u  c #878480",
"i  c #868480",
"p  c #888682",
"a  c #8B8985",
"s  c #8A8883",
"d  c #7A7874",
"f  c #777470",
"g  c #7A7772",
"h  c #7C7973",
"j  c #7C7974",
"k  c #7A7771",
"l  c #787570",
"z  c #77746F",
"x  c #76736F",
"c  c #75726E",
"v  c #76736E",
"b  c #898681",
"n  c #83817C",
"m  c #84817D",
"M  c #86847F",
"N  c #85837E",
"B  c #827F7B",
"V  c #85827E",
"C  c #817E7A",
"Z  c #7C7A75",
"A  c #7D7B76",
"S  c #908E89",
"D  c #928F8B",
"F  c #908E8A",
"G  c #797670",
"H  c #75726D",
"J  c #787671",
"K  c #74716D",
"L  c #807D78",
"P  c #888580",
"I  c #86847E",
"U  c #86837E",
"Y  c #807D79",
"T  c #7E7C77",
"R  c #8F8C88",
"E  c #94918D",
"W  c #878580",
"Q  c #878581",
"!  c #7D7975",
"~  c #797672",
"^  c #797671",
"/  c #73706C",
"(  c #83807A",
")  c #8D8A85",
"_  c #87847F",
"`  c #7F7D78",
"'  c #86837D",
"]  c #7E7B77",
"[  c #918E89",
"{  c #7B7974",
"}  c #797571",
"|  c #787571",
" . c #82807C",
".. c #85827D",
"X. c #87847E",
"o. c #7F7C78",
"O. c #8C8A85",
"+. c #918F8A",
"@. c #7B7873",
"#. c #7C7874",
"$. c #77736F",
"%. c #716E6A",
"&. c #736F6B",
"*. c #817F7A",
"=. c #84827E",
"-. c #85827C",
";. c #918F8B",
":. c #93918C",
">. c #706D69",
",. c #807E7A",
"<. c #807E79",
"1. c #84827C",
"2. c #7C7A76",
"3. c #92908B",
"4. c #7F7C77",
"5. c #7A7873",
"6. c #777570",
"7. c #787672",
"8. c #7A7773",
"9. c #7D7B77",
"0. c #8E8B86",
"q. c #94928D",
"w. c #817F7B",
"e. c #85837F",
"r. c #807C78",
"t. c #7F7B77",
"y. c #817D79",
"u. c #85817D",
"i. c #87837E",
"p. c #8A8682",
"a. c #908D88",
"s. c #8C8984",
"d. c #7B7975",
"f. c #7E7C79",
"g. c #817F7C",
"h. c #797773",
"j. c #7E7B78",
"k. c #84807C",
"l. c #827E79",
"z. c #84817B",
"x. c #87837F",
"c. c #8A8782",
"v. c #8F8D89",
"b. c #93908C",
"n. c #807E7B",
"m. c #7F7D79",
"M. c #777571",
"N. c #797673",
"B. c #837F7B",
"V. c #837F7A",
"C. c #827E7A",
"Z. c #7E7A76",
"A. c #7C7976",
"S. c #7D7974",
"D. c #83807B",
"F. c #817D78",
"G. c #898680",
"H. c #767470",
"J. c #777471",
"K. c #7F7B76",
"L. c #807C77",
"P. c #8A8781",
"I. c #8F8C87",
"U. c #75736F",
"Y. c #73716D",
"T. c #7B7875",
"R. c #7F7C79",
"E. c #8D8C88",
"W. c #777572",
"Q. c #7B7772",
"!. c #83817D",
"~. c #8B8A85",
"^. c #787470",
"/. c #7B7773",
"(. c #8C8A87",
"). c #74706C",
"_. c #75716D",
"`. c #73706B",
"'. c #898781",
"]. c #74716C",
"[. c #8B8883",
"{. c #75716C",
"}. c #78746F",
"|. c #807D77",
" X c #8C8A84",
".X c #827F79",
"XX c #8E8C86",
"oX c #726F6B",
"OX c #706C69",
"+X c #6F6C68",
"@X c #82817D",
"#X c #7A7672",
"$X c #8E8A86",
"%X c #928F8A",
"&X c #97938E",
"*X c #98948F",
"=X c #96938E",
"-X c #908E88",
";X c #989590",
":X c #93908B",
">X c #928E89",
",X c #8E8A85",
"<X c #94918C",
"1X c #95918C",
"2X c #938F8A",
"3X c #8F8B86",
"4X c #8D8984",
"5X c #928E8A",
"6X c #93908A",
"7X c #95918D",
"8X c #8D8985",
"9X c #918E88",
"0X c #908C87",
"qX c #918D88",
"wX c #8F8B87",
"eX c #8C8884",
"rX c #94918B",
"tX c #8B8783",
"yX c #8A8681",
"uX c #8C8883",
"iX c #888480",
"pX c #76726E",
"aX c #726E6A",
"sX c #76746F",
"dX c #96948F",
"fX c #716D69",
"gX c #95938E",
"hX c #736F6C",
"jX c #95928E",
"kX c #95928D",
"lX c #726F6A",
"zX c #96948E",
"xX c #94928C",
"cX c #95938D",
"vX c #95938F",
"bX c #979490",
"nX c #93918B",
"mX c #8D8A84",
"MX c #97948F",
"NX c #8B8782",
"BX c #94908B",
"VX c #928F89",
"CX c #8E8B85",
"ZX c #96928D",
"AX c #938F8B",
"SX c #918D89",
"DX c #95928C",
"FX c #96938D",
"GX c #999690",
"HX c #9A9792",
"JX c #999691",
"KX c #9A9691",
"LX c #98958F",
"PX c #908C88",
/* pixels */
"  . X o O + @ # $ @   X % & * = - ; : > , , < > 1 2 3 4 2 5 6 3 7 8 9 # 0 & q w X e & O . r r t y u ",
"@ i w 0 O 0 + # p a X q + s p p # d f g h j k k g l z x f c c v 1 b n y m M N B m V V , C 5 5 Z A B ",
"0 r O 0 w $ + s X S D F O 9 r @ # 3 g 4 g g l l G H H c J c K z L P t n m n y B , n , I U < Y 3 T V ",
"R # p . $ a a & q e E D q W u Q   2 ! 3 ~ ^ ^ ^ c / / K v c x ^ ( ) _ n y y ; ` Y Y > ' U _ 3 3 ] U ",
"S W p w w O O 0 q % - [ X a = a = Y { 2 5 j } | x K c c c K f ^ < s B C  .m y B Y Y ( ..X.7 o.o.` r ",
"O . W i 9 . s w   0 = O.9 w & e +.m @.#.#.@.$.f f z K %.&./ z | L b C *.t =.m y C Y C -.' ..` 3 3 A ",
"$ # i N W 9 s w .   a = 0 O.- ;.:.m 4 4 @.f x x c K / >./ / f ~ Y $ ,.Y <.; B C C ,.C 1...B o.5 5 2.",
"Q p + q +     +   =   X X % 3.3.q y L 4.o.A : 4.5.6.7.8.4 ~ 3 9.B r y y r M V _ ; Y *._ W N *.; B Y ",
"u i   O . s 0 $ @ % 0.& * F q.q.:.F 0 O w $ O   M w. .n n w.V e.  a M Q O + 9 M m =.N b   . ..r M V ",
"r.t.t.t.y.u.i.p.R - O O.a & +.a.e -   O s.o D e = =.d.d.9.f.,.g.w.6 d h.j.2.d.2.d m V k.k.u.l.y.> < ",
"2 ! 3 @.t.z.x.c.X X   . w 0 e O.q 0 O +   v.b.e % n 5 n.,.B w.m.6 2.7.M.N.h.7.M.f y.B.V.V.C.> > > t.",
": @.Z.j ! l.> m w O.O $ s ) R X O.0.X o R % +.[ % t 2.9.] <.w.,.m.9.d 7.7.7.h.A.7.3 Z.! ! S.<.y.D.< ",
"5 ! t.4.2 C.C._ s.s.b X   0 S * = R - S e +.% q O w.h.h.d 6 C ,.m.m.d M.M.h.h.d.f 8.3 #.#.! t.> F.L ",
"t.: : t.r.C.B.G.a.) 9 X q q +.R q o % & % +.a # M 6 H.H.M.2.o.,.m.m.2.7.h.7.h.d J.5 : ! Z.: Z.r.r.K.",
"Z.t.4.< L.4.l.P.I.% O.O.X v.e - X X - & R +.0 . e.2.U.Y.Y.T.o.o.9.6 6 h.M.h.h.h.J.R.4.4.o.o.! Z.4.4.",
"^ 2 L y.L y.C.X.) X E.O.o X & [ - % & R R & X s t h.W.W.M.7.d.2.9.2.2.d M.h.h.7.H.d.3 ] K.r.! j @.Q.",
"9.w.r u.y y t # s P $ w . & :.q.q.S & * - % = # # Q e.=.w.C !.i W t w.N N r n o.R.m.] B t.y.C o.2 Z ",
"y w.t ; C B  .M # V =.m !.Q p $ ;.X @ + O.= p W @ @ @ p =.e.i Q = ~.R.3 ] 4.5 8.4 8.8.! ^.x | /.z ~ ",
"W ; Y o.] C y  .t y  .,.w.!.y w.X (.s @ p p i p $ $ w s e.i i W s r l c f x c x v K z v ).).c } ^.l ",
"b m D.o.9.Y ;  .n  .w.m.w.!.!.*.s.  a O p i =.W $   O 0 $ @ p # a M f x U.x x v c K c _.).`.z z l ^ ",
"'.n ; 9.o.] Y w.w.*.m.,.w.y  .w.=       $ =.=.V 9 0 0 0 O ) s # @ M 7.8.U.K c c K K c v v ].).| k @.",
"c.U t 9.8.T.2.C y =. .<.w.w.w. .X   s + @ i =.V M w = O s.) [.$   u x ~ f ].].K c c c $.$.v {.}.k |.",
"P U n o.9.9.m.,.y V !.w. .!.n t & a p W W # i e.M w   O.0.s.X  X  V | f | | | ~ ~ } x )./ ].`.}.G .X",
"9 ..n y <.,.,.n =.Q i e.!.!.!.=.e.W p . . $ Q M u s O.X XX0.XX X# *.f ~ ~ 3 5 ! ! /.^.c oXOX+X).H 1 ",
"$ P s s . W M n  .Q i e.m @Xi !.w.!.$ + & o O.s u W s  X) XX)   1.4.H.M.| 8.3 #.C D.C.o.8.| f #X@.D.",
"$X%X&X*X=X% 0.= O # u W V y m w.e.r $ X 0.P ..m u   o -Xa.0.I.8 W e.V m u r M u s E ;X:X[ >Xa.,X) ) ",
"I.%X<X1X:Xe [ D S t B C B > Y T Y C m r U y Y B u * q I.) O.) s.9 V ..m m m ..r P - 2Xa.3X3Xa.0.s.4X",
"[ 5X%X1X6X7XE =X+.B Y B B C y Y C C > B D.< y , M [ I.I.) s c.b U .., V t D.N r U q 3X8X4X,X[ 9X0XqX",
"qX3X0.0X2X1X<X=XD Y L y B ] o.=.,.o.Y <.< D.< < [.%Xs.[.. c.b W y D.r . . $ . c.U q wX) I.eX$X,X,X3X",
"0.,X) s.I.:XrX<X0.6 <.D.V ..y B *.B B C > C L > [.R 0   # $ 9 _ m y V W P . [.O.9 0 0.0.wX) tX4X4X0.",
"[.8X[.s.) [ %X:Xq ,.Y V ....N D.D.D.C Y 3 ~ 2 < [.% )   c.9 u P V m N u W . [.0 [.q I.,X0.0.) yX_ _ ",
"[.) s.s.a.[ [ :X0.B ; r W r ..D.Y C <.` 3 3 2 C O R ) s.9 u _ _ V t u u P b w O [.o a.wXI.0.uXiX9 _ ",
"O I.a.% ) I.% :.S # O s.c.# u m *.n u M m m y t P O.0.X s . b M y B r W .   0 0 s p 0.%X%Xa.,X$ b 9 ",
"y V $ b !.n r $ 9 M     # # M y =.  D % q   0 O.& :.E b.% & O.w =. .m W   s . $ O 0 O ) o w . 9 e.m ",
").%.pXH K aX).f f f | f sXl x c i ;.<XS 0 0 0 & [ dX=X:XR I.O.O.o 0 w.w.n ,.m.y V y C Y <.o.3 4 5 N ",
"aXfXK pX].oXoXc x x | z `.`.aX).# :X[ % X o q R [ =XgX:.e 0.q X 3.% =.m C m.,.=.y *.B m B : ] o.Y U ",
"aX>.hXf ).aX/ x x v x K >.oXc x w %X- R o X o +.:.jXkX:Xa.X ) 0.a.R n B Y ,.B N y C Y o.: 5 5 r.o.; ",
"/ oX`.oXoX/ H f f K x c H K | z p D ;.S S R I.%X:X<Xq.3.) O.X & S * n w.Y m.,.*.; ] ] ] 5 5 ] Y 5  .",
"K &.H %.>./ x x K oXH x x v | f # +.%Xe +.e % %Xa.+.D - q X o - <XS N  .Y o.o.Y ; ] 3 ] 5 2.] Y ] t ",
"%./ ).lXoXK f l ^ f f #.^.z ~ | 9 kXdXgX:.3XS [ 0.s.s.R q s.e %XzXxXW r B Y 3 C B ] 3 T ] ] : Y o.r ",
"/ K c K oXK $.^.| | 8.~ | ~ j j N R kX<Xb.a.0.O.@ O w )   O.I.:XcX+.W _ ..m C *.*.] 5 4 5 Y ] o.> B ",
"=.t W u y _ P b [.W P P c.O.c.X jXvXbXbXkX+.a.0.@ . 0 S - & +.:.xXnX& O.  s w   N ; u w . [.9 , 9 [.",
"[.[.) 0.s.s.mXa.<Xo 0.& a.[ S :XMXMX=X=XkX<X%XI.w y B V r M $   -XxXX s [.w . $ W Q [.q s.I.0.NXa.wX",
"c.[.s.[.) s.s.S q.0.a.o q ) I.I.%XBX<XkX<XkX%X0Xa.=.,.T ,.y y ..U 7 t n V W i e.N [.0.0.8X) NX3XVXCX",
"c.tXs.,Xa.a.I.[ :.0.a.I.0.0.I.0.I.%X<XZX<X:X:X[ %Xm Y <.Y C y t n n ; w.m u i V n [.0.,X) 8Xs.0X0X,X",
"s.s.0.0XqX%X%Xa.I.8XI.0.) 0.o $XI.[ kX=XkXBXAXSX[ C ] 9.A ` ,.w.w.B Y m.y M i u =.[.[ [ ) [.8X0X,XuX",
"4X0.a.>XBXkX<X<X3.0.I.[.s.) ) 0.R a.DXZXZX:X%XI.[ ; o.C C o.,.,.t M ; m.*.; n 9 N q 5X[ $Xw 0X3X) 4X",
"[ a.a.>X%X2X%XBX<Xa.I.[.[.) ) I.I.wX<XkXkXBX:X0X%XM y <.6 6 o.<.B t e.B  .D.t W n 0 >X0X,X4X0X0.I.I.",
"I.>X%X2X2X2X>X,XO 3XI.I.s.[.O 0.,X0.DX=X<X1X<XrXFXc...> ] T m.B n n y ; n t t n ,.9 qX0XI.3X$X4X0XI.",
"5X%X%X[ qX[ qXO s 0 a.kX<X+.[ %X[ AXGXHXJXKX*XLXGXO.W  .6 ,.,.C C L ` B V V =.!.; M [.I.I.0.s.) PX[ "
};
