/* XPM */
static char *_8023a76dcae4f3fe9880712a2fe596dWfGcXBljySCkGFVq[] = {
/* columns rows colors chars-per-pixel */
"50 50 42 1 ",
"  c #0B1520",
". c #242D3A",
"X c #555E6D",
"o c #2E3A3B",
"O c #212A36",
"+ c #4C5561",
"@ c #525B69",
"# c #323D40",
"$ c #1B252E",
"% c #3A444A",
"& c #404A52",
"* c #434D56",
"= c #333E42",
"- c #18222B",
"; c #222E32",
": c #2C3542",
"> c #3C4653",
", c #131D26",
"< c #4D5664",
"1 c #1B2531",
"2 c #263235",
"3 c #364145",
"4 c #2A343C",
"5 c #1B252C",
"6 c #2A3638",
"7 c #3B464C",
"8 c #303A41",
"9 c #172129",
"0 c #1B252F",
"q c #101A25",
"w c #0F1923",
"e c #343E4B",
"r c #4F5865",
"t c #374247",
"y c #2F3B3D",
"u c #49535E",
"i c #48525C",
"p c #454E5C",
"a c #202A33",
"s c #3B454D",
"d c #353F45",
"f c #151F29",
/* pixels */
" .XXXXXXXXXXXXXXXXXXXXX. ooooooooooooooooooooooooo",
" O++++++++++++++++++@XX. ######################ooo",
" $%%%%%%%%%%%%%%%%%%&*X. %%%%%%%%%%%%%%%%%%%%%%=oo",
" $%%%%%%%%%%%%%%%%%%%%X. %%%%%%%%%%%%%%%%%%%%%%%#o",
" $%%%%%%%%%%%%%%%%%%%%X. %%%%%%%%%%%%%%%%%%%%%%%#o",
" $%%%%%%%%%%%%%%%%%%%%X. %%%%%%%%%%%%%%%%%%%%%%%#o",
" $%%%%%%%%%%%%%%%%%%%%X. %%%%%%%%%%%%%%%%%%%%%%%#o",
" $%%%%%%%%%%%%%%%%%%%%X. %%%%%%%%%%%%%%%%%%%%%%%#o",
" $%%%%%%%%%%%%%%%%%%%%X. %%%%%%%%%%%%%%%%%%%%%%%#o",
" -####################X. %%%%%%%%%%%%%%%%%%%%%%%#o",
"  ;oooooooooooooooooooX. %%%%%%%%%%%%%%%%%%%%%%%#o",
"                                                  ",
";;;;;;;;;;   :>>>>>>>>>>>>>>>>>>>:  ,;;;;;;;;;;;;;",
"oooooooooo; :<XXXXXXXXXXXXXXXXXXX<1 2ooooooooooooo",
"%%%%%%%%3oo 4%%%%%%%%%%%%%%%%%%%XX. %%%%%%%%%%%%%%",
"%%%%%%%%%#o 4%%%%%%%%%%%%%%%%%%%*X. %%%%%%%%%%%%%%",
"%%%%%%%%%#o 4%%%%%%%%%%%%%%%%%%%*X. %%%%%%%%%%%%%%",
"%%%%%%%%%#o 4%%%%%%%%%%%%%%%%%%%*X. %%%%%%%%%%%%%%",
"%%%%%%%%%#o 4%%%%%%%%%%%%%%%%%%%*X. %%%%%%%%%%%%%%",
"%%%%%%%%%#o 4%%%%%%%%%%%%%%%%%%%*X. %%%%%%%%%%%%%%",
"%%%%%%%%%#o 4%%%%%%%%%%%%%%%%%%%*X. %%%%%%%%%%%%%%",
"%%%%%%%%%#o 4%%%%%%%%%%%%%%%%%%%*X. %%%%%%%%%%%%%%",
"%%%%%%%%%#o 56oooooooooooooooooo7<1 8%%%%%%%%%%%%%",
"$$$$$$$$$-9  ,99999999999999999901  q$$$$$$$$$$$$$",
"                                                  ",
"  ;ooooooooooooooooooo2w eXXXXXXXXXXXXXXXXXXXXXXXX",
" w2o#################oo9 ++++++++++++++++++++++rXX",
" 9oo%%%%%%%%%%%%%%%%%3o9 %%%%%%%%%%%%%%%%%%%%%%*XX",
" 9o%%%%%%%%%%%%%%%%%%%o9 %%%%%%%%%%%%%%%%%%%%%%%+X",
" 9o%%%%%%%%%%%%%%%%%%%o9 %%%%%%%%%%%%%%%%%%%%%%%+X",
" 9o%%%%%%%%%%%%%%%%%%%o9 %%%%%%%%%%%%%%%%%%%%%%%+X",
" 9o%%%%%%%%%%%%%%%%%%%o9 %%%%%%%%%%%%%%%%%%%%%%%+X",
" 9o3%%%%%%%%%%%%%%%%%%o9 %%%%%%%%%%%%%%%%%%%%%%%+X",
" 9oot%%%%%%%%%%%%%%%%3o9 %%%%%%%%%%%%%%%%%%%%%%%+X",
" w2oy################oo9 #######################uX",
"   ooooooooooooooooooo;  9ooooooooooooooooooooooiX",
"                                                  ",
">>>>>>>>>>>  :>>>>>>>>>>>>>>>>>>>:  1>>>>>>>>>>>>>",
"XXXXXXXXXXX :<XXXXXXXXXXXXXXXXXXX<1 pXXXXXXXXXXXXX",
"%%%%%%%%%#o 4%%%%%%%%%%%%%%%%%%%XX. %%%%%%%%%%%%%%",
"%%%%%%%%%#o 4%%%%%%%%%%%%%%%%%%%*X. %%%%%%%%%%%%%%",
"%%%%%%%%%#o 4%%%%%%%%%%%%%%%%%%%*X. %%%%%%%%%%%%%%",
"%%%%%%%%%#o 4%%%%%%%%%%%%%%%%%%%*X. %%%%%%%%%%%%%%",
"%%%%%%%%%#o 4%%%%%%%%%%%%%%%%%%%*X. %%%%%%%%%%%%%%",
"%%%%%%%%%#o 4%%%%%%%%%%%%%%%%%%%*X. %%%%%%%%%%%%%%",
"%%%%%%%%%#o 4%%%%%%%%%%%%%%%%%%%*X. %%%%%%%%%%%%%%",
"%%%%%%%%%#o 4%%%%%%%%%%%%%%%%%%%*X. %%%%%%%%%%%%%%",
"%%%%%%%%%#;  a%%%%%%%%%%%%%%%%%%s:  4d%%%%%%%%%%%%",
"$$$$$$$$$-    $$$$$$$$$$$$$$$$$$f    f$$$$$$$$$$$$",
"                                                  "
};
