/* XPM */
static char *_442ebb391cb434a91b14970fad68349q6jUVjsVo5Qf8qCi[] = {
/* columns rows colors chars-per-pixel */
"49 50 232 2 ",
"   c #020104",
".  c #0B0004",
"X  c #04030A",
"o  c #0C040B",
"O  c #0A0A0C",
"+  c #0B0F01",
"@  c #14010C",
"#  c #160603",
"$  c #111203",
"%  c #1C160A",
"&  c #050013",
"*  c #02001D",
"=  c #0B0716",
"-  c #130413",
";  c #140C13",
":  c #1B0C1C",
">  c #160718",
",  c #151114",
"<  c #1C171A",
"1  c #210300",
"2  c #2A0500",
"3  c #320900",
"4  c #231704",
"5  c #371600",
"6  c #271A1A",
"7  c #342602",
"8  c #28251A",
"9  c #020024",
"0  c #0B0424",
"q  c #02002B",
"w  c #0E0729",
"e  c #120B2B",
"r  c #180927",
"t  c #191727",
"y  c #080135",
"u  c #1A0B3C",
"i  c #150A39",
"p  c #1A1537",
"a  c #2B1D24",
"s  c #2C1E2A",
"d  c #251728",
"f  c #241133",
"g  c #291B38",
"h  c #2D1933",
"j  c #2C222C",
"k  c #292729",
"l  c #34292B",
"z  c #3E3229",
"x  c #2A2434",
"c  c #342533",
"v  c #342A33",
"b  c #3B2C3B",
"n  c #392738",
"m  c #3D343C",
"M  c #393537",
"N  c #2F302B",
"B  c #482602",
"V  c #5B3405",
"C  c #513110",
"Z  c #663705",
"A  c #743F00",
"S  c #42332F",
"D  c #432E38",
"F  c #443638",
"G  c #533D27",
"H  c #765114",
"J  c #784B0F",
"K  c #59442E",
"L  c #6E5534",
"P  c #1C1447",
"I  c #15074C",
"U  c #261949",
"Y  c #271B59",
"T  c #200E58",
"R  c #2A2447",
"E  c #3C2E41",
"W  c #362A49",
"Q  c #3E3241",
"!  c #3D3548",
"~  c #2D235C",
"^  c #2E2854",
"/  c #342856",
"(  c #3B3459",
")  c #1B0D61",
"_  c #261965",
"`  c #2C2265",
"'  c #372A68",
"]  c #3E346B",
"[  c #342572",
"{  c #3A2C7B",
"}  c #362877",
"|  c #3C3275",
" . c #3E337C",
".. c #412F46",
"X. c #443443",
"o. c #4B3C4B",
"O. c #473A46",
"+. c #473A56",
"@. c #4C394D",
"#. c #463965",
"$. c #423674",
"%. c #42367C",
"&. c #463A76",
"*. c #402F7F",
"=. c #4A4548",
"-. c #524543",
";. c #544758",
":. c #525053",
">. c #635152",
",. c #6F634C",
"<. c #554968",
"1. c #4A417B",
"2. c #585069",
"3. c #675465",
"4. c #615675",
"5. c #6B676B",
"6. c #776777",
"7. c #7A6F75",
"8. c #875819",
"9. c #915809",
"0. c #96661B",
"q. c #B26900",
"w. c #A96A16",
"e. c #B77517",
"r. c #AF6E0F",
"t. c #906634",
"y. c #A56B24",
"u. c #B77825",
"i. c #AD7229",
"p. c #CB6C00",
"a. c #D36D00",
"s. c #C77406",
"d. c #D47400",
"f. c #DB7400",
"g. c #D67902",
"h. c #C77918",
"j. c #8B7251",
"k. c #817E72",
"l. c #7D8173",
"z. c #B3843A",
"x. c #BB842A",
"c. c #CA8313",
"v. c #C38221",
"b. c #AF884F",
"n. c #8B897F",
"m. c #B08C6A",
"M. c #301E89",
"N. c #3C2D84",
"B. c #34238A",
"V. c #3C2C8C",
"C. c #352685",
"Z. c #3F318D",
"A. c #3E3285",
"S. c #3D2B93",
"D. c #3A269C",
"F. c #3D2B9A",
"G. c #372493",
"H. c #3F3190",
"J. c #3D27A5",
"K. c #412F88",
"L. c #43348B",
"P. c #46398B",
"I. c #483988",
"U. c #412C98",
"Y. c #433394",
"T. c #493899",
"R. c #533F95",
"E. c #432EA2",
"W. c #432FA9",
"Q. c #4733A7",
"!. c #4D38AA",
"~. c #53468C",
"^. c #6E5A84",
"/. c #756582",
"(. c #746686",
"). c #706B87",
"_. c #5749A0",
"`. c #817B8A",
"'. c #8B888B",
"]. c #988B82",
"[. c #978F9A",
"{. c #99979A",
"}. c #838095",
"|. c #AA9A80",
" X c #BAA288",
".X c #8A86A4",
"XX c #9790AF",
"oX c #A39CAE",
"OX c #A7A3A7",
"+X c #BAB6B9",
"@X c #B2B0B0",
"#X c #C2A18E",
"$X c #C7BCB4",
"%X c #CDBDAE",
"&X c #CAC7B8",
"*X c #BDB9CB",
"=X c #B0ABC8",
"-X c #C6BDDB",
";X c #C4BCC5",
":X c #CACACC",
">X c #CBC9D8",
",X c #DAD7D9",
"<X c #D0CDD6",
"1X c #E8E9D8",
"2X c #FBF7DF",
"3X c #F3E2D2",
"4X c #D1CEE4",
"5X c #D9D6E5",
"6X c #E2DFE3",
"7X c #E1D7F0",
"8X c #EBEAEA",
"9X c #F1EDEC",
"0X c #F5EEE6",
"qX c #F3F4EE",
"wX c #FCF6EB",
"eX c #FFFEED",
"rX c #F8F9E7",
"tX c #EEECF1",
"yX c #EDECFE",
"uX c #E9E6F7",
"iX c #F1EDF3",
"pX c #F1EEFD",
"aX c #F7EAF5",
"sX c #EEF6FC",
"dX c #F4F3F5",
"fX c #FCF5F4",
"gX c #F6FBF4",
"hX c #FDFDF5",
"jX c #F5F5FB",
"kX c #FBF6FE",
"lX c #F5FDFE",
"zX c #FEFEFE",
/* pixels */
"zXzXzXzXzXzXzXzXzXzXzXzXzXhXhXeXrXrXeXhXzXzXzXzXzXjXzXzXjXzXzXjXeX2XzXzXzXzX8XhXeXhXzXzXzXzXhXhXzX",
"zXzXzXzXzXzXzXzXzXzXjXzXzXhXeXhXeXeXhXzXjXzXkX4X`.M k k t 2.*XzXhXwXzXkXsXzXzXrXeXhXzXzXzXzXhXhXzX",
"zXzXzXzXzXzXzXzXjXzXzXgXhXzXhXwXhXzXtXpXyXXXW p * W d = x & p <XwXwXzXzXjXjXzXgXhXhXzXzXzXzXhXhXzX",
"zXzXzXzXzXzXzXzXjXzXzXzXzXzXzXzXdXzXzXXXP y U u ( ( ! W ! x t =.wXzXjXzXzXsXzXhXhXzXzXzXzXzXhXhXzX",
"zXzXzXzXzXzXzXzXzXgXdXzXzXgXgXzXkX-X#.q P | | &.#./ W r & = : j 9XzXjXyXzXjXlXgXhXzXzXzXzXzXzXhXzX",
"zXzXzXzXzXzXzXzXzXzXzXjXzXzXzXuX.XP y | L.[ } { $.U 0 r +.O.o . k.tXzXkXzXzXlXzXzXzXzXzXzXzXzXhXzX",
"zXzXzXzXzXzXzXzXqXzXzXdXkXzX>X).q Y } N.T.L.N.I.Y q W <.E X.X.j < 7.dXzXzXzXzXzXzXzXzXzXzXzXzXzXzX",
"zXzXzXzXzXzXzXzXzXgXdXzXzX*X;.* ` } A.Z.V.Z.K.[ I / ..n O.X.a F < 6 OXzXfXzXzXzXzXzXzXzXzXzXzXzXzX",
"zXzXzXzXzXzXzXzXzXzXpXzX4Xp p /  .N.V.V.V.T.K.T y #...c o.S S F z % z %XeXwXhXzXzXlXlXlXjXzXzXzXzX",
"zXzXzXzXzXzXzXzXzXuXzX5XR P ^ ] L.Z.H.V.V.L.[ I ( W E a 6 S S 8 z L G 5  XrX3XzXzXlXlXlXzXzXzXzXzX",
"zXzXzXzXzXzXzXzXzXzXuX#.y ~ | I.Y.Y.Y.V.Z.{ Y y W : o 8 -.8 . K G L t.V 5 b.rXwXzXlXlXlXzXzXzXzXzX",
"zXzXzXzXzXzXzXzXkXzX^.9 $. .P.Z.V.F.S.V.L.} U e r Q @X0X$X&Xn.. B t.b.z.V 3 m.wXzXzXlXlXzXzXkXzXzX",
"zXzXzXzXzXzXzXzXkX-X9 ' [ L.Z.S.G.F.S.V.P.' u e < 8X{.$   , =.].B 0.z.u.x.Z 2 #XfXzXlXsXgXzXkXzXzX",
"zXzXzXzXzXzXzXzXkX2.9 1.{ L.B.E.D.W.F.S.P.~ w t {.&X$       = >.V 8.e.e.v.u.Z 3 $XkXlXlXhXzXkXzXzX",
"zXzXzXzXzXzXzXzX>Xp Y ` _.Y.G.W.J.Q.F.S.P.Y 9 t :Xl.  +     w 6 B u.r.q.c.v.i.5 >.:XlXlXhXzXkXzXzX",
"zXzXzXzXzXzXzXzX}.w ] %.C.F.W.J.J.Q.D.S.P.Y 9 t @Xn.      X X z Z J v.c.q.h.u.t.# ].qXgXzXzXkXzXzX",
"zXzXzXzXzXzXzXzX).p ' I.C.F.J.Q.D.U.W.G.N.Y w k >.1X8   X   , ,.B 0.v.s.p.g.h.u.J 2 &XhXhXzXzXaXzX",
"zXzXzXzXzXzXzXzX=X9 ] [ T.Q.D.D.F.U.E.F.V.Y w v $ &Xn.N O N =.,.H w.h.s.p.a.p.h.i.B ,.hXzXdXzXzXzX",
"zXzXzXzXzXzXzXzXpXp P ~._ T.T.F.U.S.E.F.V.Y e M 8 $ :.+X<X).< # 0.e.s.d.f.a.p.h.y.H 7 0XzXjXzXzXzX",
"zXzXzXzXzXzXzXzXzX.X9 &.` A.Y.S.Y.V.F.F.V.Y e X.F % N o   , M K w.s.d.d.f.f.p.e.z.L # 1XgXzXzXgXzX",
"zXzXzXzXzXzXzXzXjXpX+.9 1.%.{ } L.V.U.S.K._ e Q M k M M =.v F B r.g.d.p.f.g.s.r.b.C 4 1XzXhXzXzXzX",
"zXzXzXzXzXzXzXzXzXzX*XR 9 ' $.%. .N.Y.S.L.[ i n v -.F j O.c -.C r.g.d.p.d.c.h.i.B 7 k.gXhXgXzXzXzX",
"zXzXzXzXzXzXzXzXzXjXzX=Xe U ^ 1.| A.Y.V.Y.} u f X.F c n @.b F C w.s.s.s.h.r.9.H 5 j.1XhXgXzXhXzXzX",
"zXzXzXzXzXzXzXzXzXgXzXkX>Xe * ^ ' %.L.V.Y.*.u r b b @...n X.F C y.e.u.u.y.A 5 1 m.1XzXhXzXzXqXzXzX",
"zXzXzXzXzXzXzXzXqXzXzXkXzX>X+.9 P | N.C.K.L.' 0 g ! +.+.h @.D C j.t.8.V 1 1 j.3XhXzXzXzXzXzXzXzXzX",
"zXzXzXzXzXzXzXhXzXzXqXzXzXjXzX.X^ y ) V.V.K.' #.* f f f h > 6 4 1 # # K  X3XwXdXzXzXzXzXzXzXzXzXzX",
"zXzXzXzXzXzXzXzXzX,XzXzXtXzXzXzX=XP ) C.B.T.[ ' ^ W u 0 0 f b -.].$X0XhXgXzXzXzXzXzXzXzXzXzXzXzXzX",
"zXzXzXzXzXzXzXzXgXzXzXzXzXzXyX>X/ y { T.G.T.I.%.$.#./ ^ U -XaXzXtXzXzXjXjXzXzXyXzXzXzXzXzXzXzXzXzX",
"zXzXzXzXzXzXzXzXzXzXjXjXzXzX4X+.w ' P.Y.G.B.[ T ' &.$.' 9 .XkXjXzXzXzXzXlXzXzXkXzXzXzXzXzXzXzXzXzX",
"zXzXzXzXzXzXzXzXzXtXzXzXzX>X+.0 ( ] _ M.Q.Q.T.{ I | $.$.i R zXdXzXjXsXlXzXzXzXzXzXzXzXzXzXzXzXzXzX",
"zXzXzXzXzXzXzXzXjXzXkXkX*XW e g R U N.!.U.G.C.N.T _ } $.^ 9 >XzXzXzXzXzXjXdXzXzXzXhXhXhXzXzXzXzXzX",
"zXzXzXzXzXzXzXzXzXiXzXoX> & W +.+.9 ' I.} R.R.~.| y ~ &.#.e 4.kXzXzXgXgXzXzXzXfXhXhXhXhXzXzXzXzXzX",
"zXzXzXzXjXgXzXzXkXzX[.- c /.;.E X.d @.(.(.^.^.4.(.e U <.U / W 7XzXzXzXzXzXzXzXzXzXzXzXzXzXzXzXzXzX",
"zXzXzXzXzXzXzXkX;Xo.> > d 3.6.3.b @ 6.>.D s - h f r f +.#.W * -XzXzXzXzXzXzXzXzXzXzXzXzXzXzXzXzXzX",
"hXhXzXhXzXzXjX8Xm o d c > r o.6.3.@ b . : d : d f > f ! +.<.r /.zXzXzXzXzXzXzXzXzXzXzXzXzXzXzXzXzX",
"gXzXzXgXzXzXjX5Xd s o.b b d : r s @ - d b c o.....- +.`././.g E zXzXzXzXzXzXzXzXzXzXzXzXzXzXzXzXzX",
"jXzXzXhXzXzXzXiX=.  o > m Q n : @ - . c b O.O.E o.: b ;.x & & 2.zXzXzXzXzXzXzXzXzXzXzXzXzXzXzXzXzX",
"hXzXzXhXjXzXzXzXaX+X5.- X.Q c Q o.s - - . b > c c . : X X ;.=XzXzXzXzXzXzXzXzXzXzXzXzXzXzXzXzXzXzX",
"zXhXhXhXjXzXzXzXzXzX{.. j m j c j F o.c o ; . d a > s o j ;XzXtXzXzXzXzXzXzXzXzXzXzXzXzXzXzXzXzXzX",
"zXzXhXzXzXzXzXzXkXzXiXO.o . ; . d O.s F O.j a . o < ; < OXzXgXzXzXzXzXzXzXzXzXzXzXzXzXzXzXzXzXzXzX",
"zXzXzXzXzXzXzXzXzXjXzX8X[.[.+XOXj ; X.b v m m , < ; , N zX8XzXzXzXzXzXzXzXzXzXzXzXzXzXzXzXzXzXzXzX",
"zXzXzXzXzXzXzXzXzXjXzXzX8XkXzXzX7.o ;.m m m < o < <   5.zXzX8XzXzXzXzXzXzXzXzXzXzXzXzXzXzXzXzXzXzX",
"zXzXzXzXzXzXzXzXzXzXzXzXzXzXzXgX+Xo ; j v a ; N N , N :XdXzXzXzXzXzXzXzXzXzXzXzXzXzXzXzXzXzXzXzXzX",
"zXzXzXzXzXzXzXzXdXzXzXjXjXzXzXzXzX[., ; ; < ; . X k OXzXzXtXzXdXzXzXzXzXzXzXzXzXzXzXzXzXzXzXzXzXzX",
"zXzXzXzXzXzXzXzXgXzXzXzXzXzXzXzXjXzX'.< 5.<X<X{.  {.zXzXzXkXzXzXzXzXzXzXzXzXzXzXzXzXzXzXzXzXzXzXzX",
"zXzXzXzXzXzXzXzXzXzXzXgXzXzXgXgXzXzX,Xo '.zXzXdX  {.zXtXdXzXzXzXzXzXzXzXzXzXzXzXzXzXzXzXzXzXzXzXzX",
"zXzXzXzXzXzXzXzXzXhXjXzXzXzXzXzXzX9X9X6 5.dXtXzXO 5.kXzXjXzXzXjXzXzXzXzXzXzXzXzXzXzXzXzXzXzXzXzXzX",
"zXzXzXzXzXzXzXzXzXzXzXzXjXdXhXzXiXzXdX=.k 6X,X+X, m OX{.@X{.:XzXzXzXzXzXzXzXzXzXzXzXzXzXzXzXzXzXzX",
"zXzXzXzXzXzXzXzXzXzXzXzXzXzXzXzXjXzXOX=.  O O       O     O M dXzXzXzXzXzXzXzXzXzXzXzXzXzXzXzXzXzX",
"zXzXzXzXzXzXzXzXzXzXzXzXzXzXzXzXjX'.O O O X   O X O t X     v dXzXzXzXzXzXzXzXzXzXzXzXzXzXzXzXzXzX"
};
