/* XPM */
static char *_8101cee76ff44ffdd9e7f9924141933pRARlXdqYLSv1WJg[] = {
/* columns rows colors chars-per-pixel */
"30 30 17 1 ",
"  c None",
". c #7F3500",
"X c #A55200",
"o c #3F1500",
"O c #D8906C",
"+ c #B25435",
"@ c white",
"# c black",
"$ c #FFAA7F",
"% c #D86641",
"& c #FF7632",
"* c #003304",
"= c #005907",
"- c #007F0A",
"; c #47B262",
": c #0F424C",
"> c #196E7F",
/* pixels */
"                              ",
"                              ",
"               ...            ",
"           ....XXX.           ",
"         ..XXX..XXX.          ",
"        .XX......XXX.         ",
"       .X.........XX.         ",
"       o.......ooo..          ",
"      o.....oooOO+            ",
"      o....oO@@@O@@           ",
"      o.oo.oO@##$#@           ",
"      oo+o.o$@##$#@%          ",
"       +O+oo$@@@$@@$%         ",
"       +O+OO$$$$$$$$%         ",
"        +OO$$$&&&&%%          ",
"         ++$$$$$$%            ",
"         *=%%%%%%*            ",
"        *===*----=*           ",
"        *===*;;;;=*           ",
"        *===*----=*           ",
"        *===*;;;;=*           ",
"        %$$$$%---=%           ",
"        %$$$$%===:%           ",
"        %$$$%>>>>:            ",
"         %%%:::>>:            ",
"         o..o o..o            ",
"        o...o o...o           ",
"        ooooo ooooo           ",
"                              ",
"                              "
};
