/* XPM */
static char *result[] = {
/* columns rows colors chars-per-pixel */
"50 50 180 2 ",
"   c #4D1650",
".  c #4F1952",
"X  c #531C54",
"o  c #572255",
"O  c #592356",
"+  c #5C245A",
"@  c #57265B",
"#  c #61275D",
"$  c #622B5E",
"%  c #68365F",
"&  c #5D366A",
"*  c #562860",
"=  c #662C61",
"-  c #673565",
";  c #713669",
":  c #74396A",
">  c #7A3D6E",
",  c #763A65",
"<  c #6E3E73",
"1  c #7C3F70",
"2  c #764667",
"3  c #7A4B6E",
"4  c #774867",
"5  c #7F516C",
"6  c #7E4071",
"7  c #7C4E70",
"8  c #634276",
"9  c #82546D",
"0  c #854776",
"q  c #8A4B79",
"w  c #91517E",
"e  c #975E79",
"r  c #8E6274",
"t  c #95647C",
"y  c #9A717B",
"u  c #6D5686",
"i  c #705E86",
"p  c #7F6491",
"a  c #7D789D",
"s  c #8E5884",
"d  c #A15F89",
"f  c #83608C",
"g  c #996785",
"h  c #876594",
"j  c #976992",
"k  c #9C739B",
"l  c #94729B",
"z  c #88759F",
"x  c #A2608A",
"c  c #A9668E",
"v  c #A76D8C",
"b  c #A77F82",
"n  c #A8718D",
"m  c #AA7C8F",
"M  c #A46A92",
"N  c #AE6B92",
"B  c #B16E95",
"V  c #AE7C92",
"C  c #A57199",
"Z  c #AE7B9F",
"A  c #A17097",
"S  c #B57396",
"D  c #B27A94",
"F  c #BA759A",
"G  c #BA7B9A",
"H  c #B37198",
"J  c #B4738A",
"K  c #9A75A3",
"L  c #987AA1",
"P  c #BE7EA1",
"I  c #B57BA0",
"U  c #C17C9E",
"Y  c #C37FA1",
"T  c #80809F",
"R  c #A78084",
"E  c #B18B87",
"W  c #B28C88",
"Q  c #AC8190",
"!  c #B28394",
"~  c #B68A97",
"^  c #B98D99",
"/  c #BB939B",
"(  c #8884AC",
")  c #9282A9",
"_  c #9686AC",
"`  c #8F89B0",
"'  c #938AB0",
"]  c #9296BB",
"[  c #939ABD",
"{  c #999BBF",
"}  c #8B97AF",
"|  c #BE81A5",
" . c #BA96BF",
".. c #DC8F9F",
"X. c #C29B9F",
"o. c #C2A18F",
"O. c #C5A392",
"+. c #C8A694",
"@. c #CAA899",
"#. c #D8B99D",
"$. c #C282A6",
"%. c #CB85A5",
"&. c #C585A8",
"*. c #CB87A9",
"=. c #CC89AB",
"-. c #CE8AA7",
";. c #D38CAC",
":. c #D88FAE",
">. c #C49EA0",
",. c #DA91AF",
"<. c #DE91A0",
"1. c #DC93B1",
"2. c #E097B4",
"3. c #E49AB6",
"4. c #E79CB8",
"5. c #E99EB9",
"6. c #CBA9A4",
"7. c #C8A4A3",
"8. c #CFB0A8",
"9. c #D3B5AB",
"0. c #D6B8AC",
"q. c #DCBFB1",
"w. c #EDA2BC",
"e. c #F1A5BF",
"r. c #F5A8BF",
"t. c #DFC1A1",
"y. c #DEC2B2",
"u. c #E2C4A4",
"i. c #E7CBAA",
"p. c #E9CEAE",
"a. c #E3C7AE",
"s. c #EBD0AF",
"d. c #E2C7B5",
"f. c #E6CBB7",
"g. c #E9CEB9",
"h. c #EDD3BC",
"j. c #EED4B4",
"k. c #F3DABC",
"l. c #F1D7BA",
"z. c #F8E0BF",
"x. c #939EC2",
"c. c #BA97C0",
"v. c #BC9BC4",
"b. c #BF9FC8",
"n. c #9BA7CA",
"m. c #9AACCE",
"M. c #97A7C4",
"N. c #9DBDCD",
"B. c #99AFD0",
"V. c #9FB9D9",
"C. c #9CB3D4",
"Z. c #BFA1C9",
"A. c #A1BDDC",
"S. c #C2A4CD",
"D. c #CEB5DB",
"F. c #D0B6DD",
"G. c #D2B9DF",
"H. c #F4A7C0",
"J. c #F6A9C2",
"K. c #FBADC5",
"L. c #FEB0C7",
"P. c #FFB1C8",
"I. c #D5BDE3",
"U. c #A0C1D1",
"Y. c #A5C5E4",
"T. c #A7CAE4",
"R. c #A9CDEA",
"E. c #ACD2EE",
"W. c #ADD7F2",
"Q. c #B0DDF3",
"!. c #B5E5FE",
"~. c #F5DDC1",
"^. c #F7E0C3",
"/. c #FAE4C4",
"(. c #FFE8C7",
"). c #FFE9C8",
"_. c #D8C1E6",
"`. c #DAC3E8",
"'. c #D7C0E5",
"]. c None",
/* pixels */
"].].].].].].].].].].].].].].].].].].].].].].. . @ @ X . ].].].].].].].].].].].].].].].].].].].].].].",
"].].].].].].].].].].].].].].].].].].].].$ g 6.f.l.k.d.6.t $ ].].].].].].].].].].].].].].].].].].].].",
"].].].].].].].].].].].].].].].].].].X t d.).).).).).).).).y.t X ].].].].].].].].].].].].].].].].].].",
"].].].].].].].].].].].].].].].].].$ 8.).).).).).).).).).).).).8.= ].].].].].].].].].].].].].].].].].",
"].].].].].].].].].].].].].].].].7 h.).).).).).).).).).).).).).).h.3 ].].].].].].].].].].].].].].].].",
"].].].].].].].].].].].].].].].3 ^.).).).).).).).).).).).).).).).).^.3 ].].].].].].].].].].].].].].].",
"].].].].].].].].].].].].].].3 h.).).).^.).).).).).).).)./.).).).).).g.3 ].].].].].].].].].].].].].].",
"].].].].].].].].].].].].].- y.).).).g.V 0.).).).).).).^.! / ).).).).).y.- ].].].].].].].].].].].].].",
"].].].].].].].].].].].].X 9.).).).f.G J.*.6.(.(.).).~.! J.4.^ (.).).).(.Q . ].].].].].].].].].].].].",
"].].].].].].].].].].].  : f.).).d.G J.x -.;.6.(.)./.V w.:.3.2.~ ).).)./ 1.1 . ].].].].].].].].].].].",
"].].].].].].].].].].].O w.G q.y.G J.k Y.] -.;.>.k.V H.-.X # 1.3.! ~.^ 2.&.x.- ].].].].].].].].].].].",
"].].].].].].].].].].    6 J.G G J.j W.!.!.] =.:.v K.&.@     $ ,.e.g 4.$.x.!.B.. ].].].].].].].].].].",
"].].].].].].].].].].      w J.K.j E.!.!.!.!.] ;.K.;.X         # 2.L.G M.!.!.!.u ].].].].].].].].].].",
"].].].].].].].].].          B S Y.!.!.!.!.!.Q.z w.= . .         ; w.( !.!.!.!.V.  ].].].].].].].].].",
"].].].].].].].].].        w H.J.k R.!.!.!.!.x.=.L.Y X .       # :.P.| n.!.!.!.!.u ].].].].].].].].].",
"].].].].].].].].        1 J.P.P.J.l W.!.!.x.*.P.P.L.Y +     # ;.P.P.P.| m.!.!.R.s   ].].].].].].].].",
"].].].].].].].].; s . q L.P.P.P.P.L.j T.] :.P.P.P.P.P.;.X + 3.P.P.P.P.P.&.m.T.C K.- ].].].].].].].].",
"].].].].].].].. F L.Y J.L.P.P.P.P.P.J.j =.P.P.P.P.P.P.P.:.1.P.P.P.P.P.P.P.P M K.P.F ].].].].].].].].",
"].].].].].].].X H.L.P.P.L.P.P.P.P.P.P.P.P.P.P.P.P.P.P.P.P.P.P.P.P.P.P.P.P.P.P.P.P.H.X ].].].].].].].",
"].].].].].].].1 L.L.P.P.P.P.P.P.P.P.P.P.P.P.P.P.P.P.P.P.P.P.P.P.P.P.P.P.P.P.P.P.P.P.> ].].].].].].].",
"].].].].].].. B L.L.L.P.P.P.P.P.P.P.P.P.P.P.P.P.P.P.P.K.P.P.P.P.L.L.L.P.P.P.P.P.P.P.B   ].].].].].].",
"].].].].].].X F 1.2.3.3.4.4.4.4.4.w.4.w.w.w.w.w.e.e.w.w.w.w.4.w.w.w.4.4.4.3.3.3.2.1.F X ].].].].].].",
"].].].].].].< S.S.S.S.S.Z.Z.b.b.b.v.v.v.v.v.v.c. . .v.v.v.v.v.v.b.v.Z.Z.Z.Z.Z.S.S.S.S.< ].].].].].].",
"].].].].].].h `.`.`.`.`.`.`.`.`.`.`.`.`.`.`._.`.`.`.`.`.`.`.`.`.`.`.`.`.`.`.`._.`.`.`.h ].].].].].].",
"].].].].].  K F.D.F.F.I.G.I.I.I.I._.I._._._._.`.`.`._._.`._._._.`._._.'.I.I.G.G.G.F.D.K   ].].].].].",
"].].].].].  H :.;.=.=.=.=.&.&.$.$.&.$.$.$.| | | | | | | $.| | $.| $.| &.&.&.=.=.=.=.;.N   ].].].].].",
"].].].].].. 3.P.P.P.P.P.L.P.P.P.P.P.P.P.P.P.P.P.P.P.P.P.P.P.P.P.P.P.P.P.P.P.P.P.P.P.P.3.  ].].].].].",
"].].].].].+ 5.P.P.P.P.P.L.P.P.P.P.P.P.P.P.P.L.L.P.P.P.P.P.P.P.P.P.P.P.P.P.P.P.P.P.P.P.3.X ].].].].].",
"].].].].].= H.L.P.P.P.P.P.P.L.L.P.P.P.P.P.P.P.L.J.P.P.P.P.P.P.P.P.P.P.P.P.P.P.P.P.P.J.5.# ].].].].].",
"].].].].].* j J.P.P.P.P.P.P.Y d P.P.P.P.P.L.L.P p 3.P.P.P.P.P.P.w.0 w.P.P.P.P.P.P.w.h j $ ].].].].].",
"].].].].].& C.K J.P.P.L.P.F X X d K.P.P.P.L.| m.!.` 1.P.P.P.P.4.:   : 1.P.P.P.P.1.) !.[ X ].].].].].",
"].].].].].@ R.R.C J.P.L.*.X       j L.P.P.P m.!.!.!._ 1.P.P.4.1     . : 3.P.P.3.) !.Q.M.o ].].].].].",
"].].].].].  V.!.E.k J.%.X           d J.Y B.!.!.!.!.!.' 3.e.:           = H.4.L !.!.T.} . ].].].].].",
"].].].].].  x.!.!.( 1.>             # ,.f !.!.!.!.!.!.Y.M U X             F M A.!.!.U.T   ].].].].].",
"].].].].].].a !.` 1.P.J.0       . $ 2.P.e.l W.!.!.!.A.Z K.P.B X       X c P.P.! m.N.N.7 ].].].].].].",
"].].].].].].8 [ ;.w.G K.H.>     = ,.J.$.w.w._ W.!.A.Z r.%.2.K.B X     c K.2.%.r.g } N.8 ].].].].].].",
"].].].].].].X N J.D 9.G K.5.1 + 1.P.G 9.m r.4.z Y.C K.;.6.^ 1.P.c   c K.3.~ 6.J ..t T @ ].].].].].].",
"].].].].].].].0 Q /.).h.v K.H.4.K.n l.).).m w.e.B K.G 9.).).X.;.P.2.P.,.^ /.u.o.t <., ].].].].].].].",
"].].].].].].].X ^.).).).~.D J.L.n h.).).).^.~ 4.K.S q.(.).).(.6.%.P.;.X.k.u.t.t.o.e O ].].].].].].].",
"].].].].].].].  R k.(.(.(.g.D D ~.).).).).).z.^ S d.(.).).).).).8.B X.s.t.t.t.t.t.y ].].].].].].].].",
"].].].].].].].].O @.p.z.).).^.~.).).).).).).).).h.).).).).).).)./.a.u.t.t.t.u.u.+.O ].].].].].].].].",
"].].].].].].].].].9 t.t.i.^.).).).).).).).).).).).).).).).).(.j.u.t.t.t.t.t.t.#.9 ].].].].].].].].].",
"].].].].].].].].].. y t.t.t.u.s.k.z.).).).(.).(.).).z.z.j.i.t.t.t.t.t.t.t.t.u.y   ].].].].].].].].].",
"].].].].].].].].].].o W t.t.t.t.t.u.u.i.s.s.s.s.i.u.u.t.t.t.t.t.t.t.t.t.t.t.E o ].].].].].].].].].].",
"].].].].].].].].].].].O W t.t.t.t.t.t.t.t.t.t.t.t.t.t.t.t.t.t.t.t.t.t.t.u.E o ].].].].].].].].].].].",
"].].].].].].].].].].].].. R #.t.t.t.t.t.t.t.t.t.t.t.t.t.t.t.t.t.t.t.u.#.b   ].].].].].].].].].].].].",
"].].].].].].].].].].].].].. 4 O.t.t.t.t.t.t.u.t.t.t.t.t.t.t.t.t.t.t.+.4 X ].].].].].].].].].].].].].",
"].].].].].].].].].].].].].].].X r O.t.t.t.t.t.t.t.t.t.t.t.t.t.t.O.r X ].].].].].].].].].].].].].].].",
"].].].].].].].].].].].].].].].].].+ 9 R O.#.t.t.t.t.t.t.#.+.b 9 O ].].].].].].].].].].].].].].].].].",
"].].].].].].].].].].].].].].].].].].].. X @ % 2 9 9 4 % + . . ].].].].].].].].].].].].].].].].].].]."
};
