/* XPM */
static char *result[] = {
/* columns rows colors chars-per-pixel */
"50 50 40 1 ",
"  c #9B76B1",
". c #9E7AB5",
"X c #A37DB6",
"o c #A47EBB",
"O c #A583BC",
"+ c #AA85BE",
"@ c #AA89BF",
"# c #A784C1",
"$ c #AB86C2",
"% c #AD8BC4",
"& c #AE8DC8",
"* c #B18DC6",
"= c #B28ECA",
"- c #AF90C6",
"; c #AF90CA",
": c #B291C6",
"> c #B894C6",
", c #B593CB",
"< c #B995CE",
"1 c #B799CD",
"2 c #BA9ACE",
"3 c #B694D1",
"4 c #BB96D1",
"5 c #B798D1",
"6 c #BC9BD3",
"7 c #BF9CD8",
"8 c #BEA2CE",
"9 c #BEA1D4",
"0 c #BFA1D8",
"q c #C19DCF",
"w c #C19DD5",
"e c #C29ED9",
"r c #C2A2D5",
"t c #C5A9D6",
"y c #C3A4DA",
"u c #C8A7DB",
"i c #C6A9DB",
"p c #C9ABDC",
"a c #CCB1DD",
"s c #CBACE1",
/* pixels */
"6ry7%,:<ws43<35i7&=6y<%6432;1-60ypp0555r6X +@yuywr",
"26wy6w<<eue7349r,=,7e,=46r068190iasi59y56*$*<uur97",
"2uwrw::<==3ee<72*$,www6wiuuyi9899yu65-62=><wwwwwyr",
">266w,+$$$$$%#O&*++=<4466r7,2158969,%-75<@w<=34=:1",
"22r6ww<q=$w$$=ww*44we<<w,25,219rrr><==<===wo$==w,2",
">qr5:2wwee=wew==$ee=<<,w,,619trurq>=4<=*$$=. $oo%,",
"99uy64w4w==w73$====%=*=4,<,9p822w<<==$*,=ww=$o=oO@",
"2rw43=34w$ww3$$=4w5<<=,=**1rt16*=43=$+=4q3=eww=$+X",
"2ru5=3343=4eq==w<566,=$$$$%w4&=$**$+++<<=*=4y4$<@+",
"&:<433=44444==$==%<<%44$$3**%$&$#O$%%#,*$*<4yw>q*>",
"rww,%$=3,34=*$$=*$<<$=$$=4=%=$#o%,,,1,-:==w44=,**@",
"ry44<43&$=$4w$$=<==*$+#$$$*<<=$=&=,1*2&-=**43$=>*>",
"yy4w3=$$$$$<<====$##*==*&,,:=*@><<%%%,<,*==<$=<wyw",
"ywy4=3$<<<=344=w=****,*=26,@*:>222%>465,*$$=*w2qrq",
"96w<=&7wwwq<4*<==3q=<6<61:OO->82<,,<6rr<,>=<<<r2qq",
"ru26$7e4wew<*=<<wq4w42<2,@,-122ry><=wut2ww<<>*1w<w",
"9r7733*47y73,*,6we64ww=<,,<<=,,=,==*<tt9tqr6,**,rt",
"t;56,44<275=*,6ruy6,,,2<rwww4>%%,>++=222r56<6,&1yu",
"115,&==4164346y599,$*=54<64462%%:,:%>qr9>,<w<=,<yu",
":1334=&,<=,,5,,=675;*%%1<14w62%%:%%,@,www=*,>>:=26",
",1r53=64446<62w<,,,,<<11,,<w162:-@-,6>**6<>wq>%:<r",
":-713$3ee<rwurw63&=344w71,=126r2%O-,w,,==<>qw>,,66",
":%,re,=yy154uyw=4<*=,665<6:,tpr,%O@2y<<**$+*>=,,,1",
"@:,yy9597<,1,4*=w644,*$12y219air-+%&*6>oo+*$$*,629",
"%65usar97654,=*%6126**>y5w,=5upu=+XOO+*=#&=#%%6u99",
",6eru65iu6w645,&&$>t6>66,$*#*6r2,6OO*O*,&$1679r655",
"16r6ri9115uww<r<&=1692,#**2,%%&:=>+=:X=:%-5y62,1,,",
"6579yiy9<reew2r,&=,28tr&#*,,%,,,,2qt,+<<%%&<662:26",
"363u556u0913,353&%%,ptu6&,16=4w6<6t6&+,4%##%*=<172",
",5311166y5=%%&&=1=,5pr993,0934<%,w6,@#*5;11O+,5<r2",
"1159y16976*$*=$44246t154509656<,*,=,,:#%,756w==%*,",
"9067rt9ru04*$*=&*:1125,,=3,,29w6=*=,w,O@-395eww*,2",
"yy9,wee=weew$w==;199162;%$$$,664<<w=66%OO,<,w<4==6",
"11,0w333w==$==$w%;96u966%3;$$***<4,=66:,*:=*=q<w62",
"56077w3==3==43ww%$19910516;#+%===,,<97<,2<<=*<=wuy",
",,3673===ww$==ew1;;5199110,1,=+*,<,<52:<2,>==<<,66",
",;44733=46,13=6w6,-,2r9,;&==**:@*,<ew==>><<4w95<:,",
"5,,4==3&&%56ww7sy521,,166::=@:,,O%>,>*+=<,w=<5wr9,",
":%&3=3=&&%;5519uy966%-,w6,2<62,<<=O+$*>>*$**%2rurt",
",,16e3*3;;;&&;996y9,-,2y1,6wrr122,*O$=<=>o+o$4>rut",
"5156=4#=;3&%11,11714,wer4&:=298,--%;,<,*<=q$o==w2r",
"553,16===&*166%%,51,<q3=3*%=1909,O%8r:++,,<<*$o*,,",
"9pr====$$*%&%O19y61,wq*$=&&1,-,1-%19r1@%qw>=**>$**",
"9iy4&&=<33=,111&17,,<=<=*1219,:&1->2161-==*==*>*@+",
"yt963,5w69yyi0-%,5,14<==4%y6y5=%-,r91:,%$=o$=***,<",
"901ysr2wy09990116911<3<,<<<44*+%:1r9t;--$=$$$<4<62",
"1:2u59764566769,3,<*=3,,<,,*<w2-:,r9u6,**$$#O*,wr2",
",5y61&:w*5y5969-=&=**<43=&%=<6>,,,*6y,-,*oo#+O-72r",
"19tr280,%;111-,:@**O%;&%%19981,-,qr:,::::O@::>:t-1",
"9ratt96;35718OO;%1,%OO&::>t80,%%=,711>*@2@@8tt8-@-"
};
