/* XPM */
static char *result[] = {
/* columns rows colors chars-per-pixel */
"50 50 116 2 ",
"   c black",
".  c #030307",
"X  c #040304",
"o  c #0A0607",
"O  c #020309",
"+  c #070709",
"@  c #03050C",
"#  c #03060E",
"$  c #060809",
"%  c #070B0D",
"&  c #090A0C",
"*  c #0D080D",
"=  c #11090B",
"-  c #10090D",
";  c #120A0D",
":  c #140B0D",
">  c #080C10",
",  c #0A0D10",
"<  c #0C0E10",
"1  c #080F17",
"2  c #060918",
"3  c #070B1D",
"4  c #180614",
"5  c #150C11",
"6  c #160D16",
"7  c #180E14",
"8  c #1B0F1A",
"9  c #0B1113",
"0  c #0D1112",
"q  c #0E1213",
"w  c #081115",
"e  c #0A1015",
"r  c #0B1317",
"t  c #051B1A",
"y  c #051F1E",
"u  c #101416",
"i  c #1E1114",
"p  c #1F1216",
"a  c #1F121E",
"s  c #13191B",
"d  c #111A1E",
"f  c #141C1F",
"g  c #23091D",
"h  c #21131A",
"j  c #21141B",
"k  c #21131E",
"l  c #22131E",
"z  c #23141C",
"x  c #21171F",
"c  c #24141F",
"v  c #26151F",
"b  c #080D21",
"n  c #0A112B",
"m  c #141F23",
"M  c #12122F",
"N  c #1B1234",
"B  c #280A22",
"V  c #231421",
"C  c #251521",
"Z  c #281727",
"A  c #2D1923",
"S  c #2B1825",
"D  c #2E1A26",
"F  c #2F1B28",
"G  c #2E1A2A",
"H  c #301B2B",
"J  c #331D2C",
"K  c #390F37",
"L  c #231338",
"P  c #27143A",
"I  c #2A1238",
"U  c #2B143D",
"Y  c #2F163F",
"T  c #3D1033",
"R  c #152127",
"E  c #16272E",
"W  c #132730",
"Q  c #142831",
"!  c #172A32",
"~  c #182C36",
"^  c #182F3A",
"/  c #063A38",
"(  c #0C383A",
")  c #0A3C3C",
"_  c #19323E",
"`  c #39202F",
"'  c #431139",
"]  c #412433",
"[  c #341441",
"{  c #3C1546",
"}  c #153A42",
"|  c #133E45",
" . c #491340",
".. c #4E1547",
"X. c #44164A",
"o. c #4D164F",
"O. c #511544",
"+. c #5E184F",
"@. c #551753",
"#. c #591855",
"$. c #5D1957",
"%. c #611A59",
"&. c #651B5B",
"*. c #6C1C5B",
"=. c #691B5E",
"-. c #6D1C60",
";. c #711D62",
":. c #751E64",
">. c #791F66",
",. c #074D49",
"<. c #0D4A4B",
"1. c #0B4E4E",
"2. c #075652",
"3. c #4C5C4C",
"4. c #B2B068",
"5. c None",
/* pixels */
"5.5.5.5.5.5.5.5.5.5.5.5.5.5.5.5.5.5.5.5.5.5.5.B B 4 5.5.5.5.5.5.5.5.5.5.5.5.5.5.5.5.5.5.5.5.5.5.5.5.",
"5.5.5.5.5.5.5.5.5.5.5.5.5.5.5.5.5.5.5.5.5.g B >.>.' B 5.5.5.5.5.5.5.5.5.5.5.5.5.5.5.5.5.5.5.5.5.5.5.",
"5.5.5.5.5.5.5.5.5.5.5.5.5.5.5.5.5.5.5.g O.*.>.+.' >.>.O.T 5.5.5.5.5.5.5.5.5.5.5.5.5.5.5.5.5.5.5.5.5.",
"5.5.5.5.5.5.5.5.5.5.5.5.5.5.5.5.5.5.  +.>.>.>.O.B >.=.%.*.T 5.5.5.5.5.5.5.5.5.5.5.5.5.5.5.5.5.5.5.5.",
"5.5.5.5.5.5.5.5.5.5.5.5.5.5.5.5.5.  >.>.%.-.>.O.B >.>.@.%.>.B 5.5.5.5.5.5.5.5.5.5.5.5.5.5.5.5.5.5.5.",
"5.5.5.5.5.5.5.5.5.5.5.5.5.5.5.5.g +.>.&.@.-.>. .B >.>.@.@.$.:.B 5.5.5.5.5.5.5.5.5.5.5.5.5.5.5.5.5.5.",
"5.5.5.5.5.5.5.5.5.5.5.5.5.5.5.5.O.>.-.@.@.-.-.K B >.>.@.@.@.&.>.g 5.5.5.5.5.5.5.5.5.5.5.5.5.5.5.5.5.",
"5.5.5.5.5.5.5.5.5.5.5.5.5.5.5.g *.=.@.@.@.-.@.I ..>.>.@.@.@.@.>.*.T 5.5.5.5.5.5.5.5.5.5.5.5.5.5.5.5.",
"5.5.5.5.5.5.5.5.5.5.5.5.5.5.5.B =.#.@.@.@.-.@.L #.;.>.@.@.@.@.%.>.O.5.5.5.5.5.5.5.5.5.5.5.5.5.5.5.5.",
"5.5.5.5.5.5.5.5.5.5.5.5.5.5.B >.%.@.@.@.@.-.@.L @.-.%.@.@.@.@.@.>.>.B 5.5.5.5.5.5.5.5.5.5.5.5.5.5.5.",
"5.5.5.5.5.5.5.5.5.5.5.5.5.5.' -.@.@.@.@.@.@.@.L @.&.$.@.@.@.@.@.%.>.' 4 5.5.5.5.5.5.5.5.5.5.5.5.5.5.",
"5.5.5.5.5.5.5.5.5.5.5.5.5.  >.-.@.@.@.@.@.@.@.L @.@.@.@.@.@.@.@.#.=.>.B 5.5.5.5.5.5.5.5.5.5.5.5.5.5.",
"5.5.5.5.5.5.5.5.5.5.5.5.5.  ;.$.@.@.@.@.@.@.@.L @.@.@.@.@.@.@.@.@.%.>.B 5.5.5.5.5.5.5.5.5.5.5.5.5.5.",
"5.5.5.5.5.5.5.5.5.5.5.5.  >.-.@.@.@.@.@.@.@.@.L @.@.@.@.@.@.@.@.@.@.-.>.  5.5.5.5.5.5.5.5.5.5.5.5.5.",
"5.5.5.5.5.5.5.5.5.5.5.5.  >.&.@.@.@.@.@.@.@.@.L @.@.@.@.@.@.@.@.@.@.-.>.  5.5.5.5.5.5.5.5.5.5.5.5.5.",
"5.5.5.5.5.5.5.5.5.5.5.5.g >.@.@.@.@.@.@.@.@.@.L #.#.@.@.@.@.@.@.@.@.&.:.  5.5.5.5.5.5.5.5.5.5.5.5.5.",
"5.5.5.5.5.5.5.5.5.5.5.  O.>.@.@.@.@.@.@.@.@.L L %.%.@.@.@.@.@.@.@.@.@.-.  5.5.5.5.5.5.5.5.5.5.5.5.5.",
"5.5.5.5.5.5.5.5.5.5.5.  O.>.@.@.@.@.@.@.@.@.n L %.%.@.@.@.@.@.@.@.@.@.-.  5.5.5.5.5.5.5.5.5.5.5.5.5.",
"5.5.5.5.5.5.5.5.5.5.5.  O.@.@.@.@.@.@.@.@.L n L %.%.@.@.@.@.@.@.@.@.@.L   5.5.5.5.5.5.5.5.5.5.5.5.5.",
"5.5.5.5.5.5.5.5.5.5.5.  O.%.@.@.@.@.@.@.@.L n P =.%.@.@.@.@.@.@.@.@.@.L   5.5.5.5.5.5.5.5.5.5.5.5.5.",
"5.5.5.5.5.5.5.5.5.5.5.  O.>.@.@.@.@.@.@.@.L n Y >.%.@.@.@.@.@.@.@.@.[ M   5.5.5.5.5.5.5.5.5.5.5.5.5.",
"5.5.5.5.5.5.5.5.5.5.5.5.g >.@.@.@.@.@.@.[ M n Y ;.#.@.@.@.@.@.@.@.@.L 2 5.5.5.5.5.5.5.5.5.5.5.5.5.5.",
"5.5.5.5.5.5.5.5.5.5.5.5.  >.@.@.@.@.@.@.L n n %.-.@.@.@.@.@.@.@.@.{ n # 5.5.5.5.5.5.5.5.5.5.5.5.5.5.",
"5.5.5.5.5.5.5.5.5.5.5.5.5.O.X.@.@.@.@.@.L n n ..-.@.@.@.@.@.@.@.U n b @ 5.5.5.5.5.5.5.5.5.5.5.5.5.5.",
"5.5.5.5.5.5.5.5.5.5.5.5.5.  N X.@.@.@.o.N n n B -.@.@.@.@.@.@.{ n n # 5.5.5.5.5.5.5.5.5.5.5.5.5.5.5.",
"5.5.5.5.5.5.5.5.5.5.5.5.5.5.2 M X.@.@.N n n n B -.@.@.@.@.X.L n n b O 5.5.5.5.5.5.5.5.5.5.5.5.5.5.5.",
"5.5.5.5.5.5.5.5.5.5.5.5.5.5.. 2 N L L n n n n B -.@.@.L L N n n b @ 5.5.5.5.5.5.5.5.5.5.5.5.5.5.5.5.",
"5.5.5.5.5.5.5.5.5.5.5.5.5.X s 0   3 n n n n   n n n n n n n n n   5.5.5.5.5.5.5.5.5.5.5.5.5.5.5.5.5.",
"5.5.5.5.5.5.5.5.5.5.5.5.t <._ ~ R 9 $ $ $ $ $ 3 3 3 3 3 3 3 1 w Q e 5.5.5.5.5.5.5.5.5.5.5.5.5.5.5.5.",
"5.5.5.5.5.5.5.5.5.5.5.t ) _ _ _ _ E R R R f s $ $ $ $ $ $ % W _ _ Q > 5.5.5.5.5.5.5.5.5.5.5.5.5.5.5.",
"5.5.5.5.5.5.5.5.5.5.5./ | _ _ _ _ _ _ _ _ ~ ! ! ! m s ! ! ~ _ _ _ _ r 5.5.5.5.5.5.5.5.5.5.5.5.5.5.5.",
"5.5.5.5.5.5.5.5.5.5.y | _ _ _ _ _ _ _ _ _ _ _ _ _ _ _ _ _ _ _ _ _ _ _ r 5.5.5.5.5.5.5.5.5.5.5.5.5.5.",
"5.5.5.5.5.5.5.5.5.5.y | _ _ _ _ _ _ _ _ _ _ _ _ _ _ _ _ _ _ _ _ _ _ _ r 5.5.5.5.5.5.5.5.5.5.5.5.5.5.",
"5.5.5.5.5.5.5.5.5.5.y | _ _ _ _ _ 3._ _ _ _ _ _ _ _ _ _ _ _ 3._ _ _ _ r 5.5.5.5.5.5.5.5.5.5.5.5.5.5.",
"5.5.5.5.5.5.5.5.5.5.y | _ _ _ _ _ 4._ _ _ _ _ _ _ _ _ _ _ _ 4._ _ _ _ r 5.5.5.5.5.5.5.5.5.5.5.5.5.5.",
"5.5.5.5.5.5.5.5.5.5.y | _ _ _ _ _ 3._ _ _ _ _ _ _ _ _ _ _ _ 3._ _ _ E , 5.5.5.5.5.5.5.5.5.5.5.5.5.5.",
"5.5.5.5.5.5.5.5.5.5.y | _ _ _ _ _ _ _ _ _ _ _ _ _ _ _ _ _ _ _ _ _ _ R & 5.5.5.5.5.5.5.5.5.5.5.5.5.5.",
"5.5.5.5.5.5.5.5.5.5.t ,.| _ _ _ _ _ _ _ _ _ _ _ _ _ _ _ _ _ _ _ _ ! & 5.5.5.5.5.5.5.5.5.5.5.5.5.5.5.",
"5.5.5.5.5.5.5.5.5.5.5./ | _ _ _ _ _ _ _ _ _ _ _ _ _ _ _ _ _ _ _ _ ! & 5.5.5.5.5.5.5.5.5.5.5.5.5.5.5.",
"5.5.5.5.5.5.5.5.5.5.5.t ) _ _ _ _ _ _ _ _ _ _ _ _ _ _ _ _ _ _ _ ~ d + 5.5.5.5.5.5.5.5.5.5.5.5.5.5.5.",
"5.5.5.5.5.5.5.5.5.5.5.X / 2._ _ _ _ _ _ _ _ _ _ _ _ _ _ _ _ _ _ s q 5.5.5.5.5.5.5.5.5.5.5.5.5.5.5.5.",
"5.5.5.5.5.5.5.5.5.5.5.5.5./ 1.} _ _ _ _ _ _ _ _ _ _ _ _ ! ! m s < 5.5.5.5.5.5.5.5.5.5.5.5.5.5.5.5.5.",
"5.5.5.5.5.5.5.5.5.5.5.5.5.X / ( _ _ _ _ _ _ _ _ ^ ! ! ! s s u q 5.5.5.5.5.5.5.5.5.5.5.5.5.5.5.5.5.5.",
"5.5.5.5.5.5.5.5.5.5.5.5.5.A A x r r R R R R R R m s s s & & j A 5.5.5.5.5.5.5.5.5.5.5.5.5.5.5.5.5.5.",
"5.5.5.5.5.5.5.5.5.5.5.5.X ] H F A A & & & & & & & & & & l A F ] z 5.5.5.5.5.5.5.5.5.5.5.5.5.5.5.5.5.",
"5.5.5.5.5.5.5.5.5.5.5.5.X ] Z Z Z Z Z 8 : i i : * Z ` ]   * Z Z A X 5.5.5.5.5.5.5.5.5.5.5.5.5.5.5.5.",
"5.5.5.5.5.5.5.5.5.5.5.5.5.A V G Z 6 8 = i i i i : 8 Z Z ` v 8 H z 5.5.5.5.5.5.5.5.5.5.5.5.5.5.5.5.5.",
"5.5.5.5.5.5.5.5.5.5.5.5.5.X 5 S Z Z   i i i : : ; a Z C k 6 a ] X 5.5.5.5.5.5.5.5.5.5.5.5.5.5.5.5.5.",
"5.5.5.5.5.5.5.5.5.5.5.5.5.5.5 S Z Z   o o o : 8 a c h i - a J 7 5.5.5.5.5.5.5.5.5.5.5.5.5.5.5.5.5.5.",
"5.5.5.5.5.5.5.5.5.5.5.5.5.X D G Z 6 8 8 8 8 C h h p i o a Z G A 5.5.5.5.5.5.5.5.5.5.5.5.5.5.5.5.5.5."
};
