/* XPM */
static char *result[] = {
/* columns rows colors chars-per-pixel */
"50 50 181 2 ",
"   c black",
".  c #040304",
"X  c #070404",
"o  c #0A0607",
"O  c #020309",
"+  c #02040A",
"@  c #070709",
"#  c #03050C",
"$  c #03060E",
"%  c #090309",
"&  c #0D030B",
"*  c #060809",
"=  c #07090A",
"-  c #0D0809",
";  c #090A0C",
":  c #0D080D",
">  c #0B0E0F",
",  c #11090B",
"<  c #10090D",
"1  c #10090F",
"2  c #140B0D",
"3  c #0C0613",
"4  c #060910",
"5  c #040813",
"6  c #050916",
"7  c #070A16",
"8  c #080E11",
"9  c #0C0E10",
"0  c #0C0F11",
"q  c #060918",
"w  c #070B1D",
"e  c #0E0A1C",
"r  c #110511",
"t  c #170613",
"y  c #140717",
"u  c #180614",
"i  c #100A10",
"p  c #130B10",
"a  c #170D10",
"s  c #160C11",
"d  c #160D12",
"f  c #150C14",
"g  c #160D16",
"h  c #190E11",
"j  c #180E14",
"k  c #190E17",
"l  c #1B0F16",
"z  c #120B1E",
"x  c #1B0F1A",
"c  c #1C081C",
"v  c #051515",
"b  c #0D1112",
"n  c #0E1213",
"m  c #0E161A",
"M  c #051B1A",
"N  c #051F1E",
"B  c #101416",
"V  c #1E1114",
"C  c #1E1115",
"Z  c #111718",
"A  c #1B101B",
"S  c #1F121E",
"D  c #13191B",
"F  c #10191D",
"G  c #141C1F",
"H  c #23091D",
"J  c #20091E",
"K  c #201218",
"L  c #21131A",
"P  c #21141B",
"I  c #20121F",
"U  c #22131E",
"Y  c #23141C",
"T  c #24141F",
"R  c #080D21",
"E  c #090F26",
"W  c #100E26",
"Q  c #170D26",
"!  c #1D0B20",
"~  c #1E0D25",
"^  c #180F2A",
"/  c #0A112B",
"(  c #141F23",
")  c #12122F",
"_  c #1B1234",
"`  c #280A22",
"'  c #270D29",
"]  c #210F2F",
"[  c #280E2E",
"{  c #2F0D2E",
"}  c #360E2D",
"|  c #211320",
" . c #231422",
".. c #241423",
"X. c #261623",
"o. c #201224",
"O. c #281727",
"+. c #2D1923",
"@. c #2D1925",
"#. c #2C1929",
"$. c #2F1A29",
"%. c #2E1A2A",
"&. c #301B2B",
"*. c #331D2C",
"=. c #370F32",
"-. c #390F37",
";. c #231338",
":. c #27143A",
">. c #2A1238",
",. c #2B143D",
"<. c #2F163F",
"1. c #371032",
"2. c #3D1033",
"3. c #3F1037",
"4. c #32143C",
"5. c #3A113C",
"6. c #062D2B",
"7. c #152127",
"8. c #142128",
"9. c #16242B",
"0. c #16272E",
"q. c #06312F",
"w. c #132730",
"e. c #172A32",
"r. c #162C37",
"t. c #182C36",
"y. c #182F3A",
"u. c #19323E",
"i. c #39202F",
"p. c #431139",
"a. c #412433",
"s. c #331541",
"d. c #341441",
"f. c #3B1341",
"g. c #381543",
"h. c #3C1546",
"j. c #173640",
"k. c #133E45",
"l. c #421241",
"z. c #461343",
"x. c #491340",
"c. c #4A1445",
"v. c #4E1547",
"b. c #401748",
"n. c #44164A",
"m. c #4C174E",
"M. c #4D164F",
"N. c #44184A",
"B. c #4C194E",
"V. c #511544",
"C. c #521549",
"Z. c #521749",
"A. c #56164B",
"S. c #5E184F",
"D. c #551753",
"F. c #551853",
"G. c #541A52",
"H. c #5C1852",
"J. c #591855",
"K. c #5D1957",
"L. c #5D1A57",
"P. c #611A59",
"I. c #651B5B",
"U. c #601C59",
"Y. c #6C1C5B",
"T. c #691B5E",
"R. c #6D1D5F",
"E. c #6D1C60",
"W. c #711D62",
"Q. c #751E64",
"!. c #791F66",
"~. c #0F4649",
"^. c #074D49",
"/. c #0D4A4B",
"(. c #114247",
"). c #095250",
"_. c #4C5C4C",
"`. c #667153",
"'. c #7F865A",
"]. c #B2B068",
"[. c None",
/* pixels */
"[.[.[.[.[.[.[.[.[.[.[.[.[.[.[.[.[.[.[.[.[.[.[.[.[.[.t [.[.[.[.[.[.[.[.[.[.[.[.[.[.[.[.[.[.[.[.[.[.[.",
"[.[.[.[.[.[.[.[.[.[.[.[.[.[.[.[.[.[.[.[.[.[.[.[.[.  V.  [.[.[.[.[.[.[.[.[.[.[.[.[.[.[.[.[.[.[.[.[.[.",
"[.[.[.[.[.[.[.[.[.[.[.[.[.[.[.[.[.[.[.[.[.[.[.[.[.  V.c [.[.[.[.[.[.[.[.[.[.[.[.[.[.[.[.[.[.[.[.[.[.",
"[.[.[.[.[.[.[.[.[.[.[.[.[.[.[.[.[.[.[.[.[.[.[.[.[.  V.D.  [.[.[.[.[.[.[.[.[.[.[.[.[.[.[.[.[.[.[.[.[.",
"[.[.[.[.[.[.[.[.[.[.[.[.[.[.[.[.[.[.[.[.[.[.[.[.[.2.H.D.  [.[.[.[.[.[.[.[.[.[.[.[.[.[.[.[.[.[.[.[.[.",
"[.[.[.[.[.[.[.[.[.[.[.[.[.[.[.[.[.[.[.[.[.[.[.[.[.V.P.D.w   [.[.[.[.[.[.[.[.[.[.[.[.[.[.[.[.[.[.[.[.",
"[.[.[.[.[.[.[.[.[.[.[.[.[.[.[.[.[.[.[.[.[.[.[.[.` P.D.D.w   [.[.[.[.[.[.[.[.[.[.[.[.[.[.[.[.[.[.[.[.",
"[.[.[.[.[.[.[.[.[.[.[.[.[.[.[.[.[.    [.[.[.[.u 3.K.D.D.w   [.[.[.[.[.[.[.[.[.[.[.[.[.[.[.[.[.[.[.[.",
"[.[.[.[.[.[.[.[.[.[.[.[.[.[.[.[.  }   [.[.[.[.` E.D.D.D.w   [.[.[.[.[.[.[.[.[.[.[.[.[.[.[.[.[.[.[.[.",
"[.[.[.[.[.[.[.[.[.[.[.[.[.[.[.[.  H.2.[.[.[.  A.K.D.D.;.w   [.[.[.[.  [.[.[.[.[.[.[.[.[.[.[.[.[.[.[.",
"[.[.[.[.[.[.[.[.[.[.[.[.[.[.[.[.  P.V.[.[.[.V.E.D.D.D./ w   [.[.    V.2.[.[.[.[.H 2.[.[.[.[.[.[.[.[.",
"[.[.[.[.[.[.[.[.[.[.[.[.[.[.[.[.  D.P.` [.  !.D.D.D.D./ w     V.!.!.h.w       [.` V.[.[.[.[.[.[.[.[.",
"[.[.[.[.[.[.% J u [.[.[.[.[.[.  / D.K.Q.p.p.!.D.D.D.;./ ` !.Q.E.m.<.` 3.E.m.w 3.I.-.[.[.[.[.[.[.[.[.",
"[.[.[.[.[.[.c K.3.u [.[.[.[.[.  / D.D.I.Q.p.G.D.D.D.;.w p.Q.L.F.b.!.E.I.n.^ ` I.M.[ [.[.[.[.[.[.[.[.",
"[.[.[.[.[.[.r { K.A.V.  [.[.[.  / d.D.D.K.W.G.d.D.D.;.  W.m.s.R.T.P.n.] 3 1.P.D.h.w [.[.[.[.[.[.[.[.",
"[.[.[.[.[.[.[.3 n.K.P.V.2.    2.$ ;.D.D.D.K.!.N.d.d.e V.m.s.U.T.J.D.^ ! V.H.D.D.h.w [.[.[.[.[.[.[.[.",
"[.[.[.[.[.[.[.[.w h.D.D.P.!.!.!.  / ;.D.D.D.D.G.;.;.G.!.<.!.E.D.D./ ` E.D.D.D.h.w   [.  [.[.[.[.[.[.",
"[.[.[.[.[.[.[.[.[.6 E h.-.-.-.x.V.+ R ,.h.M.D.W.G./ G.h.N.I.D.n.^ ` I.D.D.n.h./ R # H z.  [.[.[.[.[.",
"[.[.[.[.[.[.[.[.[.  5 w ` ` ` ` ` ` ! w w >.h.K.B./ G.<.E.D.M.^ ! E.D.M.h._ / E w z A.c.  [.[.[.[.[.",
"[.[.[.[.[.[.[.  2.V.V.V.P.P.P.P.!.!.Y.V.V.! $ d.h./ G.!.K.n.^ 1.H.;.;.^ $ $ $ ! V.A.g.3 [.[.[.[.[.[.",
"[.[.[.[.[.[.H V.} ` ` ` c c c ] P.P.T.!.!.S.V.e _ / G.!.n.,.f.4.:.$ $ ! V.V.V.A.P.m.e O [.[.[.[.[.[.",
"[.[.[.[.[.  p.` p.V.V.V.V.V.V.! c d.J.P.W.!.!.1.q / G.P._ W c 3 $ V.V.A.P.P.P.K.n.^ O [.[.[.[.[.[.[.",
"[.[.[.[.[.    ` `       D.D.D.D.D.  $ h.D.D.!.!.V.w G./   ` !.!.!.D.D.D.D.D.D./ w     [.[.[.[.[.[.[.",
"[.[.[.[.[.[.3.C.l.D.D.D.$ $ q w h.D.l.W ,.M.E.!.!.p.p.` !.Q.E.K.D.D.M.h._ R w c =.E.E.3.` [.[.[.[.[.",
"[.[.[.[.[.` I.D.D.n.h.h./ / q $ w n.D.d.) h.D.W.!.S.} !.Q.I.D.D.D.h.,.E w 5 $ h.n.D.D.I.E.` H [.[.[.",
"[.[.[.[.  !.D.n.;.e $ $ $ q / / w e ;.n.n.M.D.P.!.` V.!.K.D.n.;.;./ $ 5 w E / / ) ;.;.n.D.P.H.H [.[.",
"[.[.[.[.2.P.] y $ O [.[.[.O $ $ / q q _ ;.n.D.J.v.p.Y.P.n.;._ q $ $ V.Z.~ $ / / / R $ y c c J & [.[.",
"[.[.[.  V.    [.[.[.[.[.[.[.n D         w / / w       / / w   w / / D.D.E.!.  w     [.[.[.[.[.[.[.[.",
"[.[.[.[.  [.[.[.[.[.[.[.@ 0 D D D D D D > * w ' E.E.E.` ` ! R R w w w Q -.f.E.H [.[.[.[.[.[.[.[.[.[.",
"[.[.[.[.[.[.[.[.[.[.[.[.; D D D 7.7.7.7.7.G * Q 5.M.D.E.E.A.! 4 * * * * * 7 -.}   [.[.[.[.[.[.[.[.[.",
"[.[.[.[.[.[.[.[.[.[.[.[.0 D ( 7.u.u.u.u.u.0.7.8 4 [ f.D.D.P.V.m G D D D D =     [.[.[.[.[.[.[.[.[.[.",
"[.[.[.[.[.[.[.[.[.[.[.. D ( y.u.u.u.u.u.u.u.u.y.8.b 4 c K.A.o.r.t.D D D D ; [.[.[.[.[.[.[.[.[.[.[.[.",
"[.[.[.[.[.[.[.[.[.[.[.. ( t.u.u.u.u.u.u.u.u.u.u.y.e.F b J o.w.u.u.D D D D ; [.[.[.[.[.[.[.[.[.[.[.[.",
"[.[.[.[.[.[.[.[.[.[.[.. /.u.u.u.u.u.`.`.u.u.u.u.u.u.u.D u.u.u.u.].D D D D ; [.[.[.[.[.[.[.[.[.[.[.[.",
"[.[.[.[.[.[.[.[.[.[.[.. /.u.u.u.u.u._._.u.u.u.u.u.u.u.u.u.u.u.u.'.D D D D ; [.[.[.[.[.[.[.[.[.[.[.[.",
"[.[.[.[.[.[.[.[.[.[.[.. /.u.u.u.u.u.u.u.u.u.u.u.u.u.u.u.u.u.u.u.t.D D D D ; [.[.[.[.[.[.[.[.[.[.[.[.",
"[.[.[.[.[.[.[.[.[.[.[.. ).(.u.u.u.u.u.u.u.u.u.u.u.u.u.u.u.u.u.u.7.D D D 0 @ [.[.[.[.[.[.[.[.[.[.[.[.",
"[.[.[.[.[.[.[.[.[.[.[.[.q./.u.u.u.u.u.u.u.u.u.u.u.u.u.u.u.u.u.u.7.D D D ; [.[.[.[.[.[.[.[.[.[.[.[.[.",
"[.[.[.[.[.[.[.[.[.[.[.[.N /.u.u.u.u.u.u.u.u.u.u.u.u.u.u.u.u.u.7.D D D D ; [.[.[.[.[.[.[.[.[.[.[.[.[.",
"[.[.[.[.[.[.[.[.[.[.[.[.[.N ~.j.u.u.u.u.u.u.u.u.u.u.u.u.u.y.9.D D D D n [.[.[.[.[.[.[.[.[.[.[.[.[.[.",
"[.[.[.[.[.[.[.[.[.[.[.[.[.M ^.~.u.u.u.u.u.u.u.u.u.u.u.u.e.9.D D D D Z 9 [.[.[.[.[.[.[.[.[.[.[.[.[.[.",
"[.[.[.[.[.[.[.[.[.[.[.[.[.[.6.^.k.u.u.u.u.u.u.u.u.t.e.e.D D D D D D 9 [.[.[.[.[.[.[.[.[.[.[.[.[.[.[.",
"[.[.[.[.[.[.[.[.[.[.[.[.[.[.. v N 7.7.7.t.u.u.7.7.G D D D D D D 0 ; [.[.[.[.[.[.[.[.[.[.[.[.[.[.[.[.",
"[.[.[.[.[.[.[.[.[.[.[.[.[.[.Y +.+.; ; B ( 7.7.D D D D D D B ; ; P +.[.[.[.[.[.[.[.[.[.[.[.[.[.[.[.[.",
"[.[.[.[.[.[.[.[.[.[.[.[.[.[.+.&.O.a.a.j . . . . . . . . . i &.a.&.a.+.. [.[.[.[.[.[.[.[.[.[.[.[.[.[.",
"[.[.[.[.[.[.[.[.[.[.[.[.[.[.+.&.O.O.....S < V V V , f O.i.@.s k ..O.+.. [.[.[.[.[.[.[.[.[.[.[.[.[.[.",
"[.[.[.[.[.[.[.[.[.[.[.[.[.[.Y U &.O.S g < a V V V V o O.O.%.i.p x &.Y [.[.[.[.[.[.[.[.[.[.[.[.[.[.[.",
"[.[.[.[.[.[.[.[.[.[.[.[.[.[.[.[.j O.O.: 2 V V a o o f O.X.L l g ..a.. [.[.[.[.[.[.[.[.[.[.[.[.[.[.[.",
"[.[.[.[.[.[.[.[.[.[.[.[.[.[.[.[.+.O.O.: X o o - d x ..L K a < ..*.j [.[.[.[.[.[.[.[.[.[.[.[.[.[.[.[.",
"[.[.[.[.[.[.[.[.[.[.[.[.[.[.[.+.$.O.A g I I I | T K K C h 1  .O.#.+.. [.[.[.[.[.[.[.[.[.[.[.[.[.[.[."
};
