/* XPM */
static char *result[] = {
/* columns rows colors chars-per-pixel */
"50 50 168 2 ",
"   c black",
".  c #030202",
"X  c #010205",
"o  c #030304",
"O  c #040304",
"+  c #0A0607",
"@  c #020309",
"#  c #02040A",
"$  c #070709",
"%  c #03050C",
"&  c #03060E",
"*  c #0D030B",
"=  c #060809",
"-  c #090A0C",
";  c #0D080D",
":  c #0B0E0F",
">  c #10090D",
",  c #140B0D",
"<  c #060910",
"1  c #040813",
"2  c #050916",
"3  c #070A16",
"4  c #0F0C11",
"5  c #0C0E10",
"6  c #0C0F11",
"7  c #060918",
"8  c #070B1D",
"9  c #0E0A1C",
"0  c #140717",
"q  c #180614",
"w  c #1B0717",
"e  c #130B10",
"r  c #120A11",
"t  c #150C11",
"y  c #170D10",
"u  c #160D12",
"i  c #150C14",
"p  c #180718",
"a  c #120B1E",
"s  c #15091C",
"d  c #1B0F1A",
"f  c #1C081C",
"g  c #051515",
"h  c #0D1112",
"j  c #0E1213",
"k  c #0B1317",
"l  c #051B1A",
"z  c #051F1E",
"x  c #101416",
"c  c #1E1114",
"v  c #1F1216",
"b  c #111618",
"n  c #111718",
"m  c #16151B",
"M  c #1F121E",
"N  c #13191B",
"B  c #141C1F",
"V  c #23091D",
"C  c #20091E",
"Z  c #21131A",
"A  c #21131E",
"S  c #22131E",
"D  c #23141C",
"F  c #24141F",
"G  c #080D21",
"H  c #090F26",
"J  c #100E26",
"K  c #170D26",
"L  c #1D0B20",
"P  c #140F28",
"I  c #180F2A",
"U  c #0A112B",
"Y  c #141F23",
"T  c #12122F",
"R  c #1B1234",
"E  c #280A22",
"W  c #210F2F",
"Q  c #2B0C2A",
"!  c #280E2E",
"~  c #2F0D2E",
"^  c #360E2D",
"/  c #231421",
"(  c #251521",
")  c #271621",
"_  c #241423",
"`  c #281727",
"'  c #2B1822",
"]  c #2D1923",
"[  c #2A1826",
"{  c #2E1A26",
"}  c #2B1828",
"|  c #2F1B28",
" . c #2E1A2A",
".. c #301B2B",
"X. c #390F37",
"o. c #231338",
"O. c #231438",
"+. c #2A1238",
"@. c #2B143D",
"#. c #2B153D",
"$. c #2F163F",
"%. c #371032",
"&. c #3D1033",
"*. c #3F1037",
"=. c #3A113C",
"-. c #062D2B",
";. c #152127",
":. c #16242B",
">. c #16272E",
",. c #172A32",
"<. c #182C36",
"1. c #182F3A",
"2. c #063A38",
"3. c #13353C",
"4. c #19323E",
"5. c #39202F",
"6. c #3A202E",
"7. c #3B2130",
"8. c #431139",
"9. c #41113C",
"0. c #412433",
"q. c #341441",
"w. c #3B1341",
"e. c #381543",
"r. c #3C1546",
"t. c #173640",
"y. c #133E45",
"u. c #421241",
"i. c #461343",
"p. c #44174A",
"a. c #4B1749",
"s. c #48174C",
"d. c #4C174E",
"f. c #4D164F",
"g. c #44184A",
"h. c #48194C",
"j. c #4C194E",
"k. c #511544",
"l. c #56164B",
"z. c #5A174D",
"x. c #5E184F",
"c. c #551753",
"v. c #541A52",
"b. c #5C1852",
"n. c #591855",
"m. c #581A55",
"M. c #5D1957",
"N. c #5D1A57",
"B. c #5C1B57",
"V. c #641A56",
"C. c #611A59",
"Z. c #651B5B",
"A. c #601C59",
"S. c #651C5B",
"D. c #6C1C5B",
"F. c #6D1C60",
"G. c #711D62",
"H. c #751E64",
"J. c #791F66",
"K. c #064441",
"L. c #074D49",
"P. c #0D4A4B",
"I. c #0B4E4E",
"U. c #114247",
"Y. c #075652",
"T. c #667153",
"R. c #FFEF7D",
"E. c None",
/* pixels */
"E.E.E.E.E.E.E.E.E.E.E.E.E.E.E.E.E.E.E.E.E.E.E.E.E.E.E.E.E.E.E.E.E.E.E.E.E.E.E.E.E.E.E.E.E.E.E.E.E.E.",
"E.E.E.E.E.E.E.E.E.E.E.E.E.E.E.E.E.E.E.E.E.E.E.E.q q E.E.E.E.E.E.E.E.E.E.E.E.E.E.E.E.E.E.E.E.E.E.E.E.",
"E.E.E.E.E.E.E.E.E.E.E.E.E.E.E.E.E.E.E.E.E.E.E.E.E E E.E.E.E.E.E.E.E.E.E.E.E.E.E.E.E.E.E.E.E.E.E.E.E.",
"E.E.E.E.E.E.E.E.E.E.E.E.E.E.E.E.E.E.E.E.E.E.E.V l.i.p E.E.E.E.E.E.E.E.E.E.E.E.E.E.E.E.E.E.E.E.E.E.E.",
"E.E.E.E.E.E.E.E.E.E.E.E.E.E.E.E.E.E.E.E.E.E.E.E F.c.f E.E.E.E.E.E.E.E.E.E.E.E.E.E.E.E.E.E.E.E.E.E.E.",
"E.E.E.E.E.E.E.E.E.E.E.E.E.E.E.E.E.E.E.E.E.V E.*.Z.c.c.  E.E.w E.E.E.E.E.E.E.E.E.E.E.E.E.E.E.E.E.E.E.",
"E.E.E.E.E.E.E.E.E.E.E.E.E.E.E.E.E.E.E.E.V x.  F.c.c.c.f E.E.k.E E.E.E.E.E.E.E.E.E.E.E.E.E.E.E.E.E.E.",
"E.E.E.E.E.E.E.E.E.E.E.E.E.E.E.E.E.E.E.V b.G.  F.c.c.c.c.  E.k.C.2 E.E.E.E.E.E.E.E.E.E.E.E.E.E.E.E.E.",
"E.E.E.E.E.E.E.E.E.E.E.E.E.E.E.E.E.E.E.C n.F.  F.c.c.c.c.Q V b.o.a.Q &.V E.E.E.E.E.E.E.E.E.E.E.E.E.E.",
"E.E.E.E.E.E.E.E.E.E.E.  k.  E.E.E.    o.c.F.  F.c.c.c.c.8 E C.U F.X.k.J.  E.E.E.E.E.E.E.E.E.E.E.E.E.",
"E.E.E.E.E.E.E.E.E.E.E.  k.  E.E.  k.  o.c.Z.E l.M.c.c.c.P *.#.J.N.! k.G.  V E.E.E.E.E.E.E.E.E.E.E.E.",
"E.E.E.E.E.E.E.E.E.E.E.  k.  E.E.  k.  o.c.c.J.E F.c.c.c.$.B.g.J.r.8 k.C.  k.  E.E.E.E.E.E.E.E.E.E.E.",
"E.E.E.E.E.E.E.E.E.E.E.  9.k.E.E.Q V.  o.c.c.C.8.*.M.c.o.A.v.v.C.I L b.e.  D.&.E.E.E.E.E.E.E.E.E.E.E.",
"E.E.E.E.E.E.E.E.E.E.E.  X.J.  E.X.F.J.& r.c.c.r.$.C.c.U v.$.J.c.8 E C.f J.C.k.E.E.E.E.E.E.E.E.E.E.E.",
"E.E.E.E.E.E.E.E.V   E.  X.F.V @ =.c.J.& r.c.c.M.j.r.o.J.h.h.C.r.a *.d.0 J.c.C.E E.E.E.E.E.E.E.E.E.E.",
"E.E.E.E.E.E.E.  k.E E.  ! c.k.& r.c.J.L +.f.c.c.s.e.R v.$.H.M.U E S.I L F.c.C.E E.E.E.E.E.E.E.E.E.E.",
"E.E.E.E.E.E.E.  k.J.    8 c.k.& r.c.C.k.8 r.c.c.C.$.U U A.F.q.& l.p.& k.c.c.C.E E.E.E.E.E.E.E.E.E.E.",
"E.E.E.E.E.E.E.  k.C.&.E.% o.k.& r.c.c.k.8 r.c.c.n.m.O.U G.d.9 k.d.I %.b.c.c.i.8.  E.E.E.E.E.E.E.E.E.",
"E.E.E.E.E.E.E.E.  c.k.E.  U r.8 8 r.c.J.E 8 c.c.c.F.$.J.c.X.k.c.8 E C.c.c.r.8 X.J.  E.E.E.E.E.E.E.E.",
"E.E.E.E.E.E.E.E.  r.M.*.q   @.8 8 r.c.C.8.a r.c.c.F.$.v.T @.r.8 *.Z.c.c.c.@.8 X.J.  E.E.E.E.E.E.E.E.",
"E.E.E.E.E.E.E.E.E.& q.M.l.  U 8 8 R c.n.G.x.& q.c.F.$.U T I & k.M.c.c.~ c.G 1 w.J.  E.E.E.E.E.E.E.E.",
"E.E.E.E.E.E.E.E.E.  o.c.M.k.7 H 1 G c.c.M.G.k.9 q.F.$.U & s X.C.c.c.~ *.f 8 & r.J.  E.E.E.E.E.E.E.E.",
"E.E.E.E.E.E.E.E.E.E.& r.c.c.& U & 8 U c.c.c.J.k.  k.$.  c.c.c.c.c.r.& k.J.& U r.  E.E.E.E.E.E.E.E.E.",
"E.E.E.E.E.E.E.E.E.E.% +.f.c.u.s H & U R f.c.c.F.G.8.* J.& R f.r.+.a l.M.v.& U G   E.E.E.E.E.E.E.E.E.",
"E.E.E.E.E.E.E.E.E.E.E.2 +.r.c.u.9 1 8 U @.r.c.c.M.z.^ F.s G @.U a *.M.c.U # 8 % E.E.E.E.E.E.E.E.E.E.",
"E.E.E.E.E.E.E.E.E.E.E.E.% & o.o.J 1   7 U U o.o.W *.b.c.X.& 7 & l.M.c.q.& E.E.E.E.E.E.E.E.E.E.E.E.E.",
"E.E.E.E.E.E.E.E.E.E.E.E.E.E.& & G G 8 X & G U & L b.n.c.K X %.k.M.c.q.T   E.E.E.E.E.E.E.E.E.E.E.E.E.",
"E.E.E.E.E.E.E.E.E.E.E.E.E.E.- N =     N N =   J.F.c.c.U 8 E C.c.r.U U & E.E.E.E.E.E.E.E.E.E.E.E.E.E.",
"E.E.E.E.E.E.E.E.E.E.E.E.E.z U.<.;.;.;.;.B : k.=.r.r.R 8 3 = 3 8 8 3 o E.E.E.E.E.E.E.E.E.E.E.E.E.E.E.",
"E.E.E.E.E.E.E.E.E.E.E.E.l P.4.4.4.4.4.4.>.B = < 8 8 8 = : N : = = : 6 $ E.E.E.E.E.E.E.E.E.E.E.E.E.E.",
"E.E.E.E.E.E.E.E.E.E.E.O 2.4.4.4.4.4.4.4.4.<.N b h h h N Y ,.,.,.,.:.N - E.E.E.E.E.E.E.E.E.E.E.E.E.E.",
"E.E.E.E.E.E.E.E.E.E.E.2.y.4.4.4.4.4.4.4.4.4.4.4.,.N N 4.4.4.4.4.4.,.N N O E.E.E.E.E.E.E.E.E.E.E.E.E.",
"E.E.E.E.E.E.E.E.E.E.E.2.y.4.4.4.4.4.4.4.4.4.4.4.4.4.4.4.4.4.4.4.4.4.;.N O E.E.E.E.E.E.E.E.E.E.E.E.E.",
"E.E.E.E.E.E.E.E.E.E.E.2.y.4.4.4.4.4.T.4.4.4.4.4.4.4.4.4.4.4.4.T.4.4.;.N O E.E.E.E.E.E.E.E.E.E.E.E.E.",
"E.E.E.E.E.E.E.E.E.E.E.2.y.4.4.4.4.4.R.4.4.4.4.4.4.4.4.4.4.4.4.R.4.4.;.N O E.E.E.E.E.E.E.E.E.E.E.E.E.",
"E.E.E.E.E.E.E.E.E.E.E.2.y.4.4.4.4.4.T.4.4.4.4.4.4.4.4.4.4.4.4.T.4.4.;.N O E.E.E.E.E.E.E.E.E.E.E.E.E.",
"E.E.E.E.E.E.E.E.E.E.E.2.y.4.4.4.4.4.4.4.4.4.4.4.4.4.4.4.4.4.4.4.4.4.;.N O E.E.E.E.E.E.E.E.E.E.E.E.E.",
"E.E.E.E.E.E.E.E.E.E.E.-.L.4.4.4.4.4.4.4.4.4.4.4.4.4.4.4.4.4.4.4.4.,.N - E.E.E.E.E.E.E.E.E.E.E.E.E.E.",
"E.E.E.E.E.E.E.E.E.E.E.O 2.4.4.4.4.4.4.4.4.4.4.4.4.4.4.4.4.4.4.4.1.:.N - E.E.E.E.E.E.E.E.E.E.E.E.E.E.",
"E.E.E.E.E.E.E.E.E.E.E.E.l P.4.4.4.4.4.4.4.4.4.4.4.4.4.4.4.4.4.4.,.N 6 $ E.E.E.E.E.E.E.E.E.E.E.E.E.E.",
"E.E.E.E.E.E.E.E.E.E.E.E.O Y.P.4.4.4.4.4.4.4.4.4.4.4.4.4.4.4.4.4.N N - E.E.E.E.E.E.E.E.E.E.E.E.E.E.E.",
"E.E.E.E.E.E.E.E.E.E.E.E.E.O K.I.t.4.4.4.4.4.4.4.4.4.4.4.,.,.Y N n 5 E.E.E.E.E.E.E.E.E.E.E.E.E.E.E.E.",
"E.E.E.E.E.E.E.E.E.E.E.E.E.E.g 2.3.4.4.4.4.4.4.1.,.,.,.,.N N N j 5 E.E.E.E.E.E.E.E.E.E.E.E.E.E.E.E.E.",
"E.E.E.E.E.E.E.E.E.E.E.E.E.O ] ] m k k ;.;.;.;.Y N N N N x - - ] D E.E.E.E.E.E.E.E.E.E.E.E.E.E.E.E.E.",
"E.E.E.E.E.E.E.E.E.E.E.E.E.O 7...{ ] ] - - - - - - - - - 4 S ] ..6.D E.E.E.E.E.E.E.E.E.E.E.E.E.E.E.E.",
"E.E.E.E.E.E.E.E.E.E.E.E.E.O 5.` ` ` ` ` ; , c c , d ` 0.'   d ` ..] E.E.E.E.E.E.E.E.E.E.E.E.E.E.E.E.",
"E.E.E.E.E.E.E.E.E.E.E.E.E.O ) / } ` ; i y c c c c + d `  .5.e ` | D E.E.E.E.E.E.E.E.E.E.E.E.E.E.E.E.",
"E.E.E.E.E.E.E.E.E.E.E.E.E.E.O t [ ` ` + c c c , , > M ` ( A r ` ] O E.E.E.E.E.E.E.E.E.E.E.E.E.E.E.E.",
"E.E.E.E.E.E.E.E.E.E.E.E.E.E.E.t [ ` ` . + + + u d _ F Z y > _ 5.t E.E.E.E.E.E.E.E.E.E.E.E.E.E.E.E.E.",
"E.E.E.E.E.E.E.E.E.E.E.E.E.E.t { } ` ; d d d d F Z Z v c > M ` ..D E.E.E.E.E.E.E.E.E.E.E.E.E.E.E.E.E."
};
