/* XPM */
static char *result[] = {
/* columns rows colors chars-per-pixel */
"50 50 227 2 ",
"   c black",
".  c #010101",
"X  c #010205",
"o  c #040304",
"O  c #020309",
"+  c #050708",
"@  c #03050C",
"#  c #03060E",
"$  c #0B0609",
"%  c #060809",
"&  c #07090A",
"*  c #08090B",
"=  c #0D0809",
"-  c #090A0C",
";  c #0D080D",
":  c #0B0E0F",
">  c #11090B",
",  c #10090D",
"<  c #100A0D",
"1  c #120A0D",
"2  c #140B0D",
"3  c #0C0613",
"4  c #040813",
"5  c #050916",
"6  c #070A16",
"7  c #0A0D11",
"8  c #0F0C11",
"9  c #0C0F11",
"0  c #060918",
"q  c #070B1D",
"w  c #0E0A1C",
"e  c #140717",
"r  c #180614",
"t  c #120A11",
"y  c #130B11",
"u  c #150C11",
"i  c #160C11",
"p  c #150F14",
"a  c #160D16",
"s  c #1B0F12",
"d  c #180E14",
"f  c #180718",
"g  c #120B1E",
"h  c #15091C",
"j  c #1B0F1A",
"k  c #1C081C",
"l  c #051414",
"z  c #081112",
"x  c #0D1112",
"c  c #0E1213",
"v  c #0F1315",
"b  c #051B1A",
"n  c #051F1E",
"m  c #111013",
"M  c #101416",
"N  c #1E1114",
"B  c #111718",
"V  c #1E111A",
"C  c #1F121E",
"Z  c #13191B",
"A  c #141C1F",
"S  c #23091D",
"D  c #20091E",
"F  c #201218",
"G  c #21131A",
"H  c #21141B",
"J  c #23141C",
"K  c #24141F",
"L  c #3F301D",
"P  c #080D21",
"I  c #090F26",
"U  c #160B21",
"Y  c #1D0B20",
"T  c #1F0B25",
"R  c #180F2A",
"E  c #1F0E2A",
"W  c #0A112B",
"Q  c #141F23",
"!  c #111F25",
"~  c #1A102F",
"^  c #1B1234",
"/  c #240920",
"(  c #280A22",
")  c #210F2F",
"_  c #360E2D",
"`  c #251521",
"'  c #271621",
"]  c #241423",
"[  c #271625",
"{  c #281727",
"}  c #2D1923",
"|  c #2D1925",
" . c #2E1A26",
".. c #20102F",
"X. c #2B1828",
"o. c #2F1B28",
"O. c #2E1A2A",
"+. c #301B2B",
"@. c #331D2C",
"#. c #361E2E",
"$. c #231338",
"%. c #231438",
"&. c #2A1238",
"*. c #2B143D",
"=. c #2F163F",
"-. c #371032",
";. c #3D1033",
":. c #3F1037",
">. c #152127",
",. c #16242B",
"<. c #16272E",
"1. c #172A32",
"2. c #182C36",
"3. c #182F3A",
"4. c #063A38",
"5. c #163038",
"6. c #19323E",
"7. c #3B2130",
"8. c #703E17",
"9. c #431139",
"0. c #344130",
"q. c #754F0E",
"w. c #4E5929",
"e. c #331541",
"r. c #341441",
"t. c #3B1341",
"y. c #381543",
"u. c #3C1546",
"i. c #133E45",
"p. c #431545",
"a. c #491340",
"s. c #44164A",
"d. c #4D164F",
"f. c #511544",
"g. c #56164B",
"h. c #54164E",
"j. c #5E184F",
"k. c #551753",
"l. c #541A52",
"z. c #591855",
"x. c #5D1957",
"c. c #5D1A57",
"v. c #611A59",
"b. c #651B5B",
"n. c #601C59",
"m. c #6C1C5B",
"M. c #691B5E",
"N. c #6D1D5F",
"B. c #652F42",
"V. c #68274A",
"C. c #68304C",
"Z. c #7B3641",
"A. c #782A52",
"S. c #6D1C60",
"D. c #711D62",
"F. c #751E64",
"G. c #791F66",
"H. c #064441",
"J. c #0F4649",
"K. c #0B4E4E",
"L. c #114247",
"P. c #667153",
"I. c #AC710A",
"U. c #96483C",
"Y. c #A1562E",
"T. c #B36525",
"R. c #C6751C",
"E. c #CA761E",
"W. c #CE7720",
"Q. c #D27822",
"!. c #8B3A49",
"~. c #A65F49",
"^. c #917A59",
"/. c #A06852",
"(. c #946561",
"). c #B3832C",
"_. c #D98512",
"`. c #EC9409",
"'. c #E18617",
"]. c #FFA400",
"[. c #FFAE02",
"{. c #F8AF0C",
"}. c #FFB805",
"|. c #EEBE1D",
" X c #F3B513",
".X c #C2BB3E",
"XX c #94E33A",
"oX c #FFC107",
"OX c #F9C00E",
"+X c #FFCB09",
"@X c #FFD50C",
"#X c #FFDF0E",
"$X c #F9D413",
"%X c #F3D31A",
"&X c #F3DC1D",
"*X c #FFE810",
"=X c #F3E61F",
"-X c #F9E718",
";X c #FFF213",
":X c #FFFC15",
">X c #F9FB1C",
",X c #C0C63A",
"<X c #DCD83A",
"1X c #E8C727",
"2X c #EED222",
"3X c #E2CF30",
"4X c #DCE23C",
"5X c #DCEC3F",
"6X c #EEE526",
"7X c #EEF92B",
"8X c #F3F021",
"9X c #F3FA24",
"0X c #E2E335",
"qX c #E8EE30",
"wX c #E8F832",
"eX c #E1F63B",
"rX c #E2F63A",
"tX c #B2834A",
"yX c #B2B068",
"uX c #B7C24F",
"iX c #B4D74D",
"pX c #D7E144",
"aX c #DCF541",
"sX c #D7F448",
"dX c #CBF257",
"fX c #D1F350",
"gX c None",
/* pixels */
"gXgXgXgXgXgXgXgXgXgXgXgXgXgXgXgXgXgXgXgXgXdXdXaXaXaXaXeXgXgXgXgXgXgXgXgXgXgXgXgXgXgXgXgXgXgXgXgXgXgX",
"gXgXgXgXgXgXgXgXgXgXgXgXgXgXgXgXgXgXgX{.6X7XsXaX9X:X:X:XwXdXXXgXgXgXgXgXgXgXgXgXgXgXgXgXgXgXgXgXgXgX",
"gXgXgXgXgXgXgXgXgXgXgXgXgXgXgXgXgX].].[.*X:X:X:X:X:X:X:X:X9XaXdXgXgXgXgXgXgXgXgXgXgXgXgXgXgXgXgXgXgX",
"gXgXgXgXgXgXgXgXgXgXgXgXgXgXgXgXgX].].*X:X:X:X:X:X:X:X:X:X:X:XdXgXgXgXgXgXgXgXgXgXgXgXgXgXgXgXgXgXgX",
"gXgXgXgXgXgXgXgXgXgXgXgXgXgXgXgX].[.*X7XsX:X:X:X:X:X:X:X:X:X:X9X4XgXgXgXgXgXgXgXgXgXgXgXgXgXgXgXgXgX",
"gXgXgXgXgXgXgXgXgXgXgXgXgXgXgXgX].oX:X>X>X:X:X:X:X:X:X:X:X:X:X:XoX].gXgXgXgXgXgXgXgXgXgXgXgXgXgXgXgX",
"gXgXgXgXgXgXgXgXgXgXgXgXgXgXgXgX].}.;X:X:X:X:X:X:X:X:X:X:X:X:X+X].{.gXgXgXgXgXgXgXgXgXgXgXgXgXgXgXgX",
"gXgXgXgXgXgXgXgXgXgXgXgXgXgXgXgX].}.;X:X:X:X:X:X:X9XaXwX:X:X@X].1X-X7XdXdXgXgXgXgXgXgXgXgXgXgXgXgXgX",
"gXgXgXgXgXgXgXgXgXgXgXgXgX].}.OXOX].+X*X:X:X:X:X:XqX X0X>X>X2XfX9X:X:X9XfXdXgXgXgXgXgXgXgXgXgXgXgXgX",
"gXgXgXgXgXgXgXgXgXgXgXgXgX}.;X7XsX].].oX:X:X:X:XwX X+X|.7X7XrX9X:X:X:X:X9XdXdXgXgXgXgXgXgXgXgXgXgXgX",
"gXgXgXgXgXgXgXgXgXgXgXgX+X:X:X:XwXdXdX}.;X#X#X=X4X@X:X%XaX:X:X;X#X*X:X:X:XaXdXgXgXgXgXgXgXgXgXgXgXgX",
"gXgXgXgXgXgXgXgXgXgXgXgX].:X:X:X:X7XsX<X5X1X].[.[.:X:X:X:X:X:X}.].[.*X:X:XfXdXgXgXgXgXgXgXgXgXgXgXgX",
"gXgXgXgXgXgXgXgXgXgXgXdXdXfX9X:X:X:X:X>X7X7X7X;X;X:X:X:X:X:X:X].gXgX].aXfXgXgXgXgXgXgXgXgXgXgXgXgXgX",
"gXgXgXgXgXgXgXgXgXgXgXsX:X:XwXwX:X;X#X#X#X:X:X:X:X:X:X:X:X;X}.].gXgX].:XgXgXgXgXgXgXgXgXgXgXgXgXgXgX",
"gXgXgXgXgXgXgXgXgXgXgXsX:X:X:X*XoX+X#X#X#X:X:X:X:X:X:X:X:X#X].].gXgXgXgXgXgXgXgXgXgXgXgXgXgXgXgXgXgX",
"gXgXgXgXgXgXgXgXgXgXgX+X#X#X#X[.*X:X:X:X:X:X:X:X:X:X:X:X:X].].].gXgXgXgXgXgXgXgXgXgXgXgXgXgXgXgXgXgX",
"gXgXgXgXgXgXgXgXgXgXgX].].].1X4X9X:X:X:X:XaXaX*XoX:X:X:X:X].].#X}.].gXgXgXgXgXgXgXgXgXgXgXgXgXgXgXgX",
"gXgXgXgXgXgXgXgXgXgXgXgX].3XsX:X:X:X:X7XpX1X].].].}.8X:X:X].}.:X:X}.].gXgXgXgXgXgXgXgXgXgXgXgXgXgXgX",
"gXgXgXgXgXgXgXgXgXgXgXgX].sX>X:X:X:X:XsXtX8.U.T.].].<X:X:X#X;X:X:X#X].S S gXgXgXgXgXgXgXgXgXgXgXgXgX",
"gXgXgXgXgXgXgXgXgXgXgX].<X:X:X:X:X:XaX^.F._ h.k.Y.].<XaX:X:X:X:X:X#X].S.k gXgXgXgXgXgXgXgXgXgXgXgXgX",
"gXgXgXgXgXgXgXgXgXgXgX].&X:X:X9X9XaXfXY.S.f.a.k.k.].<XaX:X:X:X:X:X#X].x.k gXgXgXgXgXgXgXgXgXgXgXgXgX",
"gXgXgXgXgXgXgXgXgXgXgX].].*X:X9XaXqX}.Y.k.G.=.k.k.L ,XaX*X`.R.*X:X#X_.u.# r gXgXgXgXgXgXgXgXgXgXgXgX",
"gXgXgXgXgXgXgXgXgXgXgXgX].[.oXoXoX}.T.k.k.M.n.r.k.0.iX=X[.Z.k.).wX.XV.u.# ( gXgXgXgXgXgXgXgXgXgXgXgX",
"gXgXgXgXgXgXgXgXgXgXgXgX  L I.E.Q.q.*.k.k.k.b.e.^ (.7XW.x.k.s.w.uXk.s.g j.k gXgXgXgXgXgXgXgXgXgXgXgX",
"gXgXgXgXgXgXgXgXgXgXgXgX  I 4 y.D.-.P r.k.k.k.l.W /.$X!.k.s.w B.C.s.w j.M.3 gXgXgXgXgXgXgXgXgXgXgXgX",
"gXgXgXgXgXgXgXgXgXgXgXgX  W # ^ d.D.9.q &.s.k.u.W #X'.k.s.g g.u.R g j.b.s.gXgXgXgXgXgXgXgXgXgXgXgXgX",
"gXgXgXgXgXgXgXgX  ;.f.f.f.0 P 0 u.z.D.f.Y w $.d.^ ~.A.$.w g.y.# -.j.M.k.T gXgXgXgXgXgXgXgXgXgXgXgXgX",
"gXgXgXgXgXgXgXS S.x.u.d.S.Y I 4 I s.k.x.S.j.( R ^ N.%.E f.( ( F.S.k.k.&.Y gXgXgXgXgXgXgXgXgXgXgXgXgX",
"gXgXgXgXgXgXgXf.k k # R $.h.h q q $.k.k.k.M.G.-.P ..# f.f.D.v.x.k.k.r.Y m.f.f.f.gXgXgXgXgXgXgXgXgXgX",
"gXgXgXgXgXgXgXgXgXgXgXgX5 P *.h 4 P *.k.k.k.b.G.9.( G.S.k.k.k.d.u.q 4 S.x.s.t.f gXgXgXgXgXgXgXgXgXgX",
"gXgXgXgXgXgXgXgXgXgXgXgXgXO P ~ 4 X P $.s.k.k.M.9.j.G.x.k.k.r.R # f.Y $.$.w @ gXgXgXgXgXgXgXgXgXgXgX",
"gXgXgXgXgXgXgXgXgXgXgXgXgXgXgX@ q P # q I ^ u.x./ f.p.u.R q 4 U u.s.b.    gXgXgXgXgXgXgXgXgXgXgXgXgX",
"gXgXgXgXgXgXgXgXgXgXgXgXgXgXgX+ x # # q 4 # # k :.f.Y # 0 q I # # 3 )   gXgXgXgXgXgXgXgXgXgXgXgXgXgX",
"gXgXgXgXgXgXgXgXgXgXgXgXgXgX* A >.>.>.& & v 6 P *.u.c.g.( 6 % Z : gXgXgXgXgXgXgXgXgXgXgXgXgXgXgXgXgX",
"gXgXgXgXgXgXgXgXgXgXgXgXgXgXc 2.6.6.6.1.1.,.v 7 # # e D ( ! Z Z Z . gXgXgXgXgXgXgXgXgXgXgXgXgXgXgXgX",
"gXgXgXgXgXgXgXgXgXgXgXgXgXz 5.6.6.6.6.6.6.6.6.>.A Z Z Z Q 6.<.Z Z c gXgXgXgXgXgXgXgXgXgXgXgXgXgXgXgX",
"gXgXgXgXgXgXgXgXgXgXgXgXgXn i.6.6.6.6.6.6.6.6.6.2.1.1.1.3.6.6.Z Z c gXgXgXgXgXgXgXgXgXgXgXgXgXgXgXgX",
"gXgXgXgXgXgXgXgXgXgXgXgXgXn i.6.6.6.6.yX6.6.6.6.6.6.6.6.6.P.P.Z Z c gXgXgXgXgXgXgXgXgXgXgXgXgXgXgXgX",
"gXgXgXgXgXgXgXgXgXgXgXgXgXn i.6.6.6.6.6.6.6.6.6.6.6.6.6.6.6.6.Z Z c gXgXgXgXgXgXgXgXgXgXgXgXgXgXgXgX",
"gXgXgXgXgXgXgXgXgXgXgXgXgXn K.6.6.6.6.6.6.6.6.6.6.6.6.6.6.6.6.Z Z * gXgXgXgXgXgXgXgXgXgXgXgXgXgXgXgX",
"gXgXgXgXgXgXgXgXgXgXgXgXgXgX4.6.6.6.6.6.6.6.6.6.6.6.6.6.6.6.>.Z Z o gXgXgXgXgXgXgXgXgXgXgXgXgXgXgXgX",
"gXgXgXgXgXgXgXgXgXgXgXgXgXgXb L.6.6.6.6.6.6.6.6.6.6.6.6.6.2.A Z 9 gXgXgXgXgXgXgXgXgXgXgXgXgXgXgXgXgX",
"gXgXgXgXgXgXgXgXgXgXgXgXgXgXgXH.J.6.6.6.6.6.6.6.6.6.6.6.2.Z Z B * gXgXgXgXgXgXgXgXgXgXgXgXgXgXgXgXgX",
"gXgXgXgXgXgXgXgXgXgXgXgXgXgXgXl H.L.6.6.6.6.6.6.6.6.6.>.A Z Z * gXgXgXgXgXgXgXgXgXgXgXgXgXgXgXgXgXgX",
"gXgXgXgXgXgXgXgXgXgXgXgXgXgXgX< d p c M ,.1.1.1.1.Z Z B c m d gXgXgXgXgXgXgXgXgXgXgXgXgXgXgXgXgXgXgX",
"gXgXgXgXgXgXgXgXgXgXgXgXgXgXgXd #.o.} H - - - - - - - 8 '  .7.J gXgXgXgXgXgXgXgXgXgXgXgXgXgXgXgXgXgX",
"gXgXgXgXgXgXgXgXgXgXgXgXgXgXgXd +.{ { C C > N N > C @.| i C { } gXgXgXgXgXgXgXgXgXgXgXgXgXgXgXgXgXgX",
"gXgXgXgXgXgXgXgXgXgXgXgXgXgXgX< y @.{ a 1 N N N N ; { X.+.; @.u gXgXgXgXgXgXgXgXgXgXgXgXgXgXgXgXgXgX",
"gXgXgXgXgXgXgXgXgXgXgXgXgXgXgXgXgXV { j = 2 2 $ ; [ ` s , X. .gXgXgXgXgXgXgXgXgXgXgXgXgXgXgXgXgXgXgX",
"gXgXgXgXgXgXgXgXgXgXgXgXgXgXgXgXJ O.{ t j j j K G F N , ] X. .gXgXgXgXgXgXgXgXgXgXgXgXgXgXgXgXgXgXgX"
};
