/* XPM */
static char *result[] = {
/* columns rows colors chars-per-pixel */
"50 50 184 2 ",
"   c #010102",
".  c #03040B",
"X  c #0B060A",
"o  c #06080B",
"O  c #090C0D",
"+  c #130B0D",
"@  c #050916",
"#  c #0C0D11",
"$  c #060B1C",
"%  c #0A0817",
"&  c #140C12",
"*  c #190F14",
"=  c #140A1D",
"-  c #1B0A1B",
";  c #140512",
":  c #051414",
">  c #0E1314",
",  c #051818",
"<  c #0C161B",
"1  c #121316",
"2  c #1E1114",
"3  c #1E111B",
"4  c #13191B",
"5  c #111618",
"6  c #22131C",
"7  c #090E22",
"8  c #100C21",
"9  c #190B23",
"0  c #190E29",
"q  c #0A112B",
"w  c #141E23",
"e  c #1C1D2C",
"r  c #141230",
"t  c #1D1334",
"y  c #210C24",
"u  c #280A22",
"i  c #230E2B",
"p  c #2B0D2C",
"a  c #340D2C",
"s  c #231422",
"d  c #281725",
"f  c #2C1924",
"g  c #2D1A29",
"h  c #381F2F",
"j  c #321C2A",
"k  c #3A0F34",
"l  c #26143A",
"z  c #2D133B",
"x  c #261136",
"c  c #3C1034",
"v  c #32133E",
"b  c #3C133D",
"n  c #311236",
"m  c #15242B",
"M  c #172931",
"N  c #182C35",
"B  c #172F3A",
"V  c #19323E",
"C  c #052725",
"Z  c #3F2922",
"A  c #562F13",
"S  c #453216",
"D  c #633516",
"F  c #45123E",
"G  c #553728",
"H  c #06413F",
"J  c #6A4400",
"K  c #7C4F38",
"L  c #3A1645",
"P  c #153A42",
"I  c #4B1341",
"U  c #44164A",
"Y  c #4C164C",
"T  c #4B194E",
"R  c #441446",
"E  c #531549",
"W  c #5B174D",
"Q  c #5C184F",
"!  c #531546",
"~  c #551753",
"^  c #541853",
"/  c #5B1955",
"(  c #5E1958",
")  c #581750",
"_  c #651A57",
"`  c #651B5B",
"'  c #6B1C5D",
"]  c #5A214B",
"[  c #60204E",
"{  c #7B374F",
"}  c #6D3448",
"|  c #731E62",
" . c #791F66",
".. c #0B4B4A",
"X. c #104448",
"o. c #085451",
"O. c #364A46",
"+. c #515B45",
"@. c #44554A",
"#. c #53614E",
"$. c #6E734D",
"%. c #6F7956",
"&. c #8F560D",
"*. c #9F5B1D",
"=. c #807E0B",
"-. c #BF7B00",
";. c #8B4B2F",
":. c #905734",
">. c #AD5F2B",
",. c #BF7A22",
"<. c #AD6929",
"1. c #C57C05",
"2. c #C37520",
"3. c #923E48",
"4. c #823448",
"5. c #9B404D",
"6. c #7A8B3A",
"7. c #83841B",
"8. c #BEAC1A",
"9. c #BFBD10",
"0. c #85992E",
"q. c #B59830",
"w. c #A98A31",
"e. c #BFA62C",
"r. c #DB8D00",
"t. c #DF9B03",
"y. c #CE9512",
"u. c #D58C18",
"i. c #EF9A00",
"p. c #DFB108",
"a. c #E0A80B",
"s. c #FFA400",
"d. c #FEAC03",
"f. c #F9AE0B",
"g. c #FFBA05",
"h. c #FCB909",
"j. c #F5B310",
"k. c #F3B815",
"l. c #FFC608",
"z. c #EFD60E",
"x. c #FFD00B",
"c. c #FFDC0D",
"v. c #F9C410",
"b. c #F2CD1B",
"n. c #F7C914",
"m. c #F2D91E",
"M. c #FFE610",
"N. c #FFEC11",
"B. c #F5E71D",
"V. c #FFF213",
"C. c #FFFC15",
"Z. c #FBFB1B",
"A. c #DFD536",
"S. c #EBC222",
"D. c #ECCC23",
"F. c #E5CB2C",
"G. c #ECD726",
"H. c #E5D62E",
"J. c #E2D031",
"K. c #DFE039",
"L. c #DFEB3C",
"P. c #DFF63E",
"I. c #F2E922",
"U. c #ECF32C",
"Y. c #EDF82D",
"T. c #F3FA25",
"R. c #F5F520",
"E. c #E4E333",
"W. c #E5EC33",
"Q. c #E5F736",
"!. c #E8F832",
"~. c #E2F63A",
"^. c #ECE229",
"/. c #85914B",
"(. c #9BBA4C",
"). c #D8DF41",
"_. c #D5E347",
"`. c #D8ED45",
"'. c #D2E84C",
"]. c #D8F547",
"[. c #D4F44C",
"{. c #CEED52",
"}. c #CBF257",
"|. c None",
/* pixels */
"|.|.|.|.|.|.|.|.|.|.|.|.|.|.|.|.|.}.}.[.].].!.C.C.C.C.C.B.^.|.|.|.|.|.|.|.|.|.|.|.|.|.|.|.|.|.|.|.|.",
"|.|.|.|.|.|.|.|.|.|.|.|.|.|.|.|.}.}.T.Z.C.C.C.C.C.C.C.g.k._.A._.s.|.|.|.|.|.|.|.|.|.|.|.|.|.|.|.|.|.",
"|.|.|.|.|.|.|.|.|.|.|.|.|.|.S.).G.C.C.C.C.C.C.C.C.C.C.C.C.C.C.T._.s.|.|.|.|.|.|.|.|.|.|.|.|.|.|.|.|.",
"|.|.|.|.|.|.|.|.|.|.|.|.|.s.d.v.N.C.C.C.C.C.C.C.C.C.C.C.C.C.C.C.`.j.k.|.|.|.|.|.|.|.|.|.|.|.|.|.|.|.",
"|.|.|.|.|.|.|.|.|.|.|.|.s.s.F.b.C.C.C.C.C.C.C.C.C.C.C.C.C.C.C.C.T.k.E.|.|.|.|.|.|.|.|.|.|.|.|.|.|.|.",
"|.|.|.|.|.|.|.|.|.|.|.|.d.S.P.Z.C.C.C.V.R.C.C.C.C.C.C.C.C.C.C.C.T.k.Q.|.|.|.|.|.|.|.|.|.|.|.|.|.|.|.",
"|.|.|.|.|.|.|.|.|.|.|.C.g.F.C.C.C.C.C.b.Q.C.C.C.C.C.C.C.C.C.C.C.T.k.T.[.Q.|.|.|.|.|.|.|.|.|.|.|.|.|.",
"|.|.|.|.|.|.|.|.|.s.j.k.j.F.T.C.C.C.C.G.P.C.C.C.C.C.C.C.C.C.C.C.Q.k.s.s.S.).f._.}.|.|.|.|.|.|.|.|.|.",
"|.|.|.|.|.|.|.}._.).U.T.B.F.].C.C.C.C.W.A.T.C.C.C.C.C.C.C.C.C.C._.d.M.M.M.U.W.k.P.}.}.|.|.|.|.|.|.|.",
"|.|.|.|.|.|.}.].C.C.C.C.C.C.C.C.C.C.C.T.F.K.T.C.C.C.C.C.C.N.V.x.d.V.C.C.C.C.C.C.C.P.}.}.|.|.|.|.|.|.",
"|.|.|.|.|.}.}.T.C.C.C.C.C.C.C.C.C.C.C.T.F.S.'.~.C.C.C.].E.x.V.V.N.C.C.C.C.C.C.C.C.Z.[.}.|.|.|.|.|.|.",
"|.|.|.|.|.}.].Y.C.C.C.C.C.C.C.C.T.T.T.].F.s.k.H.Q.Q.H.k.G.C.C.C.C.C.C.C.C.C.C.C.C.C.C.}.|.|.|.|.|.|.",
"|.|.|.|.}.}.[.T.C.C.C.C.C.C.C.C.U.U.`.A.v.s.s.d.g.l.v.L.Y.C.C.C.C.C.C.C.C.C.C.C.C.C.C.}.|.|.|.|.|.|.",
"|.|.|.|.F.H.T.C.C.C.C.C.C.C.C.C.'.'.k.d.s.s.s.s.s.J.~.C.C.C.C.C.C.C.C.C.C.C.C.C.C.C.C.}.|.|.|.|.|.|.",
"|.|.|.|.s.c.C.C.C.C.C.C.C.C.Z.P.J.s.s.j.k.k.k.s._.].T.C.C.C.C.C.C.C.V.M.M.M.N.C.C.C.T.}.|.|.|.|.|.|.",
"|.|.|.|.s.d.M.C.C.C.C.C.C.C.T.].d.D.F.'.}.}.}.D.D.F.'.C.C.C.C.C.V.x.b.F.F.F.E.c.C.C.].}.|.|.|.|.|.|.",
"|.|.|.|.|.s.s.M.M.C.C.C.C.C.Z.m.}.].C.C.C.C.C.C.C.g.d.C.C.C.V.n.S.[.].T.C.C.Y._.k.|.}.|.|.|.|.|.|.|.",
"|.|.|.|.|.s.s.s.s.g.g.c.C.C.T.P.T.C.C.C.C.C.C.C.C.C.N.C.C.C.T.'.T.Z.C.C.C.C.C.T.P.k.|.|.|.|.|.|.|.|.",
"|.|.|.|.|.|.s.s.s.E.[.].Y.C.C.C.C.C.C.V.g.s.s.&.>.2.x.C.C.C.C.C.x.x.M.C.C.C.C.C.C.T.|.|.|.|.|.|.|.|.",
"|.|.|.|.|.|.s.s.j.[.!.Z.C.C.C.C.C.C.V.8.J |.- / / Q G p.N.C.z.y.D |.g.M.C.C.C.C.C.b.|.|.|.|.|.|.|.|.",
"|.|.|.|.|.|.|.s.).T.Z.C.C.C.C.C.C.C.y.} p |.c _ ^ ^ t S p.x.<.I n     -.9.C.C.C.C.m.|.|.|.|.|.|.|.|.",
"|.|.|.|.|.|.s.v.{.C.C.C.C.C.C.C.C.N.;./ _ k ) ~ ~ T q Z 2.5.] b p E 9 - w.C.C.C.C.].|.|.|.|.|.|.|.|.",
"|.|.|.|.|.|.s.T.P.C.C.C.C.C.C.C.C.g.v ^ _ _ b ~ ~ U $ K :.T / | ( L y ( w.C.C.Z.Q.|.|.|.|.|.|.|.|.|.",
"|.|.|.|.|.s.s.I.}.C.C.C.C.C.C.C.M.A 7 U ~ /  .z ~ v = / U | / T = - ` ~ e.C.R.}.|.|.|.|.|.|.|.|.|.|.",
"|.|.|.|.|.s.s.h.[.].T.C.C.C.C.C.N.5.@ l ~ ~ / ( U t | L ' / T = Q ( ~ q.C.~.0.|.|.|.|.|.|.|.|.|.|.|.",
"|.|.|.|.|.s.s.s.J.}.!.T.Z.C.C.C.C.l.=.$ l U ^ | l l T T ( T 0 F Q ~ U /.(.6.k   |.|.|.|.|.|.|.|.|.|.",
"|.|.|.|.|.|.s.s.s.m.].}.~.C.C.C.C.C.{ F . % l ~ t l ` ` Y 8 F / U t q q . F k |.|.|.|.|.|.|.|.|.|.|.",
"|.|.|.|.|.|.|.s.s.s.s.x.x.x.x.g.t.7.` |  ._ k 8 r l  .U z n l @ = k k k ` v . |.|.|.|.|.|.|.|.|.|.|.",
"|.|.|.|.|.|.|.|.s.r.i.s.s.s.1.1.4.i 0 b ~ '  .I 7 l / 8 p p p ! E ( ( ~ n % |.|.|.|.|.|.|.|.|.|.|.|.",
"|.|.|.|.|.|.|.|.|.|.J *.*.>.a p p L F y 0 Y `  .! i 0 c _ | _ ~ ~ L v 8 y c u |.|.|.|.|.|.|.|.|.|.|.",
"|.|.|.|.|.|.|.|.|.- I Y Y U v 7 $ @ z Y z z / |  .c E | _ ~ ~ L t 7 @ i R ( ~ F u |.|.|.|.|.|.|.|.|.",
"|.|.|.|.|.|.|.|.|.k ` L x $ @ @ q q @ x L U ~ _  .-  .( Y L l 7 @ $ q q t v U / ' a |.|.|.|.|.|.|.|.",
"|.|.|.|.|.|.|.|.  / 0     |.|.|.  o $ @ $ r U R X W Y l 7 @ . n | a = q 7 o         |.|.|.|.|.|.|.|.",
"|.|.|.|.|.|.|.|.  ; |.|.|.|.|.|.> 4 > > > o $ - Q W = . $ 7 q r z / / = |.|.|.|.|.|.|.|.|.|.|.|.|.|.",
"|.|.|.|.|.|.|.|.|.|.|.|.|.|.|.# 4 4 m M m m 1 % z ~ _ ` k @ # O O O = c   |.|.|.|.|.|.|.|.|.|.|.|.|.",
"|.|.|.|.|.|.|.|.|.|.|.|.|.|.o 5 w N V V V V M m . = Y ~ E < w 4 4 4   |.|.|.|.|.|.|.|.|.|.|.|.|.|.|.",
"|.|.|.|.|.|.|.|.|.|.|.|.|.|.o m V V V V V V V V M w # a e V N 4 4 4   |.|.|.|.|.|.|.|.|.|.|.|.|.|.|.",
"|.|.|.|.|.|.|.|.|.|.|.|.|.|.: V V V V @.%.V V V P V e e B V $.4 4 4   |.|.|.|.|.|.|.|.|.|.|.|.|.|.|.",
"|.|.|.|.|.|.|.|.|.|.|.|.|.|., X.V V V O.#.V V V B V V V V V +.4 4 4   |.|.|.|.|.|.|.|.|.|.|.|.|.|.|.",
"|.|.|.|.|.|.|.|.|.|.|.|.|.|., ..V V V V V V V V P B V V V V w 4 4 5 |.|.|.|.|.|.|.|.|.|.|.|.|.|.|.|.",
"|.|.|.|.|.|.|.|.|.|.|.|.|.|.: H V V V V V V V V V V V V V V w 4 4 o |.|.|.|.|.|.|.|.|.|.|.|.|.|.|.|.",
"|.|.|.|.|.|.|.|.|.|.|.|.|.|.|.C P V V V V V V V V V V V B m 4 4 4 o |.|.|.|.|.|.|.|.|.|.|.|.|.|.|.|.",
"|.|.|.|.|.|.|.|.|.|.|.|.|.|.|.  o.P V V V V V V V V V V m 5 4 4 1 |.|.|.|.|.|.|.|.|.|.|.|.|.|.|.|.|.",
"|.|.|.|.|.|.|.|.|.|.|.|.|.|.|.|.: ..P V V V V V V m m 4 4 4 4 > |.|.|.|.|.|.|.|.|.|.|.|.|.|.|.|.|.|.",
"|.|.|.|.|.|.|.|.|.|.|.|.|.|.|.|.|.4 w 4 w M N w m 4 4 4 1 1 1 + |.|.|.|.|.|.|.|.|.|.|.|.|.|.|.|.|.|.",
"|.|.|.|.|.|.|.|.|.|.|.|.|.|.|.|.& h g 6 1 # + O + O O > 1 6 j j |.|.|.|.|.|.|.|.|.|.|.|.|.|.|.|.|.|.",
"|.|.|.|.|.|.|.|.|.|.|.|.|.|.|.|.& g g g 6 + X * * X 3 g 6 s i Z   |.|.|.|.|.|.|.|.|.|.|.|.|.|.|.|.|.",
"|.|.|.|.|.|.|.|.|.|.|.|.|.|.|.|.O 2 g s * + 2 2 6 + 3 d g * s g |.|.|.|.|.|.|.|.|.|.|.|.|.|.|.|.|.|.",
"|.|.|.|.|.|.|.|.|.|.|.|.|.|.|.|.|.|.3 d & O * + X + s 6 + - g 2 |.|.|.|.|.|.|.|.|.|.|.|.|.|.|.|.|.|.",
"|.|.|.|.|.|.|.|.|.|.|.|.|.|.|.|.|.f g s & 3 3 6 6 6 2 + 3 d g 3 |.|.|.|.|.|.|.|.|.|.|.|.|.|.|.|.|.|."
};
