/* XPM */
static char *result[] = {
/* columns rows colors chars-per-pixel */
"50 50 139 2 ",
"   c #1B0E0E",
".  c #1F110F",
"X  c #251313",
"o  c #291614",
"O  c #2E1916",
"+  c #271A1A",
"@  c #2D1C1A",
"#  c #331D17",
"$  c #391F17",
"%  c #351E1A",
"&  c #391F1A",
"*  c #372017",
"=  c #3A2017",
"-  c #36211B",
";  c #3B231B",
":  c #3F281E",
">  c #332620",
",  c #392721",
"<  c #3D2A21",
"1  c #352B2B",
"2  c #401F1D",
"3  c #41261A",
"4  c #43291E",
"5  c #4A2B1E",
"6  c #532E1F",
"7  c #4F331E",
"8  c #492720",
"9  c #422B21",
"0  c #4B2D22",
"q  c #542D26",
"w  c #453127",
"e  c #4D3324",
"r  c #44352D",
"t  c #483629",
"y  c #523424",
"u  c #593526",
"i  c #513A27",
"p  c #593925",
"a  c #563929",
"s  c #5D3C2A",
"d  c #403734",
"f  c #4C3C33",
"g  c #503E31",
"h  c #623E2A",
"j  c #5E422F",
"k  c #4F4236",
"l  c #4C4339",
"z  c #554535",
"x  c #5D4432",
"c  c #5D4937",
"v  c #51453B",
"b  c #53483C",
"n  c #59493A",
"m  c #694A27",
"M  c #63422C",
"N  c #68462F",
"B  c #6B4C2D",
"V  c #674331",
"C  c #6A4731",
"Z  c #6D4B32",
"A  c #634F3C",
"S  c #6D4F38",
"D  c #724D34",
"F  c #744E3A",
"G  c #64503C",
"H  c #6A543E",
"J  c #745235",
"K  c #7C5536",
"L  c #7E5937",
"P  c #73553A",
"I  c #7C563A",
"U  c #7D5A3B",
"Y  c #564D43",
"T  c #594E40",
"R  c #5A5040",
"E  c #615543",
"W  c #665945",
"Q  c #695D47",
"!  c #675C48",
"~  c #695D4A",
"^  c #7D5E40",
"/  c #6F604B",
"(  c #7E6545",
")  c #72644B",
"_  c #786349",
"`  c #7C6D53",
"'  c #81573C",
"]  c #835C3D",
"[  c #885F3F",
"{  c #87623E",
"}  c #8A633F",
"|  c #86693E",
" . c #8F693D",
".. c #845E41",
"X. c #866241",
"o. c #8C6442",
"O. c #8D6A44",
"+. c #83674A",
"@. c #8D6949",
"#. c #916644",
"$. c #936B46",
"%. c #946C49",
"&. c #986E49",
"*. c #8C7048",
"=. c #967146",
"-. c #997046",
";. c #96724A",
":. c #9A734B",
">. c #9E7A4E",
",. c #827250",
"<. c #8D7653",
"1. c #8C7957",
"2. c #857458",
"3. c #957754",
"4. c #9C7651",
"5. c #947954",
"6. c #9D7B54",
"7. c #917A58",
"8. c #A0794E",
"9. c #A27D54",
"0. c #9B8052",
"q. c #96845F",
"w. c #9D8359",
"e. c #A48256",
"r. c #A98656",
"t. c #A38359",
"y. c #A9865A",
"u. c #A4895D",
"i. c #AC8C5D",
"p. c #AF905F",
"a. c #988463",
"s. c #A38B62",
"d. c #B49465",
"f. c #B79B6C",
"g. c #BA9D6E",
"h. c #B99F70",
"j. c #BBA072",
"k. c #C4A775",
"l. c None",
/* pixels */
"l.l.l.l.l.l.l.l.l.l.l.l.l.l.l.l.l.l.l.l.l.l.l.l.l.l.l.l.l.l.l.l.l.l.l.l.l.l.l.l.l.l.l.l.l.l.l.l.l.l.",
"l.l.l.l.l.l.l.l.l.l.l.l.l.l.l.l.l.l.l.l.l.l G ( u.u.w.,.) l l.l.l.l.l.l.l.l.l.l.l.l.l.l.l.l.l.l.l.l.",
"l.l.l.l.l.l.l.l.l.l.l.l.l.l.l.l.l.l.l.n +.:.%.%.:.:.=.r.d.f.a./ l.l.l.l.l.l.l.l.l.l.l.l.l.l.l.l.l.l.",
"l.l.l.l.l.l.l.l.l.l.l.l.l.l.l.l.l.l.H 4.:.%.%.$.%.$.$.$.;.:.t.j.` l.l.l.l.l.l.l.l.l.l.l.l.l.l.l.l.l.",
"l.l.l.l.l.l.l.l.l.l.l.l.l.l.l.l.f H X.%.$.%.%.O.o.X.{ $.$.%.4.4.f.q.Y l.l.l.l.l.l.l.l.l.l.l.l.l.l.l.",
"l.l.l.l.l.l.l.l.l.l.l.l.l.l.l.f F o.o.$.#.{ U Z V s p I X.o.#.O.4.d.u.! l.l.l.l.l.l.l.l.l.l.l.l.l.l.",
"l.l.l.l.l.l.l.l.l.l.l.l.l.l.i J o.%.o.$.X.N y % X X X - y C ..o.O.:.r.h./ l.l.l.l.l.l.l.l.l.l.l.l.l.",
"l.l.l.l.l.l.l.l.l.l.l.l.l.g S { @.o.%.o.N % X l.l.l.l.  . # a D ] ;.:.y.j.W l.l.l.l.l.l.l.l.l.l.l.l.",
"l.l.l.l.l.l.l.l.l.l.l.l.z D ] $.o.%.[ u @ l.l.l.l.l.l.l.l.  X e S X.&.:.9.g.A l.l.l.l.l.l.l.l.l.l.l.",
"l.l.l.l.l.l.l.l.l.l.l.d P ] O.$.$.y.h # l.l.l.l.l.l.l.l.l.l.. X e J $.$.#.i.a.l.l.l.l.l.l.l.l.l.l.l.",
"l.l.l.l.l.l.l.l.l.l.l.c U ] #.:.t.' 2 l.l.l.l.l.l.l.l.l.l.l.l.X $ p [ $.#.=.k._ l.l.l.l.l.l.l.l.l.l.",
"l.l.l.l.l.l.l.l.l.l.f I #.#.] :...8 l.l.l.l.l.l.l.l.l.l.l.l.l.l.o ; s [ -. .i.f.l l.l.l.l.l.l.l.l.l.",
"l.l.l.l.l.l.l.l.l.1 S U  .$.] ' q l.l.l.l.l.l.l.l.l.l.l.l.l.l.l.l.o ; V } :.O.i.<.l.l.l.l.l.l.l.l.l.",
"l.l.l.l.l.l.l.l.l.V J ] [ $.U 6 l.l.l.l.l.l.l.l.l.l.l.l.l.l.l.l.l.l.o : C o.X.>.g.2.l.l.l.l.l.l.l.l.",
"l.l.l.l.l.l.l.l.f B ] ..o.#...l.l.l.l.l.l.l.l.l.l.l.l.l.l.l.l.l.l.l.l.o 0 K h { %.u.l.l.l.l.l.l.l.l.",
"l.l.l.l.l.l.l.l.x P o.{ } 8.F l.l.l.l.l.l.l.l.l.l.l.l.l.l.l.l.l.l.l.l.l.; p 5 B o.6.` l.l.l.l.l.l.l.",
"l.l.l.l.l.l.l.l j J } $.} &.l.l.l.l.l.l.l.l.l.l.l.l.l.l.l.l.l.l.l.l.l.l.# 5 Z M $.:.q.l.l.l.l.l.l.l.",
"l.l.l.l.l.l.l.t N D  .$.$.] l.l.l.l.l.l.l.l.l.l.l.l.l.l.l.l.l.l.l.l.l.l.l.8 J o.$.;.u.T l.l.l.l.l.l.",
"l.l.l.l.l.l.l.a D B o.$.i.l.l.l.l.l.l.l.l.l.l.l.l.l.l.l.l.l.l.l.l.l.l.l.l.; y o.o.O.9./ l.l.l.l.l.l.",
"l.l.l.l.l.l.r u M m *.=.:.l.l.l.l.l.l.l.l.l.l.l.l.l.l.l.l.l.l.l.l.l.l.l.l.@ 9 I U } 4.7.l.l.l.l.l.l.",
"l.l.l.l.l.l.< h h 7 P 8.K l.l.l.l.l.l.l.l.l.l.l.l.l.l.l.l.l.l.l.l.l.l.l.l.l.; B I %.3.3.l.l.l.l.l.l.",
"l.l.l.l.l.l.< S D D o.9.l.l.l.l.l.l.l.l.l.l.l.l.l.l.l.l.l.l.l.l.l.l.l.l.l.l.& e ..%.$.6.l.l.l.l.l.l.",
"l.l.l.l.l.l.e D J @.%.:.l.l.l.l.l.l.l.l.l.l.l.l.l.l.l.l.l.l.l.l.l.l.l.l.l.l.& 8 ..%.#.9.W l.l.l.l.l.",
"l.l.l.l.l.w e J P O.:.0.l.l.l.l.l.l.l.l.l.l.l.l.l.l.l.l.l.l.l.l.l.l.l.l.l.l.l.; K ....e.E l.l.l.l.l.",
"l.l.l.l.l.t y J J $.:.K l.l.l.l.l.l.l.l.l.l.l.l.l.l.l.l.l.l.l.l.l.l.l.l.l.l.l.& V Z O.;.A l.l.l.l.l.",
"l.l.l.l.l.e y J ] $.9.m l.l.l.l.l.l.l.l.l.l.l.l.l.l.l.l.l.l.l.l.l.l.l.l.l.l.l.; u 0 Z 9._ l.l.l.l.l.",
"l.l.l.l.l.e u D [ #.y.l.l.l.l.l.l.l.l.l.l.l.l.l.l.l.l.l.l.l.l.l.l.l.l.l.l.l.l.- h o.%.9.W l.l.l.l.l.",
"l.l.l.l.l.4 p D { o.r.l.l.l.l.l.l.l.l.l.l.l.l.l.l.l.l.l.l.l.l.l.l.l.l.l.l.l.l.# j o.%.:.c l.l.l.l.l.",
"l.l.l.l.l.3 j D ] ..y.l.l.l.l.l.l.l.l.l.l.l.l.l.l.l.l.l.l.l.l.l.l.l.l.l.l.l.l.$ s o.;.@.3.l l.l.l.l.",
"l.l.l.l.l.3 p N [ ..r.l.l.l.l.l.l.l.l.l.l.l.l.l.l.l.l.l.l.l.l.l.l.l.l.l.l.l.l.% e X.$.@.y._ l.l.l.l.",
"l.l.l.l.l.3 M B [  .6.l.l.l.l.l.l.l.l.l.l.l.l.l.l.l.l.l.l.l.l.l.l.l.l.l.l.l.l.; i X.=.;.s.~ l.l.l.l.",
"l.l.l.l.l.3 h D o.=.4.l.l.l.l.l.l.l.l.l.l.l.l.l.l.l.l.l.l.l.l.l.l.l.l.l.l.l.l.- i X.O.O.t./ l.l.l.l.",
"l.l.l.l.l.4 M J { $.4.l.l.l.l.l.l.l.l.l.l.l.l.l.l.l.l.l.l.l.l.l.l.l.l.l.l.l.l.& e X.@.U t.~ l.l.l.l.",
"l.l.l.l.l.4 M I { O.9.l.l.l.l.l.l.l.l.l.l.l.l.l.l.l.l.l.l.l.l.l.l.l.l.l.l.l.l.- e X.%.#.6.E l.l.l.l.",
"l.l.l.l.l.3 M K [ o.e.l.l.l.l.l.l.l.l.l.l.l.l.l.l.l.l.l.l.l.l.l.l.l.l.l.l.l.l.& 0 ' @.O.@.v l.l.l.l.",
"l.l.l.l.l.3 M ' ] { p.l.l.l.l.l.l.l.l.l.l.l.l.l.l.l.l.l.l.l.l.l.l.l.l.l.l.l.l.& s O.%.o.3.b l.l.l.l.",
"l.l.l.l.l.: h K ]  .d.l.l.l.l.l.l.l.l.l.l.l.l.l.l.l.l.l.l.l.l.l.l.l.l.l.l.l.l.# h #.%.o.3.l.l.l.l.l.",
"l.l.l.l.l.4 M J ] #.y.l.l.l.l.l.l.l.l.l.l.l.l.l.l.l.l.l.l.l.l.l.l.l.l.l.l.l.l.% C #.%.%.3.l.l.l.l.l.",
"l.l.l.l.l.9 y S U :.y.l.l.l.l.l.l.l.l.l.l.l.l.l.l.l.l.l.l.l.l.l.l.l.l.l.l.l.l.; S o.$.:.5.l.l.l.l.l.",
"l.l.l.l.l.; 0 J ' #.e.l.l.l.l.l.l.l.l.l.l.l.l.l.l.l.l.l.l.l.l.l.l.l.l.l.l.l.l., P o.&.&.5.l.l.l.l.l.",
"l.l.l.l.l.; 8 D [ o.8.l.l.l.l.l.l.l.l.l.l.l.l.l.l.l.l.l.l.l.l.l.l.l.l.l.l.l.- 4 U #.$.:.<.l.l.l.l.l.",
"l.l.l.l.l.- 3 N I o.=.w.l.l.l.l.l.l.l.l.l.l.l.l.l.l.l.l.l.l.l.l.l.l.l.l.l.l.- 4 [ &.} O.1.l.l.l.l.l.",
"l.l.l.l.l.> 3 s J X.$.i.l.l.l.l.l.l.l.l.l.l.l.l.l.l.l.l.l.l.l.l.l.l.l.l.l.l.* e o.$.&.=.A l.l.l.l.l.",
"l.l.l.l.l.1 : M J  .o.i.l.l.l.l.l.l.l.l.l.l.l.l.l.l.l.l.l.l.l.l.l.l.l.l.l.l.= M %.$.$.8.z l.l.l.l.l.",
"l.l.l.l.l.l.: s D L [ i.l.l.l.l.l.l.l.l.l.l.l.l.l.l.l.l.l.l.l.l.l.l.l.l.l.l.= Z I { $.:.z l.l.l.l.l.",
"l.l.l.l.l.l.; 0 u | ] :.l.l.l.l.l.l.l.l.l.l.l.l.l.l.l.l.l.l.l.l.l.l.l.l.l.l.: J Z | =.@.l.l.l.l.l.l.",
"l.l.l.l.l.l.; q 7 5 K o.l.l.l.l.l.l.l.l.l.l.l.l.l.l.l.l.l.l.l.l.l.l.l.l.l.3 4 Z 4 Z ;.^ l.l.l.l.l.l.",
"l.l.l.l.l.l.# 3 h h [ #.l.l.l.l.l.l.l.l.l.l.l.l.l.l.l.l.l.l.l.l.l.l.l.l.l.; 4 B N o.=.P l.l.l.l.l.l.",
"l.l.l.l.l.l.l.+ , w t w l.l.l.l.l.l.l.l.l.l.l.l.l.l.l.l.l.l.l.l.l.l.l.l.l.@ - , , < 9 l.l.l.l.l.l.l.",
"l.l.l.l.l.l.l.l.l.l.l.l.l.l.l.l.l.l.l.l.l.l.l.l.l.l.l.l.l.l.l.l.l.l.l.l.l.l.l.l.l.l.l.l.l.l.l.l.l.l."
};
