/* XPM */
static char *result[] = {
/* columns rows colors chars-per-pixel */
"50 50 243 2 ",
"   c #1C0811",
".  c #2A090B",
"X  c #260C18",
"o  c #2D1414",
"O  c #2A131C",
"+  c #29151C",
"@  c #341A15",
"#  c #351E1D",
"$  c #37181A",
"%  c #31160F",
"&  c #3D251C",
"*  c #39251B",
"=  c #322314",
"-  c #2C1424",
";  c #2B142C",
":  c #291927",
">  c #361826",
",  c #2F1632",
"<  c #341933",
"1  c #381B39",
"2  c #2A0C22",
"3  c #3D2221",
"4  c #382424",
"5  c #3B233B",
"6  c #352437",
"7  c #2F2023",
"8  c #1C3339",
"9  c #411E1D",
"0  c #42231B",
"q  c #482A19",
"w  c #56371B",
"e  c #4A2D14",
"r  c #422322",
"t  c #4B2C23",
"y  c #452929",
"u  c #4B3326",
"i  c #533424",
"p  c #54392C",
"a  c #5C3C2A",
"s  c #563727",
"d  c #462633",
"f  c #492838",
"g  c #532D37",
"h  c #4C3735",
"j  c #563938",
"k  c #613D25",
"l  c #633F33",
"z  c #62471F",
"x  c #5F4332",
"c  c #59453D",
"v  c #5E4224",
"b  c #634324",
"n  c #63432C",
"m  c #6A482A",
"M  c #6C4A33",
"N  c #63443B",
"B  c #6B4C3C",
"V  c #664835",
"C  c #724C32",
"Z  c #724E39",
"A  c #6E523D",
"S  c #755233",
"D  c #7A5634",
"F  c #74533D",
"G  c #7A563B",
"H  c #7D5A3A",
"J  c #785A39",
"K  c #74522D",
"L  c #5E451C",
"P  c #3A1F40",
"I  c #3C2242",
"U  c #3D284B",
"Y  c #363849",
"T  c #303345",
"R  c #431E4B",
"E  c #412544",
"W  c #42274A",
"Q  c #45294E",
"!  c #492946",
"~  c #48364C",
"^  c #55334C",
"/  c #5A3848",
"(  c #4C2C54",
")  c #4C2959",
"_  c #522D5C",
"`  c #532D54",
"'  c #4C3255",
"]  c #4E325B",
"[  c #523353",
"{  c #583654",
"}  c #5B3B52",
"|  c #54335C",
" . c #5B345C",
".. c #5A3B5C",
"X. c #522D4C",
"o. c #633A5D",
"O. c #553462",
"+. c #5B3563",
"@. c #5E3A65",
"#. c #5D376B",
"$. c #5D3B6A",
"%. c #573166",
"&. c #623C64",
"*. c #633D6C",
"=. c #643866",
"-. c #643E73",
";. c #673D76",
":. c #314C52",
">. c #336A6F",
",. c #2E5662",
"<. c #574746",
"1. c #514C55",
"2. c #6A4B46",
"3. c #685347",
"4. c #7C5B42",
"5. c #775746",
"6. c #63445B",
"7. c #6A475B",
"8. c #724E58",
"9. c #655754",
"0. c #76575A",
"q. c #7E6344",
"w. c #78654A",
"e. c #7A695B",
"r. c #7A725D",
"t. c #594566",
"y. c #5E4370",
"u. c #694564",
"i. c #65426D",
"p. c #69446C",
"a. c #6C4A6B",
"s. c #664665",
"d. c #714D66",
"f. c #665667",
"g. c #765668",
"h. c #654273",
"j. c #6A4574",
"k. c #6E4A74",
"l. c #6C447A",
"z. c #6E4A7A",
"x. c #724D74",
"c. c #724C7D",
"v. c #724477",
"b. c #745374",
"n. c #7A547D",
"m. c #7D597B",
"M. c #7A5678",
"N. c #4E6877",
"B. c #79657A",
"V. c #746C6E",
"C. c #825C3C",
"Z. c #825B36",
"A. c #87663D",
"S. c #835D43",
"D. c #845D47",
"F. c #815C54",
"G. c #856345",
"H. c #8A6443",
"J. c #8C6B44",
"K. c #84624B",
"L. c #8B654B",
"P. c #8C6A4B",
"I. c #866A45",
"U. c #906D44",
"Y. c #926C4C",
"T. c #94684B",
"R. c #8D714C",
"E. c #8E7345",
"W. c #93724B",
"Q. c #99764C",
"!. c #896955",
"~. c #916B52",
"^. c #966D5B",
"/. c #8A7454",
"(. c #8C775B",
"). c #947553",
"_. c #977858",
"`. c #8A6A66",
"'. c #8A7966",
"]. c #977966",
"[. c #856577",
"{. c #8B7E77",
"}. c #977A72",
"|. c #A17E78",
" X c #825B7A",
".X c #9B825F",
"XX c #A0845D",
"oX c #9B8468",
"OX c #988774",
"+X c #8F8269",
"@X c #A7896A",
"#X c #AD9169",
"$X c #A48676",
"%X c #AA9478",
"&X c #B49C7E",
"*X c #317485",
"=X c #6D4682",
"-X c #744C83",
";X c #744B89",
":X c #755283",
">X c #7A5385",
",X c #7D5A84",
"<X c #7C548A",
"1X c #7E598A",
"2X c #7E5592",
"3X c #777981",
"4X c #447186",
"5X c #825B85",
"6X c #835C8C",
"7X c #845C93",
"8X c #865B98",
"9X c #896689",
"0X c #916A8C",
"qX c #8A6395",
"wX c #8E6995",
"eX c #8C659A",
"rX c #876396",
"tX c #926C9B",
"yX c #987299",
"uX c #86728D",
"iX c #936BA5",
"pX c #9E76A4",
"aX c #8F65A7",
"sX c #A479AB",
"dX c #A57CB6",
"fX c #3B899F",
"gX c #4D96AD",
"hX c #7DA4AB",
"jX c #5C9099",
"kX c #64B8D2",
"lX c #6EC2DC",
"zX c #938984",
"xX c #908D8E",
"cX c #AF9081",
"vX c #B9A584",
"bX c #B6AEBB",
"nX c #B7AEB8",
"mX c #B3A8AE",
"MX c #8EABB2",
"NX c #C5A587",
"BX c #8ACBD9",
"VX c #94DEE9",
"CX c None",
/* pixels */
"CXCXCXCXCXCXCXCXCXCXCXCXCXCXCXCXCXCXCXCXCXCXCXCXCXCXCXCXCXCXCXCXCXCXCXCXCXCXCXCXCXCXCXCXCXCXCXCXCXCX",
"CXCXCXCXCXCXCXCXCXCXCXCXCXCXCXCXCXCXCXCXCXCXCXCXOXOX'.(.CXCXCXCXCXCXCXCXCXCXCXCXCXCXCXCXCXCXCXCXCXCX",
"CXCXCXCXCXCXCXCXCXCXCXCXCXCXCXCXCXCXCXCXCX(.).W.W.).(.oX&X%XCXCXCXCXCXCXCXCXCXCXCXCXCXCXCXCXCXCXCXCX",
"CXCXCXCXCXCXCXCXCXCXCXCXCXCXCXCXCXCXCX]._.J.J.A.U.Q.Y.P.).).oXvXCXCXCXCXCXCXCXCXCXCXCXCXCXCXCXCXCXCX",
"CXCXCXCXCXCXCXCXCXCXCXCXCXCXCXCXCX0.K.I.P.A.U.T.D.Z.Z.J.Y.E.W.).vX$XCXCXCXCXCXCXCXCXCXCXCXCXCXCXCXCX",
"CXCXCXCXCXCXCXCXCXCXCXCXCXCXCXCX2.^.K.Y.U.A.D m C k n H A.G.P.P.).@X@XCXCXCXCXCXCXCXCXCXCXCXCXCXCXCX",
"CXCXCXCXCXCXCXCXCXCXCXCXCXCXCX5.K.P.Y.I.I.M i 9 . . . 0 i V 4.P.Y.Q.#X&XCXCXCXCXCXCXCXCXCXCXCXCXCXCX",
"CXCXCXCXCXCXCXCXCXCXCXCXCXCXV q.I.I.I.P.n @ o > < < - X . @ p F C.W.E.@XvXCXCXCXCXCXCXCXCXCXCXCXCXCX",
"CXCXCXCXCXCXCXCXCXCXCXCXCXB q.E.A.E.K.s o - E Q ! | Q , :   o t G Z.Y.Q._.&XCXCXCXCXCXCXCXCXCXCXCXCX",
"CXCXCXCXCXCXCXCXCXCXCXCXCXJ E.J.E..Xx $ > Q O.y.O.:Xy.~ , : 2 o t H W.U.A.#X@XCXCXCXCXCXCXCXCXCXCXCX",
"CXCXCXCXCXCXCXCXCXCXCXCXF I.U.U..X5.9 2 P *.z.:X$.tX,Xy.P E < X $ i D.Q.A.A.NX.XCXCXCXCXCXCXCXCXCXCX",
"CXCXCXCXCXCXCXCXCXCXCX5.~.H.D _.K.0 ! ! R l.>X1Xi.wX,Xb.Q [ ! < O & a C.Q.A.#X#Xr.CXCXCXCXCXCXCXCXCX",
"CXCXCXCXCXCXCXCXCXCX3.G L.P.C.5.y g  X ._ -X>X7Xx.wX>Xp.( o.&.! - O 0 l P.U.E.#X(.CXCXCXCXCXCXCXCXCX",
"CXCXCXCXCXCXCXCXCXV F S.G.P.5.t d =.yX+.=.z.7XeXc.wX5X@.) v.c.O.U   o 0 m R.H Q.&XOXCXCXCXCXCXCXCXCX",
"CXCXCXCXCXCXCXCXCXV G.C.D.].5.9 { M.tX=.@.j.7XeX;XiX8X$._ :X>Xl.| < X X i G L A.G.%XCXCXCXCXCXCXCXCX",
"CXCXCXCXCXCXCXCXx J A.G.L.^.l r p.1XpX&. .l.-XiX7XiXeX-._ :X<X<X$.W ; O @ s e b I._.'.CXCXCXCXCXCXCX",
"CXCXCXCXCXCXCXCXx S I.J.L.!.9 g x.6XyX=.+.h.>XiX7XtX0Xb.| -X8X2X-.| P 2 O t V b Y._.$XCXCXCXCXCXCXCX",
"CXCXCXCXCXCXCX3.V K J ).~.N r o.6X7XpXo.=.j.>XiX5XyXyXf.+.c.7X7Xh.| | , X y A P.Y.Y.oXOXCXCXCXCXCXCX",
"CXCXCXCXCXCXCXc V G P.P.$Xf o.<X7X8XpXo.=.v.7XiXM.B.uX9X_ c.8X7Xk.| x.5   = i K.H.L.].'.CXCXCXCXCXCX",
"CXCXCXCXCXCXV.v n k ~.!.`.^ ;.8X8X8XyXo. .v.rX1Xf.B.B.B.` c.wXqXc...1X[ : % e J Z.P._.+XCXCXCXCXCXCX",
"CXCXCXCXCXCX3.x b w H ].j ^ 5X8X2X>X0Xo.o.>X6Xt.N.MXMXf.| z.9XpX1X$.rX$.6 X 0 V G ~.R.+XCXCXCXCXCXCX",
"CXCXCXCXCXCXx x m G C.].0 6.5XqXk.x.[.o.+.j.t.:.N.BXMX3XU c.6XsX7Xl.eXl.f X @ i D.Y.P.'.CXCXCXCXCXCX",
"CXCXCXCXCXCXu B S J.Q.R.& ^.8.[.0.[.{.b.=.@.Y ,.fXBXBXhX~ a.qXsX2X=XaX=X] ; $ y F.T.P.oXCXCXCXCXCXCX",
"CXCXCXCXCX9.u A J A.W.W.L q.}.N c e.u.[ ` ~ 8 >.gXlXVXhXV.o.9XsX8X=XaX;.] 1 - 3 5.D.G.oX{.CXCXCXCXCX",
"CXCXCXCXCX9.h F S U.Q.K z .X!.].w.c B.a.} 6 8 >.fXkXlXjXzX<.>XsX X=.8X;.O.E X & l S P._.r.CXCXCXCXCX",
"CXCXCXCXCX<.u F A.H.Q.b J q.4.F p 0.9Xv. .< Y :.*XgXjXN.f.6.b.0X Xd.x. X+.1 + @ w w b ].}.CXCXCXCXCX",
"CXCXCXCXCXh i Z C.Y.@Xe s 5.2./ d s.yXv.@.E 6 :.,.>.:.1.<.g.a. X0.}.g.7.6.5 + * k S.)._.r.CXCXCXCXCX",
"CXCXCXCXCXy s Z T.C.].q h j { 9X6.M.sX;.j.&.5 6 :.,.:.6 ~ 9Xu.8.4.G F.8.6.6   = n T.Y.^.w.CXCXCXCXCX",
"CXCXCXCXCXy v M S.D.|.9 o. . XeXh.eXdXl.v.n.k., 7 + E 1.[ b.} y w R.4.2.6.6 7 % w H.^.H.+XCXCXCXCXCX",
"CXCXCXCXCX& a m D.D.|.d  X;.6X8Xl.1XpX;.i.qX7X| 4 '.f.| 6.b.! > b NXNXg s.' + = w H.T.~.oXCXCXCXCXCX",
"CXCXCXCXCX& n m D.T.}.d x.>X;X8X5Xc.pXh.h.uX2Xk.<.`.g.@.+.M.d $ e m ^.g y.U : 4 s S.^.^.#XCXCXCXCXCX",
"CXCXCXCXzX& n C H.].`.d b.v.8X8X6X>XqX@.k.rX2Xz.d.<.m.p._  X! > % q @ ! %.) ; # i L.L.T.oXCXCXCXCXCX",
"CXCXCXCX{.& v S H.~.].d =.c.7X8X8Xc.7Xj.#.rXeX-X6XO.1X@.+.m.! ^ y j 8.^ R ( : # s K.L.S.oXCXCXCXCXCX",
"CXCXCXCXOX& n S C.~.`.d u.v.8XeXeX-XrXh.#.7XeXc.eXl.eX*.| M.{ 7.<.} 8.X.( ( : o t G.Y.K._.CXCXCXCXCX",
"CXCXCXCX{.& n F S.~.}.d 6.b.9X7XqX:X7X*.+.6XrXk.wXx.tXs. .m.o.{ d.7.7.X._ W - * i H ~.L.(.CXCXCXCXCX",
"CXCXCXCXzX* x J D.K.$X> { c.5X<XqX<X6X*.+.qXwXp.9Xv.wXs...m.u.{ / / =.o.&.U : * a G.Y.I./.CXCXCXCXCX",
"CXCXCXCXCX& v J S.D.cX9 [ c.8X2X8X<X8X#.$.wXqXi.6Xz.tX*.| n.c. Xb.a.9X5X*.E O o V Y.Y.G.(.CXCXCXCXCX",
"CXCXCXCXCX& v K C.T.|.r ! p.8X=X7X6XrX#.#.eXeX-.5Xl.eX*.) c.6XtX,Xk.5Xn.| 1 O # l Y.Y.I.+XCXCXCXCXCX",
"CXCXCXCXCX& L K Z.~.|.t d p.<X;.c.5XeX=.+.8XqX-.<X;.eX+.) -X>XqXqXv.wXc.+.I - $ C S.W.R.'.CXCXCXCXCX",
"CXCXCXCXCXu u K Z.T.@Xl y g.x.=.a.m.0X+. .6X7X;.;Xl.eX_ ) ;X-XeX6Xc.eX-.| 5 O 0 S.C.Y.Q.+XCXCXCXCXCX",
"CXCXCXCXCXh t B K.L.).G e w.`.j g g.[.{ ( 9XwXh.l.z.>X_ _ x.h.rXrX=X8X*.{ < > 0 S.T.J.R.+XCXCXCXCXCX",
"CXCXCXCXCX<.3 N Z T.Q.A.b q.(.2.2.2.8.7.X.n.rXl.l.v.:X_ | k.i.9X8Xl.8X*.' < # r S.T.A.).+XCXCXCXCXCX",
"CXCXCXCXCXf.> N 4.Z.J.Q.z q.5.0.2.2.d.f [ c.eX;.h.l.c.)  .j.i.5XqXl.<X$.~ ; > i T.^.T.R.e.CXCXCXCXCX",
"CXCXCXCXCXV.& V Z Y.A.#Xw F 2.j h g.[.X.` z.1Xz.-.c.-X) +.v.h.rX7X#.c.O.E O # V L.T.U._.r.CXCXCXCXCX",
"CXCXCXCXCXCX& p n D Z.@Xw j / 7.~ B.0X| ] -.-X-X#.-Xz.) _ l.l.2X>XO.*.] 6 + & B S.H.E.(.CXCXCXCXCXCX",
"CXCXCXCXCXCXu u k P.A.).3.j b.j.,Xn.5X_ %.$.<Xh._ l.k.] ] l.=X2X>X .$.( < # 3 2.C G.E./.CXCXCXCXCXCX",
"CXCXCXCXCXCXj t e w F K.^.^ s.p.j.z.-X;.) -.h.$.X.t.i.[ ) $.h.:Xh.) ] W : 4 0 2.e C E.w.CXCXCXCXCXCX",
"CXCXCXCXCXCX<.r l k 5.!.`.4 [ W Q ' ] U U U I I 5 f ~ 5 < I Q ] ' 1 I 6 : 7 r 2.M D./.w.CXCXCXCXCXCX",
"CXCXCXCXCXCXxX3.<.9.3.9.e.mXnXnXnXbXbXbXbXbXbXCXCXCXCXCXCXCXCXCXCXCXCXCXCX9.<.<.<.c 9.zXCXCXCXCXCXCX",
"CXCXCXCXCXCXCXCXCXCXCXCXCXCXCXCXCXCXCXCXCXCXCXCXCXCXCXCXCXCXCXCXCXCXCXCXCXCXCXCXCXCXCXCXCXCXCXCXCXCX"
};
