/* XPM */
static char *result[] = {
/* columns rows colors chars-per-pixel */
"50 50 140 2 ",
"   c #030103",
".  c #0A0605",
"X  c #0F0805",
"o  c #06030A",
"O  c #09040C",
"+  c #0E0A0D",
"@  c #130B04",
"#  c #110C0F",
"$  c #1F1205",
"%  c #070511",
"&  c #0B0513",
"*  c #0E0A12",
"=  c #0C081B",
"-  c #140E12",
";  c #100B1E",
":  c #151114",
">  c #191216",
",  c #1D151A",
"<  c #1B1B1B",
"1  c #251501",
"2  c #211308",
"3  c #20171D",
"4  c #21181E",
"5  c #2A1C18",
"6  c #3C2201",
"7  c #3D2F1D",
"8  c #0F0B23",
"9  c #100C25",
"0  c #130D2B",
"q  c #140E30",
"w  c #161034",
"e  c #191132",
"r  c #19123B",
"t  c #241B21",
"y  c #291E25",
"u  c #232323",
"i  c #2E222A",
"p  c #2F2D2F",
"a  c #32252E",
"s  c #362731",
"d  c #372832",
"f  c #3A2A35",
"g  c #3E2D38",
"h  c #323232",
"j  c #393633",
"k  c #3D3831",
"l  c #3E3D3D",
"z  c #432600",
"x  c #492900",
"c  c #532F00",
"v  c #5C3400",
"b  c #483011",
"n  c #603701",
"m  c #653A02",
"M  c #593520",
"N  c #402F3B",
"B  c #4F3636",
"V  c #42303C",
"C  c #573A33",
"Z  c #724100",
"A  c #7E4801",
"S  c #76481E",
"D  c #72432B",
"F  c #1C1443",
"G  c #1F1649",
"H  c #211747",
"J  c #231947",
"K  c #21184E",
"L  c #221952",
"P  c #2D1F54",
"I  c #261C5B",
"U  c #281D5E",
"Y  c #362450",
"T  c #3B2756",
"R  c #2B1E65",
"E  c #2E216E",
"W  c #342469",
"Q  c #2F2270",
"!  c #312373",
"~  c #35267D",
"^  c #432C57",
"/  c #513352",
"(  c #583754",
")  c #503469",
"_  c #5C3B74",
"`  c #56397D",
"'  c #633E60",
"]  c #613E73",
"[  c gray28",
"{  c gray31",
"}  c #5F5F5F",
"|  c #744744",
" . c #6A4254",
".. c #626262",
"X. c #6E6E6E",
"o. c #814A01",
"O. c #894E00",
"+. c #935300",
"@. c #814D16",
"#. c #A65E00",
"$. c #AC6200",
"%. c #AF660D",
"&. c #B36704",
"*. c #B66800",
"=. c #BB6A00",
"-. c #B1670C",
";. c #B76A09",
":. c #B96B08",
">. c #955837",
",. c #9C5C34",
"<. c #91563B",
"1. c #A25F2E",
"2. c #A05E30",
"3. c #AC6422",
"4. c #A4602B",
"5. c #C46F00",
"6. c #C57000",
"7. c #CC7400",
"8. c #834F48",
"9. c #814E50",
"0. c #372781",
"q. c #392985",
"w. c #3B2A8C",
"e. c #3F2D95",
"r. c #4D3487",
"t. c #45308F",
"y. c #4A3389",
"u. c #402E94",
"i. c #848484",
"p. c #8E8E8E",
"a. c gray57",
"s. c #A3A3A3",
"d. c #ACACAC",
"f. c gray74",
"g. c #CBCBCB",
"h. c #D2D2D2",
"j. c #E3E3E3",
"k. c #E9E9E9",
"l. c gray94",
"z. c None",
/* pixels */
"z.z.z.z.z.z.z.z.z.z.z.z.z.z.z.z.z.z.z.& o   o o & z.z.z.z.z.z.z.z.z.z.z.z.z.z.z.z.z.z.z.z.z.z.z.z.z.",
"z.z.z.z.z.z.z.z.z.z.z.z.z.z.z.z.z.z.o & L R I r %   o z.z.z.z.z.z.z.z.z.z.z.z.z.z.z.z.z.z.z.z.z.z.z.",
"z.z.z.z.z.z.z.z.z.z.z.z.z.z.z.z.z.z.& E G R w.e.e.! F & o z.z.z.z.z.z.z.z.z.z.z.z.z.z.z.z.z.z.z.z.z.",
"z.z.z.z.z.z.z.z.z.z.z.z.z.z.z.z.z.O & 0 + + r w.e.e.e.~ F & O z.z.z.z.z.z.z.z.z.z.z.z.z.z.z.z.z.z.z.",
"z.z.z.z.z.z.z.z.z.z.z.z.z.z.z.z.z.o + i g d - r e.e.e.e.e.! 0   z.z.z.z.z.z.z.z.z.z.z.z.z.z.z.z.z.z.",
"z.z.z.z.z.z.z.z.z.z.z.z.z.z.z.z.o , N V V V g . G e.e.e.e.e.e.U O o z.z.z.z.z.z.z.z.z.z.z.z.z.z.z.z.",
"z.z.z.z.z.z.z.z.z.z.z.z.z.z.z.o , g V V V V V a   0.e.e.e.e.e.e.E = o z.z.z.z.z.z.z.z.z.z.z.z.z.z.z.",
"z.z.z.z.z.z.z.z.z.z.z.z.z.z.O - g V V V V V V V , r e.e.e.e.e.e.e.0.q o z.z.z.z.z.z.z.z.z.z.z.z.z.z.",
"z.z.z.z.z.z.z.z.z.z.z.z.z.o 6 @.V V V f a a g V d o q.e.e.e.e.e.e.u.w.0 o z.z.z.z.z.z.z.z.z.z.z.z.z.",
"z.z.z.z.z.z.z.z.z.z.z.z.o x =.:.C g , < l p : t g + I e.e.e.e.e.e.e.e.q.8 o z.z.z.z.z.z.z.z.z.z.z.z.",
"z.z.z.z.z.z.z.z.z.z.z.o z 7.7.7.S > X.l.h.g.g.p : t = e.e.e.e.e.e.e.e.e.q.& & z.z.z.z.z.z.z.z.z.z.z.",
"z.z.z.z.z.z.z.z.z.z.  z 7.7.7.6.m } k.[     < f.u y   q.e.e.e.e.e.e.e.e.e.!   z.z.z.z.z.z.z.z.z.z.z.",
"z.z.z.z.z.z.z.z.z.o z 7.7.7.7.*.7 h.{         # s.: o E e.e.e.e.e.e.e.e.e.e.q o z.z.z.z.z.z.z.z.z.z.",
"z.z.z.z.z.z.z.z.o 1 5.7.7.7.7.#.j j.<           a.o # I e.e.e.e.e.e.e.u.e.e.q.  z.z.z.z.z.z.z.z.z.z.",
"z.z.z.z.z.z.z.z.. +.7.7.7.7.7.$.k j.<           i.. > G e.e.e.e.e.e.e.e.e.e.e.= O z.z.z.z.z.z.z.z.z.",
"z.z.z.z.z.z.z.o m 6.7.7.7.7.7.=.b d.X.        u i.< 3 F e.e.e.e.e.e.e.e.e.e.e.9 O z.z.z.z.z.z.z.z.z.",
"z.z.z.z.z.z.z.$ *.7.7.7.7.7.7.7.A l h...< : j i.< f 4 r e.e.e.e.e.e.e.e.e.e.w.% z.z.z.z.z.z.z.z.z.z.",
"z.z.z.z.z.z.o v 6.7.7.7.7.7.7.7.&.5 l s.s.a.i.< u g 4 r e.e.e.e.e.e.e.e.e.e.R   z.z.z.z.z.z.z.z.z.z.",
"z.z.z.z.z.z.  o.7.7.7.7.7.7.7.7.;.B i : : * , f V V , G e.e.e.e.e.e.e.e.e.w.o & z.z.z.z.z.z.z.z.z.z.",
"z.z.z.z.z.z.o n 7.7.7.7.7.7.7.7.;.B V V g g V V V V : L e.e.e.e.e.e.e.e.e.r o z.z.z.z.z.z.z.z.z.z.z.",
"z.z.z.z.z.z.z.X Z 6.7.7.7.7.7.7.-.V V V V V V V V V O E e.e.e.u.e.e.e.e.F   z.z.z.z.z.z.z.z.z.z.z.z.",
"z.z.z.z.z.z.z.& X c =.7.7.7.7.7.-.V V V V V V V V d   w.e.e.e.e.e.e.e.r o z.z.z.z.z.z.z.z.z.z.z.z.z.",
"z.z.z.z.z.z.z.z.z.o 1 Z *.7.7.7.-.V V V V V V V V , q e.e.e.e.e.e.0.w o z.z.z.z.z.z.z.z.z.z.z.z.z.z.",
"z.z.z.z.z.z.z.z.z.z.& o   z O.*.%.V V V V V V V d   ~ e.e.e.e.e.G o o z.z.z.z.z.z.z.z.z.z.z.z.z.z.z.",
"z.z.z.z.z.z.z.z.z.z.z.z.z.o o   @ > t y i i i u   U e.e.e.w.K O o & z.z.z.z.z.z.z.z.z.z.z.z.z.z.z.z.",
"z.z.z.z.z.z.z.z.z.z.z.z.z.z.z.z.z.% & O o   0 r Q e.e.e.e.w.K o z.z.z.z.z.z.z.z.z.z.z.z.z.z.z.z.z.z.",
"z.z.z.z.z.z.z.z.z.z.z.z.z.z.z.z.z.z.z.z.o r w.e.e.e.e.e.e.e.e.r o z.z.z.z.z.z.z.z.z.z.z.z.z.z.z.z.z.",
"z.z.z.z.z.z.z.z.z.z.z.z.z.z.z.z.z.z.z.z.o Q e.e.q.K e.e.e.e.e.w.0 o z.z.z.z.z.z.z.z.z.z.z.z.z.z.z.z.",
"z.z.z.z.z.z.z.z.z.z.z.z.z.z.z.z.z.z.z.& 0 w.e.w.q I e.e.e.e.e.0.~ 8 o z.z.z.z.z.z.z.z.z.z.z.z.z.z.z.",
"z.z.z.z.z.z.z.z.z.z.z.z.z.z.z.z.z.z.z.o U e.e.E = e.e.e.e.e.q.8 q.~ 9 o z.z.z.z.z.z.z.z.z.z.z.z.z.z.",
"z.z.z.z.z.z.z.z.z.z.z.z.z.z.z.z.z.z.& O 0.e.w.% ^ ] ] ` y.e.e.= ~ e.q.e   & z.z.z.z.z.z.z.z.z.z.z.z.",
"z.z.z.z.z.z.z.z.z.z.z.z.z.z.z.z.z.z.o 0 e.w.E $ 3.1.4.3.3.>._ & ! u.t.<.M o z.z.z.z.z.z.z.z.z.z.z.z.",
"z.z.z.z.z.z.z.z.z.z.z.z.z.z.z.z.z.z.  R e.e.r = F r e J T ' >.$ Q _ 2.9.W o   o z.z.z.z.z.z.z.z.z.z.",
"z.z.z.z.z.z.z.z.z.z.z.z.z.z.z.z.z.z.X  .r.e.E   , 4 4 , * 8 P * D ,. .J O t i : o z.z.z.z.z.z.z.z.z.",
"z.z.z.z.z.z.z.z.z.z.z.z.z.z.z.z.z.O - 8.4.,.|   V V V V f u O   / Y 0 : a V N d   z.z.z.z.z.z.z.z.z.",
"z.z.z.z.z.z.z.z.z.z.z.z.z.z.z.z.z.z.  8 U ) ( o V V V N i f + = o + a V N > - o o z.z.z.z.z.z.z.z.z.",
"z.z.z.z.z.z.z.z.z.z.z.z.z.z.z.z.z.z.z.O     O   V V . f :   . t f V V V V + O & z.z.z.z.z.z.z.z.z.z.",
"z.z.z.z.z.z.z.z.z.z.z.z.z.z.z.z.z.z.z.z.  : i . , i   . o i V V V a , g j   z.z.z.z.z.z.z.z.z.z.z.z.",
"z.z.z.z.z.z.z.z.z.z.z.z.z.z.z.z.z.z.z.z.z.  # i o   4 i d V V g t o   o . o z.z.z.z.z.z.z.z.z.z.z.z.",
"z.z.z.z.z.z.z.z.z.z.z.z.z.z.z.z.z.z.z.z.z.o .   > : V V V V V i o & z.z.& z.z.z.z.z.z.z.z.z.z.z.z.z.",
"z.z.z.z.z.z.z.z.z.z.z.z.z.z.z.z.z.z.z.z.z.z.O a 4 # > N V N N : O z.z.z.z.z.z.z.z.z.z.z.z.z.z.z.z.z.",
"z.z.z.z.z.z.z.z.z.z.z.z.z.z.z.z.z.z.z.z.z.z.o # d f   3 f g y o z.z.z.z.z.z.z.z.z.z.z.z.z.z.z.z.z.z.",
"z.z.z.z.z.z.z.z.z.z.z.z.z.z.z.z.z.z.z.z.z.z.z.o . + o o X + o o z.z.z.z.z.z.z.z.z.z.z.z.z.z.z.z.z.z.",
"z.z.z.z.z.z.z.z.z.z.z.z.z.z.z.z.z.z.z.z.z.z.z.z.O   z.z.z.o o z.z.z.z.z.z.z.z.z.z.z.z.z.z.z.z.z.z.z.",
"z.z.z.z.z.z.z.z.z.z.z.z.z.z.z.z.z.z.z.z.z.z.z.z.&   z.z.z.O o z.z.z.z.z.z.z.z.z.z.z.z.z.z.z.z.z.z.z.",
"z.z.z.z.z.z.z.z.z.z.z.z.z.z.z.z.z.z.z.z.z.z.z.z.  & z.z.O   z.z.z.z.z.z.z.z.z.z.z.z.z.z.z.z.z.z.z.z.",
"z.z.z.z.z.z.z.z.z.z.z.z.z.z.z.z.z.z.&   o         o o O o o z.z.z.z.z.z.z.z.z.z.z.z.z.z.z.z.z.z.z.z.",
"z.z.z.z.z.z.z.z.z.z.z.z.z.z.z.z.z.z.&                     . O z.z.z.z.z.z.z.z.z.z.z.z.z.z.z.z.z.z.z.",
"z.z.z.z.z.z.z.z.z.z.z.z.z.z.z.z.z.z.z.O & z.z.= O O & z.z.z.& z.z.z.z.z.z.z.z.z.z.z.z.z.z.z.z.z.z.z.",
"z.z.z.z.z.z.z.z.z.z.z.z.z.z.z.z.z.z.z.z.z.z.z.z.z.z.z.z.z.z.z.z.z.z.z.z.z.z.z.z.z.z.z.z.z.z.z.z.z.z."
};
