/* XPM */
static char *cbf6e65f2aa1459ec6e74e2442db7df1PqKmExPOoE4JJq4Y[] = {
/* columns rows colors chars-per-pixel */
"50 50 141 2 ",
"   c None",
".  c #030103",
"X  c #0A0604",
"o  c #06030A",
"O  c #09040C",
"+  c #0D0A0C",
"@  c #120B00",
"#  c #1A0F00",
"$  c #100C0F",
"%  c #1E1104",
"&  c #070511",
"*  c #0C0513",
"=  c #0C0814",
"-  c #0C091B",
";  c #140F12",
":  c #140D1C",
">  c #171215",
",  c #191317",
"<  c #1D161B",
"1  c #1D1B1D",
"2  c #231403",
"3  c #2E1A01",
"4  c #25190F",
"5  c #2B1C08",
"6  c #20171D",
"7  c #21181E",
"8  c #301D19",
"9  c #2D200E",
"0  c #3B2100",
"q  c #3A231C",
"w  c #0E0A22",
"e  c #110C26",
"r  c #130E2C",
"t  c #150F31",
"y  c #171035",
"u  c #1B1332",
"i  c #19123B",
"p  c #241B21",
"a  c #2A1F26",
"s  c #232022",
"d  c #2C2027",
"f  c #2D2129",
"g  c #2C2C2D",
"h  c #322B23",
"j  c #33242E",
"k  c #362731",
"l  c #372932",
"z  c #3A2A35",
"x  c #3F2E39",
"c  c #343434",
"v  c #3C3C3C",
"b  c #512E00",
"n  c #573100",
"m  c #442B1A",
"M  c #502E16",
"N  c #603700",
"B  c #643900",
"V  c #683C00",
"C  c #412D2E",
"Z  c #4B3020",
"A  c #4F352C",
"S  c #5D382F",
"D  c #412F3B",
"F  c #4A3436",
"G  c #42303C",
"H  c #513736",
"J  c #533835",
"K  c #79483D",
"L  c #1D1545",
"P  c #1F1648",
"I  c #21184D",
"U  c #231952",
"Y  c #271C5C",
"T  c #2C1F5D",
"R  c #2A1E63",
"E  c #2D206B",
"W  c #362567",
"Q  c #392766",
"!  c #312374",
"~  c #35267C",
"^  c #3E2B79",
"/  c #623D4D",
"(  c #643E57",
")  c #422C68",
"_  c #5E3C61",
"`  c #5D3C76",
"'  c #434343",
"]  c #4B4B4A",
"[  c #525152",
"{  c #585758",
"}  c #5C5B5C",
"|  c #6F4454",
" . c #7A4B52",
".. c #784A5A",
"X. c #6B4367",
"o. c #65406D",
"O. c #747474",
"+. c #7C7C7C",
"@. c #824A03",
"#. c #8D5100",
"$. c #985A17",
"%. c #A45D00",
"&. c #A96000",
"*. c #B26600",
"=. c #B76800",
"-. c #BB6B02",
";. c #BA6B08",
":. c #9E5D27",
">. c #8B5239",
",. c #92573E",
"<. c #97593A",
"1. c #A15F2F",
"2. c #C26E03",
"3. c #C47004",
"4. c #CC7400",
"5. c #824F4E",
"6. c #8C5444",
"7. c #86514A",
"8. c #372782",
"9. c #392986",
"0. c #3C2B8E",
"q. c #3B2A8B",
"w. c #3E2D93",
"e. c #3F2D95",
"r. c #3F2D94",
"t. c #3F2D95",
"y. c #47318D",
"u. c #513682",
"i. c #868687",
"p. c #939394",
"a. c #9A9A9A",
"s. c #A4A4A4",
"d. c #AFAFAF",
"f. c #B4B4B4",
"g. c gray78",
"h. c gray76",
"j. c gray81",
"k. c LightGray",
"l. c #DFDFDF",
"z. c gray89",
"x. c #E4E4E4",
/* pixels */
"                                                              * o o o o *                           ",
"                                                        * o . - L Y R P O O                         ",
"                                                    * o . P ~ e.e.e.! P E O                         ",
"                                                  o . U q.e.e.e.9.y o . r & *                       ",
"                                              * . i 9.e.e.e.e.9.e ; z z p o o                       ",
"                                            o - R e.e.e.e.e.0.i ; x G G G z > o                     ",
"                                          o r 8.e.e.e.e.e.e.R + k G G G G G x > O                   ",
"                                        o i 0.e.e.e.e.e.e.e.e 7 G G G G G G G z + O                 ",
"                                      o P e.e.e.e.e.e.e.e.~ + z G x z z D G G G Z 2 O               ",
"                                    o i e.e.e.e.e.e.e.e.e.i < x a , 7 s < d D G $.%.3 O             ",
"                                  o i 0.e.e.e.e.e.e.e.e.w.O d , c d.k.g.d.c < F ;.4.=.0 O           ",
"                                o - 8.e.e.e.e.e.e.e.e.e.! . 7 v l.a.g , g a.v m 4.4.4.=.0 o         ",
"                                o R e.e.e.e.e.e.e.e.e.e.I $ < f.s.X . . . + p.5 2.4.4.4.=.# O       ",
"                              o t 0.e.e.e.e.e.e.e.e.e.e.t < g z.[ . . . . . { h *.4.4.4.4.%.X *     ",
"                              . Y e.e.e.e.e.e.e.e.e.e.e.w a g x.v . . . . . ' h *.4.4.4.4.4.@..     ",
"                              . ! e.e.e.e.e.e.e.e.e.e.e.= j 1 h.O.. . . . . +.9 2.4.4.4.4.4.4.b o   ",
"                              . R e.e.e.e.e.e.e.e.e.e.e.O j 7 } j.' . . X { ] V 4.4.4.4.4.4.4.*.X * ",
"                              o y 0.e.e.e.e.e.e.e.e.e.e.O j z , } f.s.i.+.] 4 =.4.4.4.4.4.4.4.4.b o ",
"                                o E e.e.e.e.e.e.e.e.e.e.= j G z < s v v p < A 3.4.4.4.4.4.4.4.4.#.o ",
"                                o w 8.e.e.e.e.e.e.e.e.e.w d G G D l j j l D J 3.4.4.4.4.4.4.4.4.#.. ",
"                                  o r 9.e.e.e.e.e.e.e.e.y < G G G G G G G G J 2.4.4.4.4.4.4.4.-.@ O ",
"                                    o t w.e.e.e.e.e.e.e.Y + G G G G G G G G J 2.4.4.4.4.4.4.&.% o   ",
"                                      o e 9.e.e.e.e.e.e.0.. k G G G G G G G H ;.4.4.4.4.-.B . O     ",
"                                        o O E e.e.e.e.e.e.y , G G G G G G G H ;.4.4.%.N @ o *       ",
"                                          O . w E w.e.e.e.9.* p G G G G G x C @.n # . o *           ",
"                                              * . i e.e.e.e.! - . X X X . . . o O                   ",
"                                              o r e.e.e.e.e.e.0.8.E * *                             ",
"                                            o - 0.e.e.e.e.e.0.e.e.e.P o                             ",
"                                          O O 9.e.e.e.e.e.e.e ~ e.e.! .                             ",
"                                        O O ~ 9.Y e.e.e.e.e.U e 0.e.0.- O                           ",
"                                      o w ~ e.Y y e.e.e.e.e.9.r U e.e.Y o                           ",
"                                    o 8 9.e.e.L L y.` ..7.6.7.S : 9.e.9.O *                         ",
"                                  . i >.5.y.e.i j <.1.7.| ( ( / : R e.e.r o                         ",
"                              o o + e W 6.<.o.u M _ R i e - w e & U y.e.T o                         ",
"                            * + j z p = U _ ,.q r e + < a d d 6 = ^ u.X.K X                         ",
"                            O ; l z x z > * P U . p x G G G G j % :.1. .) & *                       ",
"                              o X O 7 G D k , + . < 7 d D z G j = Q U w o o                         ",
"                                  . d G D x G z j + . 7 a + G a . O X .                             ",
"                                  o , l p + z G G x a X X . a + < d O *                             ",
"                                    o o . O X a G G G z l 7 O > 7 X o                               ",
"                                            * . z G G G G d + + > O O                               ",
"                                              o p G G G z O p j p o                                 ",
"                                              * X d l a + + k p O O                                 ",
"                                                O o O o O o X o O                                   ",
"                                                  o o       O o                                     ",
"                                                  O o         .                                     ",
"                                                    .         .                                     ",
"                                                    .         o *                                   ",
"                                                    o o o . . . . . . . . *                         ",
"                                                * . o o o . . . o o o . . *                         "
};
