/* XPM */
static char *result[] = {
/* columns rows colors chars-per-pixel */
"50 50 83 1 ",
"  c #39335D",
". c #393564",
"X c #3D3964",
"o c #3E346C",
"O c #433A66",
"+ c #43356B",
"@ c #443C6D",
"# c #4A3E6E",
"$ c #453A73",
"% c #4B3F73",
"& c #4D3F78",
"* c #503E77",
"= c #513E7B",
"- c #4C4367",
"; c #4A416B",
": c #58506E",
"> c #4B4273",
", c #514275",
"< c #534A74",
"1 c #594E74",
"2 c #54457B",
"3 c #59467E",
"4 c #554B7C",
"5 c #5A4C7D",
"6 c #5C527C",
"7 c #624E7D",
"8 c #625B75",
"9 c #61527E",
"0 c #64597E",
"q c #564581",
"w c #5A4681",
"e c #5C4C82",
"r c #5F4D88",
"t c #5E5282",
"y c #5E5088",
"u c #624E85",
"i c #654D89",
"p c #645384",
"a c #6B5686",
"s c #665984",
"d c #6B5B85",
"f c #655389",
"g c #6A558C",
"h c #675989",
"j c #6D5A8B",
"k c #705E87",
"l c #71578F",
"z c #725C8D",
"x c #6F5590",
"c c #6E5A91",
"v c #715791",
"b c #745C92",
"n c #7A5E94",
"m c #775F98",
"M c #7C5F99",
"N c #6F608A",
"B c #716386",
"V c #776A85",
"C c #74638D",
"Z c #7A648E",
"A c #7A6B8D",
"S c #6E6190",
"D c #766292",
"F c #7B6493",
"G c #746892",
"H c #7D6994",
"J c #7E629A",
"K c #7E6998",
"L c #7F7092",
"P c #805F9B",
"I c #826696",
"U c #836B96",
"Y c #886D97",
"T c #83659A",
"R c #856B9A",
"E c #886D9B",
"W c #847295",
"Q c #897397",
"! c #87719A",
"~ c #8A729B",
"^ c #8C799A",
"/ c #8267A0",
"( c #92839E",
/* pixels */
".lnnbnnnbnnnnnFFF2gFFDnnFmnmnnJnbnllFJJFbDbnmbbbDM",
"onMJPJnPTJPTIIJRJumTTJTTTMTPPPTnJJbbJJJJJJJMJJJJmm",
"o@#;,443eevbRJTTTfvnFMbblavb7lnbyjfe5eyfjgyfyeyieu",
"bNhhjHFZFFPbUJKUWRRRUTFzCdaF0<IFKUWJFFFIRU@fmmJJJJ",
"MMMMJMJH-<JJRJJJJJTTJJJMF vPTJTM/TMJJ/TJWQexMTMJJJ",
"MMPmJTJIXOTTJTJJJTMTTJJMI%bPJJPTPM/MMJJ/I^fbJT/JJJ",
"MMTMM/JJeiTJJJTTJJJPMTJPT>vTM/PTPT/M/TJ/J!yc//M//J",
"MMMPPPJJrvMTJIRJRRJ/TPTMT3vPPTPPMmT/J/JJJDjc/J/TJT",
"wffxgvmzqfbbbbmbbDbbnbbMClwxbbnbcggxxxrfFbcGmcfcxy",
">tfhgbbFbjpfffhghyhffgizDDsuxbFFCjrJJKDFTKKKKKKKKK",
";JKJITTRRTIRIIFIddFUUFTIUUTITRTJUjqTR/RTUI//KKK!RR",
"2JTTTITRJTR/RR/Rz2IITIITTTTITTTTMkqTRJTRJRK!/KR//K",
">TJTTJIT/RTTRRRTd4TRTITTTTTTRTRTId2RRKKJTURR/RKR!~",
",TTTTJTTRTTITT/Ta6TITRRPRTTRRRRRUdqRR/KKTTRRRU/!!/",
"2TTTTTTITTIITRTIzuRRTTTRRTTRRRTTRN$DDDScDhDJDDDDKJ",
"qpcgjbFn6#4pCzssdj5jzznJbap9579bjCDDjheqeo>fp6eDGb",
"HUITHTUQ2@jU!RUDUWDURURRRFCZAZUHzUUUUAJCCdobDDWK/K",
"TTTTTRF~%gRTTTRTTTTRTTIIU,ITTRRTRTTRRTTRT~*DJcITRK",
"TTRRRTR~+xTTTRR/TTTTTTTIUuIRERTYRRRTTTTRT!4FR/KRRK",
"TTTTTTTUobRTIRTRTTTRTTRTH7RRRTTTT/TTRTT/UR2Z~!/R/K",
"RTRTTRTEobT/TRRI/RITTTTRIeTRRRTTTRRRTRIRRR5FRRRUR/",
"xfbMJFTH.4gDbzFJTRTTPTTYIplbbgjnFGJbbIDjhFztgDNpfh",
"TGDFIJ~!WHFWHHGHIUU^Zs4FFYUFA6;g!DHCNWVBtCH!KWW4hG",
"RUUZDTUU!ERRWgRREEEQ^CnIRUIRWVeIRRRRR!UaWRTWWR(1FR",
"RITYzTRRRRTRUiRRYYTYRdnTITTTTI*Y/!R/~RZuKTTUTR^zRR",
"TTIJDIRRRIRRkaEETTIIE4TTRTYYYPwER~R~~RIuUTUUURRIRT",
"TTTHpPRRRRU!biERTYIRE>jIYTYTRFwER!RRRRnuITTTJRRFTT",
"RTJFobR/~/!!CpERTTTYE4fnTTTTbku~!R!R/RZ4bFJKJTIzsp",
"65;ss5<<tt6hChnz7zzzYzk6eugzjzjjbCkhF^~UKFUUUFHWWG",
"L<s!W!LKKKLWQQQ~~^nlYYYIUYYYYUUYEWQ&KQ~!R!!U~~~R!!",
"QpbR!~!~~~~~~~~EYQZITTYIRTTRRIIRE~W&b~!RU!RKR/R~RR",
"RpJ~!/!R~~~/~~~~EQIIYPYIIYYIIIIYRTWfxRR!!TTRE/RR~R",
"R,z~~~~~~~~~!~~~~^zlY~^YYYYIRYRURRY5F~!/!RURRRR~R!",
"H+lRRWR//!EERR/~EYU7uzIRTYIIRRYTIRU2eR~~TRTT!RR/RU",
"C5jDjjj0sjFHD5GFIYQUjpCZFza4jDzDjzdBjDZFsjjjbjDDDz",
"!RYQQUU61FU~!U~!QY^~QRQ^WQUA~^!Q!!W^Q~QW!:sHRU~R!!",
"R!RRTR^83EEERE~EE~EEYYR~pzRR~UEE~!!!!!RERjeRRRRRTR",
"RRRRRYECuTTEREUYE~ETIYEQCbRUHUHUIUHHKUUURbwRRR!RIR",
"R/RRRYEduPTERR~~/~EYTIE~UF~~~RUUHRRRFUIIYzfF!TURRR",
"KRRTYTPIuIYERE~~EEETYYY~WDERQ!~~~E~!RRRYYFwJU!TRTR",
"cgazIIFHnnzFRFZDDCZnZZZFUdFIZDDGCDDFFZZIJZjgjCzjgg",
"DCjFUQ~RYYWU~HUWANCHFIUUUUUUIHUUHCCHUUUI~ZCjjCCGFC",
"gR!URE~~R~YYQU~QApE~~~YYQQ~EQ~~~QBdEYYYIU!RRRRHUEA",
"5RERRR/RRREEER~UUlE~EEYEEEYREE~~~CaREEYIIRRRREJRE~",
"3RREE!RR~EEE~ERTUbR~R~R~E~EE~~~~WdpRTYYPETRRITRERR",
"=RRRR~R~REEEERERIgEER~~~EE~~~~~!EduEYYYPYETRTRERRE",
"pgFJTHTRKRRTUTRIBkFRYYRUURER~E~~IZubPTIIanTTRRRRTT",
"zCjzlzjho2hZDDBddzFzFFCj69jFFCzzzZInklnI01agggagaa",
"~QYRQQQZuZY~^~^EYEQ~Y~WQ:DER~!RIYRYYTTYPPInIIIIIkP",
"RREERRQIlTRRE~E~EEE~~~~~9F~ERETYETTYTTTYYa0IIIIIII"
};
